<svg width="38" height="39" viewBox="0 0 38 39" fill="none" xmlns="http://www.w3.org/2000/svg">
<path d="M33.4762 0.714844H4.52381C2.02667 0.714844 0 2.74151 0 5.23865V34.191C0 36.6882 2.02667 38.7148 4.52381 38.7148H33.4762C35.9733 38.7148 38 36.6882 38 34.191V5.23865C38 2.74151 35.9733 0.714844 33.4762 0.714844ZM29.8571 14.2863H28.0476C26.1114 14.2863 25.3333 14.7387 25.3333 16.0958V18.8101H29.8571L28.9524 23.3339H25.3333V36.9053H20.8095V23.3339H17.1905V18.8101H20.8095V16.0958C20.8095 12.4767 22.619 9.76246 26.2381 9.76246C28.8619 9.76246 29.8571 10.6672 29.8571 10.6672V14.2863Z" fill="#FFFBDF"/>
</svg>
