<svg width="40" height="41" viewBox="0 0 40 41" fill="none" xmlns="http://www.w3.org/2000/svg">
<path d="M11.8182 0.714844C5.3 0.714844 0 6.01484 0 12.533V28.8967C0 35.4148 5.3 40.7148 11.8182 40.7148H28.1818C34.7 40.7148 40 35.4148 40 28.8967V12.533C40 6.01484 34.7 0.714844 28.1818 0.714844H11.8182ZM30.9091 7.98757C31.9091 7.98757 32.7273 8.80575 32.7273 9.80575C32.7273 10.8058 31.9091 11.6239 30.9091 11.6239C29.9091 11.6239 29.0909 10.8058 29.0909 9.80575C29.0909 8.80575 29.9091 7.98757 30.9091 7.98757ZM20 10.7148C25.5182 10.7148 30 15.1967 30 20.7148C30 26.233 25.5182 30.7148 20 30.7148C14.4818 30.7148 10 26.233 10 20.7148C10 15.1967 14.4818 10.7148 20 10.7148ZM20 12.533C15.4909 12.533 11.8182 16.2058 11.8182 20.7148C11.8182 25.2239 15.4909 28.8967 20 28.8967C24.5091 28.8967 28.1818 25.2239 28.1818 20.7148C28.1818 16.2058 24.5091 12.533 20 12.533Z" fill="#FFFBDF"/>
</svg>
