<svg width="51" height="41" viewBox="0 0 51 41" fill="none" xmlns="http://www.w3.org/2000/svg">
<g clip-path="url(#clip0_620_1157)">
<path d="M49.988 40.1668V40.2708H50.0832C50.0832 40.2708 50.119 40.2668 50.1348 40.2588C50.1467 40.2508 50.1547 40.2348 50.1547 40.2188C50.1547 40.2028 50.1467 40.1908 50.1348 40.1788C50.119 40.1708 50.1031 40.1668 50.0832 40.1668H49.988ZM50.0832 40.0948C50.1229 40.0948 50.1626 40.1028 50.1983 40.1268C50.2261 40.1508 50.242 40.1828 50.238 40.2188C50.238 40.2508 50.2261 40.2788 50.2062 40.2988C50.1824 40.3228 50.1467 40.3348 50.115 40.3388L50.242 40.4868H50.1428L50.0237 40.3428H49.9841V40.4868H49.9007V40.0988H50.0793L50.0832 40.0948ZM50.0594 40.6188C50.1031 40.6188 50.1467 40.6108 50.1864 40.5948C50.2261 40.5788 50.2578 40.5548 50.2896 40.5268C50.3173 40.4988 50.3411 40.4628 50.357 40.4228C50.3888 40.3428 50.3888 40.2508 50.357 40.1668C50.3411 40.1268 50.3173 40.0948 50.2896 40.0628C50.2618 40.0348 50.2261 40.0108 50.1864 39.9948C50.1467 39.9788 50.1031 39.9708 50.0594 39.9708C50.0158 39.9708 49.9722 39.9788 49.9325 39.9948C49.8928 40.0108 49.8571 40.0348 49.8293 40.0628C49.7381 40.1588 49.7103 40.2988 49.7619 40.4228C49.7777 40.4628 49.8015 40.4948 49.8293 40.5268C49.8611 40.5548 49.8928 40.5788 49.9325 40.5948C49.9722 40.6108 50.0158 40.6228 50.0594 40.6188ZM50.0594 39.8748C50.1705 39.8748 50.2777 39.9188 50.361 39.9988C50.4007 40.0388 50.4284 40.0828 50.4522 40.1308C50.4959 40.2348 50.4959 40.3508 50.4522 40.4548C50.4324 40.5028 50.4007 40.5508 50.361 40.5868C50.3213 40.6228 50.2777 40.6548 50.2261 40.6748C50.1745 40.6988 50.119 40.7068 50.0594 40.7068C50.0039 40.7068 49.9444 40.6948 49.8928 40.6748C49.8412 40.6548 49.7976 40.6228 49.7579 40.5868C49.7182 40.5468 49.6905 40.4988 49.6706 40.4508C49.627 40.3468 49.627 40.2308 49.6706 40.1268C49.6905 40.0748 49.7222 40.0308 49.7619 39.9948C49.8015 39.9548 49.8452 39.9268 49.8968 39.9068C49.9483 39.8828 50.0079 39.8748 50.0634 39.8748M11.0179 38.3748C11.0179 37.6348 11.498 37.0228 12.2875 37.0228C13.0771 37.0228 13.5492 37.6068 13.5492 38.3748C13.5492 39.1428 13.0414 39.7268 12.2875 39.7268C11.5337 39.7268 11.0179 39.1188 11.0179 38.3748ZM14.4063 38.3748V36.2628H13.4977V36.7788C13.208 36.3988 12.7716 36.1588 12.1764 36.1588C11.002 36.1588 10.0815 37.0868 10.0815 38.3748C10.0815 39.6628 11.002 40.5908 12.1764 40.5908C12.7716 40.5908 13.208 40.3508 13.4977 39.9708V40.4828H14.4063V38.3708V38.3748ZM45.1515 38.3748C45.1515 37.6348 45.6316 37.0228 46.4211 37.0228C47.2107 37.0228 47.6828 37.6068 47.6828 38.3748C47.6828 39.1428 47.175 39.7268 46.4211 39.7268C45.6673 39.7268 45.1515 39.1188 45.1515 38.3748ZM48.5398 38.3748V34.5708H47.6273V36.7788C47.3376 36.3988 46.9012 36.1588 46.3061 36.1588C45.1316 36.1588 44.2111 37.0868 44.2111 38.3748C44.2111 39.6628 45.1316 40.5908 46.3061 40.5908C46.9012 40.5908 47.3376 40.3508 47.6273 39.9708V40.4828H48.5398V38.3708V38.3748ZM25.6981 36.9788C26.2854 36.9788 26.6623 37.3508 26.7575 38.0028H24.5872C24.6824 37.3948 25.0514 36.9788 25.6981 36.9788ZM25.718 36.1588C24.492 36.1588 23.635 37.0588 23.635 38.3748C23.635 39.6908 24.5277 40.5908 25.7815 40.5908C26.4123 40.5908 26.9876 40.4308 27.4955 39.9988L27.0511 39.3188C26.702 39.6028 26.2536 39.7588 25.833 39.7588C25.2458 39.7588 24.7142 39.4868 24.5832 38.7268H27.6899C27.6978 38.6108 27.7097 38.4988 27.7097 38.3748C27.7018 37.0588 26.8924 36.1588 25.722 36.1588M36.7044 38.3708C36.7044 37.6308 37.1845 37.0188 37.974 37.0188C38.7636 37.0188 39.2357 37.6028 39.2357 38.3708C39.2357 39.1388 38.7279 39.7228 37.974 39.7228C37.2202 39.7228 36.7044 39.1148 36.7044 38.3708ZM40.0927 38.3708V36.2628H39.1842V36.7788C38.8945 36.3988 38.4581 36.1588 37.8629 36.1588C36.6885 36.1588 35.768 37.0868 35.768 38.3748C35.768 39.6628 36.6885 40.5908 37.8629 40.5908C38.4581 40.5908 38.8945 40.3508 39.1842 39.9708V40.4828H40.0927V38.3708ZM31.5663 38.3708C31.5663 39.6508 32.4511 40.5868 33.8001 40.5868C34.4309 40.5868 34.8515 40.4468 35.3038 40.0828L34.8674 39.3428C34.5261 39.5908 34.1651 39.7228 33.7723 39.7228C33.0462 39.7148 32.5106 39.1828 32.5106 38.3708C32.5106 37.5588 33.0462 37.0308 33.7723 37.0188C34.1691 37.0188 34.5261 37.1508 34.8674 37.3988L35.3038 36.6588C34.8475 36.2988 34.4309 36.1548 33.8001 36.1548C32.4511 36.1548 31.5663 37.0908 31.5663 38.3708ZM43.2946 36.1588C42.7709 36.1588 42.4297 36.4068 42.1916 36.7788V36.2668H41.291V40.4868H42.2035V38.1228C42.2035 37.4228 42.5011 37.0348 43.0962 37.0348C43.2907 37.0348 43.4851 37.0668 43.6636 37.1428L43.9453 36.2788C43.743 36.1988 43.4811 36.1628 43.2986 36.1628M18.9056 36.5988C18.4691 36.3068 17.866 36.1588 17.1995 36.1588C16.1401 36.1588 15.4577 36.6708 15.4577 37.5108C15.4577 38.1988 15.9655 38.6228 16.9019 38.7548L17.3304 38.8148C17.8303 38.8868 18.0644 39.0188 18.0644 39.2548C18.0644 39.5828 17.7311 39.7668 17.1122 39.7668C16.4932 39.7668 16.029 39.5628 15.7195 39.3268L15.291 40.0428C15.791 40.4148 16.4218 40.5908 17.1042 40.5908C18.3144 40.5908 19.0127 40.0188 19.0127 39.2148C19.0127 38.4748 18.4612 38.0868 17.5526 37.9548L17.1241 37.8908C16.7313 37.8388 16.4139 37.7588 16.4139 37.4748C16.4139 37.1668 16.7115 36.9788 17.2114 36.9788C17.747 36.9788 18.2628 37.1828 18.5167 37.3388L18.9095 36.5988H18.9056ZM30.6458 36.1588C30.1221 36.1588 29.7808 36.4068 29.5428 36.7788V36.2668H28.6421V40.4868H29.5507V38.1228C29.5507 37.4228 29.8483 37.0348 30.4434 37.0348C30.6379 37.0348 30.8323 37.0668 31.0108 37.1428L31.2925 36.2788C31.0902 36.1988 30.8283 36.1628 30.6458 36.1628M22.8811 36.2628H21.3933V34.9828H20.4728V36.2628H19.6237V37.1028H20.4728V39.0268C20.4728 40.0068 20.8497 40.5868 21.9249 40.5868C22.3217 40.5868 22.774 40.4628 23.0636 40.2588L22.8018 39.4748C22.532 39.6348 22.2344 39.7148 21.9963 39.7148C21.5401 39.7148 21.3933 39.4308 21.3933 39.0068V37.0988H22.8811V36.2588V36.2628ZM9.2761 40.4828V37.8348C9.2761 36.8388 8.64525 36.1668 7.62953 36.1588C7.0939 36.1508 6.54637 36.3188 6.15754 36.9108C5.8679 36.4428 5.41559 36.1588 4.77283 36.1588C4.32449 36.1588 3.88805 36.2908 3.54683 36.7868V36.2668H2.63428V40.4868H3.5508V38.1468C3.5508 37.4148 3.9555 37.0268 4.57445 37.0268C5.1934 37.0268 5.48304 37.4228 5.48304 38.1388V40.4868H6.40353V38.1468C6.40353 37.4148 6.8241 37.0268 7.42718 37.0268C8.03026 37.0268 8.34371 37.4228 8.34371 38.1388V40.4868H9.2642L9.2761 40.4828Z" fill="#F0ECE0"/>
<path d="M50.5079 26.451V25.835H50.3492L50.1667 26.259L49.9841 25.835H49.8254V26.451H49.9405V25.987L50.1111 26.387H50.2301L50.4007 25.983V26.447H50.5118L50.5079 26.451ZM49.4961 26.451V25.939H49.6985V25.835H49.1787V25.939H49.3811V26.451H49.4961Z" fill="#F79410"/>
<path d="M32.396 29.0948H18.6045V4.11084H32.396V29.0948Z" fill="#FF5F00"/>
<path d="M19.4811 16.6029C19.4811 11.5349 21.8339 7.01885 25.5 4.11085C22.7227 1.90685 19.2907 0.710854 15.7595 0.714854C7.05446 0.714854 0 7.82685 0 16.6029C0 25.3789 7.05446 32.4909 15.7595 32.4909C19.2946 32.4949 22.7227 31.2989 25.5 29.0949C21.8339 26.1869 19.4811 21.6709 19.4811 16.6029Z" fill="#EB001B"/>
<path d="M51 16.6029C51 25.3789 43.9455 32.4909 35.2406 32.4909C31.7054 32.4949 28.2734 31.2989 25.5 29.0949C29.1661 26.1869 31.5189 21.6709 31.5189 16.6029C31.5189 11.5349 29.1661 7.01885 25.5 4.11085C28.2734 1.90685 31.7054 0.710854 35.2406 0.714854C43.9416 0.714854 51 7.82685 51 16.6029Z" fill="#F79E1B"/>
</g>
<defs>
<clipPath id="clip0_620_1157">
<rect width="51" height="40" fill="white" transform="translate(0 0.714844)"/>
</clipPath>
</defs>
</svg>
