<svg width="94" height="39" viewBox="0 0 94 39" fill="none" xmlns="http://www.w3.org/2000/svg">
<g clip-path="url(#clip0_620_1138)">
<path fill-rule="evenodd" clip-rule="evenodd" d="M93.9947 20.3438C93.9947 13.8516 90.7571 8.72876 84.5691 8.72876C78.355 8.72876 74.5952 13.8516 74.5952 20.2931C74.5952 27.9266 79.0339 31.7813 85.4046 31.7813C88.5117 31.7813 90.8615 31.0966 92.637 30.1329V25.0608C90.8615 25.9231 88.825 26.4557 86.2401 26.4557C83.7075 26.4557 81.4621 25.5934 81.1748 22.6009H93.9425C93.9425 22.2712 93.9947 20.9525 93.9947 20.3438ZM81.0965 17.9346C81.0965 15.0689 82.8981 13.8769 84.543 13.8769C86.1357 13.8769 87.8328 15.0689 87.8328 17.9346H81.0965Z" fill="#635BFF"/>
<path fill-rule="evenodd" clip-rule="evenodd" d="M64.517 8.72876C61.9582 8.72876 60.3133 9.89534 59.3995 10.7069L59.06 9.13453H53.3159V38.7047L59.8433 37.3606L59.8694 30.1836C60.8094 30.843 62.1932 31.7813 64.4908 31.7813C69.1645 31.7813 73.4204 28.1295 73.4204 20.0902C73.3942 12.7357 69.0862 8.72876 64.517 8.72876ZM62.9504 26.2021C61.4099 26.2021 60.4961 25.6695 59.8694 25.0101L59.8433 15.6014C60.5222 14.866 61.4621 14.3588 62.9504 14.3588C65.3264 14.3588 66.9713 16.9455 66.9713 20.2677C66.9713 23.666 65.3525 26.2021 62.9504 26.2021Z" fill="#635BFF"/>
<path fill-rule="evenodd" clip-rule="evenodd" d="M44.334 7.23246L50.8875 5.863V0.714844L44.334 2.05894V7.23246Z" fill="#635BFF"/>
<path d="M50.8875 9.15991H44.334V31.3503H50.8875V9.15991Z" fill="#635BFF"/>
<path fill-rule="evenodd" clip-rule="evenodd" d="M37.3109 11.0365L36.8931 9.15984H31.2534V31.3502H37.7808V16.3115C39.3213 14.3587 41.9323 14.7138 42.7417 14.9927V9.15984C41.9062 8.85552 38.8513 8.29759 37.3109 11.0365Z" fill="#635BFF"/>
<path fill-rule="evenodd" clip-rule="evenodd" d="M24.2558 3.65674L17.885 4.97548L17.8589 25.2891C17.8589 29.0425 20.7571 31.8068 24.6213 31.8068C26.7623 31.8068 28.3289 31.4264 29.1905 30.9699V25.8217C28.355 26.1514 24.2296 27.318 24.2296 23.5646V14.5617H29.1905V9.15994H24.2296L24.2558 3.65674Z" fill="#635BFF"/>
<path fill-rule="evenodd" clip-rule="evenodd" d="M6.60574 15.6014C6.60574 14.6124 7.44125 14.232 8.82507 14.232C10.8094 14.232 13.3159 14.8153 15.3003 15.855V9.89534C13.1332 9.05844 10.9922 8.72876 8.82507 8.72876C3.52481 8.72876 0 11.417 0 15.9057C0 22.9052 9.92167 21.7894 9.92167 24.8072C9.92167 25.9738 8.87729 26.3542 7.41514 26.3542C5.24804 26.3542 2.48042 25.492 0.287206 24.3254V30.3612C2.7154 31.3756 5.16971 31.8067 7.41514 31.8067C12.846 31.8067 16.5796 29.1946 16.5796 24.6551C16.5535 17.0977 6.60574 18.4418 6.60574 15.6014Z" fill="#635BFF"/>
</g>
<defs>
<clipPath id="clip0_620_1138">
<rect width="94" height="38" fill="white" transform="translate(0 0.714844)"/>
</clipPath>
</defs>
</svg>
