<svg width="195" height="40" viewBox="0 0 195 40" fill="none" xmlns="http://www.w3.org/2000/svg">
<path d="M33.9368 0.823018C35.334 0.58868 37.5002 0.598205 37.9019 2.29002C37.86 5.32308 38.2407 8.74672 37.9932 11.7417C37.9038 12.8276 37.5744 13.8031 36.3714 13.9288C33.322 14.247 29.2275 13.4544 26.3227 13.9689C25.5804 14.1003 24.7809 14.8014 24.6705 15.554V29.8239C25.0836 31.9272 27.5676 30.6431 28.291 32.4873C28.5689 33.1961 28.5708 36.0348 28.4737 36.8883C28.3766 37.7419 27.7999 38.6754 26.8557 38.6983C21.8438 38.3877 16.3807 39.0926 11.4239 38.7021C10.5578 38.6335 9.76974 38.1743 9.63268 37.256C9.52418 36.5301 9.51847 33.0036 9.70883 32.3959C10.0895 31.1766 11.6675 31.4623 12.4708 30.9689C12.9886 30.6507 13.3426 30.0392 13.4169 29.439L13.3902 15.5883C12.9467 13.4259 9.27482 13.5288 7.84718 14.5309C6.04455 15.7959 6.87258 19.3263 4.0154 19.6501C2.56301 19.814 0.299727 19.9169 0.101761 18.0307C-0.223741 14.9272 0.358736 11.2787 0.101761 8.11419C0.134121 7.14064 1.02687 6.62243 1.9101 6.49478L29.2884 6.46239C32.1589 5.56695 30.8284 1.35076 33.9387 0.828734L33.9368 0.823018Z" fill="#1BC04A"/>
<path d="M70.7684 22.834C70.8484 22.9312 71.2595 23.0665 71.3985 23.0627C71.9638 23.0474 72.1199 22.2149 72.4378 21.8281C75.0075 18.7112 79.9529 18.033 83.4173 19.9858C84.8659 20.8031 85.0067 21.4966 85.9566 22.5864C86.9064 23.6761 87.1425 22.4244 87.6659 21.8262C89.9178 19.2523 92.9292 18.4654 96.2813 19.1132C101.048 20.0353 102.456 24.3544 102.706 28.6868C102.776 29.9023 102.519 31.5789 102.706 32.6858C102.833 33.4345 103.817 33.6079 104.219 34.029C105.001 34.852 104.899 38.7805 102.995 38.6948C99.8313 38.4376 96.1899 39.0206 93.0872 38.6948C92.3143 38.6129 91.5986 38.028 91.4844 37.2506C91.4064 36.721 91.3911 35.1054 91.4787 34.5948C91.6367 33.667 93.1081 33.707 93.3403 32.6477C93.5059 31.8875 93.4584 29.3555 93.3613 28.5134C93.1633 26.7778 92.1868 25.2308 90.2433 25.3432C88.6367 25.4365 87.6755 26.6101 87.4984 28.1343C87.4109 28.8849 87.3462 32.2628 87.5156 32.842C87.7516 33.6498 89.1716 33.5279 89.3658 34.9911C89.5047 36.0294 89.5086 38.0623 88.3817 38.5462L77.3793 38.6052C76.9529 38.4719 76.3838 37.8546 76.2867 37.4126C76.1782 36.9229 76.1649 35.0978 76.2505 34.5967C76.4085 33.6689 77.8799 33.7089 78.1122 32.6496C78.2797 31.8894 78.2302 29.3574 78.1331 28.5153C77.8952 26.4368 76.6046 24.9088 74.3794 25.4861C73.064 25.8271 72.4226 26.8159 72.2684 28.1343C72.1808 28.8849 72.1161 32.2628 72.2855 32.842C72.5215 33.6498 73.9416 33.5279 74.1357 34.9911C74.3185 36.3552 74.2842 38.5157 72.5387 38.6948L62.1493 38.6052C60.7806 38.1747 60.8777 35.9494 61.0072 34.7739C61.1366 33.5984 62.6366 33.7698 62.8821 32.6496C62.7984 30.6644 63.1296 28.34 62.9259 26.3968C62.7679 24.8859 61.3726 25.0517 61.1023 24.221C60.9196 23.6628 60.9348 21.3594 61.1613 20.8298C61.365 20.3554 62.1455 19.9134 62.6442 19.8372C63.6987 19.679 67.6447 19.6886 68.6821 19.8715C69.2323 19.9686 69.7443 20.323 70.0508 20.7879C70.4143 21.3404 70.5685 22.5845 70.7684 22.8302V22.834Z" fill="#1BC04A"/>
<path d="M106.267 6.53496C107.333 6.31587 112.089 6.35207 113.252 6.50829C114.416 6.66452 114.996 7.51042 115.084 8.6764C115.375 12.483 114.648 16.9907 115.067 20.6963C115.287 22.6491 116.85 20.4962 117.488 20.0523C120.158 18.1871 125.479 18.7625 128.005 20.7039C131.816 23.6303 132.232 31.6283 129.261 35.2653C126 39.2567 121.019 39.973 116.123 39.6453C111.227 39.3176 107.163 37.0562 106.702 31.7369L106.693 12.885C106.461 11.4751 104.942 11.8371 104.793 10.4044C104.645 8.97171 104.498 6.89886 106.267 6.53496ZM120.916 32.5332C122.34 31.0948 122.336 26.8691 120.474 25.7622C119.083 24.9372 117.039 25.4173 116.372 26.9358C115.721 28.418 115.767 31.6206 117.183 32.678C118.156 33.4039 120.05 33.4115 120.918 32.5332H120.916Z" fill="#1BC04A"/>
<path d="M42.2319 32.5333C43.2217 33.5336 45.447 33.4078 46.3607 32.3104C46.6252 31.9942 46.9507 31.2911 47.0345 30.8892C47.2058 30.0737 47.2534 26.6482 47.0802 25.869C46.8613 24.8954 45.4032 24.9469 45.2262 23.7237C44.9749 21.9976 45.1557 20.0429 47.2134 19.8257C48.8961 19.6485 52.9773 19.6333 54.6448 19.8219C55.5718 19.9267 56.3503 20.4582 56.4531 21.4413C56.8129 24.9049 56.1657 28.9573 56.4569 32.4876C56.6378 33.7165 58.0863 33.6574 58.3148 34.4385C58.4347 34.8481 58.4137 36.7667 58.3414 37.2506C58.2234 38.0412 57.4962 38.6147 56.7386 38.6947C54.738 38.9062 52.3434 38.5614 50.3009 38.6509C48.9532 38.3537 49.136 36.4371 48.5535 35.8293C47.7559 34.9948 47.1354 36.6028 46.7375 37.0677C44.4038 39.7978 40.0238 40.3218 36.7917 39.0262C33.017 37.5116 32.0976 33.3049 31.8844 29.6489C31.8178 28.5248 32.0823 26.8882 31.8539 25.869C31.6255 24.8497 30.1769 24.9469 29.9999 23.7237C29.7486 21.9976 29.9295 20.0429 31.9872 19.8257C33.6699 19.6485 37.751 19.6333 39.4185 19.8219C40.3455 19.9267 41.1241 20.4582 41.2269 21.4413C41.501 24.0743 40.9908 27.1588 41.2211 29.8299C41.2916 30.6415 41.6551 31.9465 42.2338 32.5314L42.2319 32.5333Z" fill="#1BC04A"/>
<path d="M160.909 18.9318L162.381 18.8784C165.946 19.1566 171.123 19.9491 171.238 24.5064C171.365 29.5189 163.146 30.1324 159.807 31.7366C159.508 31.8795 159.23 32.03 159.057 32.3291C158.825 33.4265 163.176 33.2245 163.901 33.1674C164.893 33.0893 166.201 32.7577 167.141 32.4091C168.335 31.9671 170.99 29.9133 171.234 32.3043C171.325 33.194 171.375 36.9282 170.846 37.4502C170.206 38.0809 167.082 38.9725 166.098 39.1763C159.194 40.5976 148.536 39.5993 147.647 30.7649C146.84 22.7631 154.007 19.2728 160.909 18.9318ZM157.144 28.7854C157.54 28.8178 157.907 28.7854 158.298 28.6997C159.194 28.5035 162.676 27.3241 163.224 26.7716C163.909 26.082 163.728 25.1122 162.858 24.6874C160.65 23.6071 156.845 26.2629 157.146 28.7854H157.144Z" fill="#1BC04A"/>
<path d="M134.443 6.53823C135.705 6.31532 141.092 6.30961 142.385 6.50393C142.937 6.58776 143.755 7.07168 143.928 7.62609L144.008 32.3136C143.982 33.7311 145.788 33.5062 145.927 34.7751C146.056 35.9525 146.155 38.1759 144.785 38.6064L134.218 38.6807C132.694 38.4559 132.654 36.3545 132.779 35.1638C132.968 33.3805 134.553 33.7806 134.694 32.5079L134.673 12.6939C134.487 11.4212 132.916 11.8423 132.772 10.0247C132.659 8.60536 132.739 6.83734 134.443 6.53632V6.53823Z" fill="#1BC04A"/>
<path d="M183.561 18.9298L185.411 18.8765C187.69 19.1051 189.732 19.3185 191.855 20.2387C192.506 20.5206 193.633 20.9779 193.893 21.6276C194.154 22.2772 194.173 24.5311 194.061 25.2512C193.72 27.4441 190.905 25.5008 189.65 25.1103C188.396 24.7197 184.61 23.849 183.772 24.8607C183.119 25.6494 183.856 26.4077 184.57 26.7659C187.871 28.4291 193.404 27.7547 194.74 32.3995C196.893 39.8736 185.065 40.0717 180.51 39.403C179.356 39.2335 174.643 38.1799 174.31 37.0349C174.177 36.5776 174.179 32.5043 174.276 31.9309C174.582 30.1266 177.622 32.2357 178.608 32.5424C179.906 32.9463 184.174 33.6227 185.198 32.9558C186.291 32.2433 185.383 31.2431 184.492 30.8449C181.541 29.5227 174.877 29.7685 174.287 25.436C173.581 20.2558 179.67 19.1737 183.557 18.9317L183.561 18.9298Z" fill="#1BC04A"/>
</svg>
