<svg width="63" height="41" viewBox="0 0 63 41" fill="none" xmlns="http://www.w3.org/2000/svg">
<g clip-path="url(#clip0_620_1147)">
<mask id="mask0_620_1147" style="mask-type:luminance" maskUnits="userSpaceOnUse" x="0" y="0" width="63" height="41">
<path d="M63 0.714844H0V40.7148H63V0.714844Z" fill="white"/>
</mask>
<g mask="url(#mask0_620_1147)">
<g clip-path="url(#clip1_620_1147)">
<path d="M3.23077 0.714844H59.7692C61.5542 0.714844 63 2.14684 63 3.91484V37.5148C63 39.2828 61.5542 40.7148 59.7692 40.7148H3.23077C1.44577 40.7148 0 39.2828 0 37.5148V3.91484C0 2.14684 1.44577 0.714844 3.23077 0.714844Z" fill="#0A4693"/>
<path d="M23.6814 28.6109L26.3791 12.9549H30.6922L27.9864 28.6109H23.6814ZM43.5587 13.2909C42.7026 12.9709 41.3699 12.6349 39.6979 12.6349C35.4414 12.6349 32.4368 14.7629 32.4126 17.8029C32.3883 20.0509 34.5529 21.3069 36.1926 22.0589C37.8645 22.8269 38.4299 23.3149 38.4218 23.9949C38.4137 25.0429 37.081 25.5229 35.8453 25.5229C34.1168 25.5229 33.2041 25.2829 31.7906 24.6989L31.2333 24.4509L30.6276 27.9549C31.6372 28.3949 33.4949 28.7709 35.4253 28.7869C39.9564 28.7869 42.8964 26.6909 42.9287 23.4349C42.9449 21.6509 41.7979 20.2989 39.3103 19.1789C37.8079 18.4509 36.8791 17.9709 36.8872 17.2349C36.8872 16.5869 37.6706 15.8909 39.3587 15.8909C40.7641 15.8669 41.7899 16.1709 42.5814 16.4909L42.9691 16.6749L43.5587 13.2909ZM54.6483 12.9549H51.3206C50.2868 12.9549 49.5195 13.2349 49.0672 14.2509L42.6622 28.6029H47.1853C47.1853 28.6029 47.9283 26.6749 48.0899 26.2509C48.5826 26.2509 52.9845 26.2589 53.6064 26.2589C53.7356 26.8109 54.1314 28.6029 54.1314 28.6029H58.1295L54.6483 12.9549ZM49.366 23.0669C49.7214 22.1629 51.0864 18.6909 51.0864 18.6909C51.0622 18.7309 51.4418 17.7869 51.6599 17.1949L51.9506 18.5469C51.9506 18.5469 52.7745 22.2829 52.9522 23.0669H49.366ZM20.0226 12.9549L15.8064 23.6349L15.3541 21.4669C14.5706 18.9629 12.1233 16.2509 9.38525 14.8989L13.246 28.5869L17.8095 28.5789L24.5941 12.9469L20.0226 12.9549Z" fill="white"/>
<path d="M11.865 12.9549H4.91884L4.8623 13.2829C10.2658 14.5789 13.8438 17.7149 15.33 21.4749L13.8196 14.2749C13.5612 13.2829 12.8019 12.9869 11.865 12.9549Z" fill="#F2AE13"/>
</g>
</g>
</g>
<defs>
<clipPath id="clip0_620_1147">
<rect width="63" height="40" fill="white" transform="translate(0 0.714844)"/>
</clipPath>
<clipPath id="clip1_620_1147">
<rect width="63" height="40" fill="white" transform="matrix(1 0 0 -1 0 40.7148)"/>
</clipPath>
</defs>
</svg>
