<svg width="38" height="39" viewBox="0 0 38 39" fill="none" xmlns="http://www.w3.org/2000/svg">
<path d="M4.52381 0.714844C2.02667 0.714844 0 2.74151 0 5.23865V34.191C0 36.6882 2.02667 38.7148 4.52381 38.7148H33.4762C35.9733 38.7148 38 36.6882 38 34.191V5.23865C38 2.74151 35.9733 0.714844 33.4762 0.714844H4.52381ZM9.95238 4.33389H12.1242L13.5714 7.95294L15.0187 4.33389H17.1905L14.4762 10.6672V14.2863H12.6667V10.6584C12.1238 9.20172 10.3233 5.2477 9.95238 4.33389ZM19 7.04818C19.8052 7.04818 20.6015 7.29176 21.1082 7.90699C21.4972 8.35033 21.7143 9.06537 21.7143 10.0063V11.3281C21.7143 12.2691 21.5341 12.9205 21.1541 13.3638C20.6474 13.97 19.8052 14.2863 19 14.2863C18.1948 14.2863 17.372 13.97 16.8653 13.3638C16.4763 12.9205 16.2857 12.2691 16.2857 11.3281V10.0152C16.2857 9.07421 16.4937 8.35033 16.8918 7.90699C17.3985 7.29176 18.0862 7.04818 19 7.04818ZM22.619 7.04818H24.4286V12.4767C24.4738 12.721 24.7356 12.8302 24.9799 12.8302C25.3509 12.8302 25.8219 12.3961 26.2381 11.9166V7.04818H28.0476V14.2863H26.2381V13.0369C25.5052 13.7517 24.8808 14.2869 24.0575 14.2598C23.4603 14.2417 23.0445 14.0243 22.8364 13.59C22.7097 13.3367 22.619 12.929 22.619 12.3318V7.04818ZM19 8.51311C18.8756 8.51311 18.7565 8.5404 18.6483 8.58733C18.5402 8.63427 18.4423 8.70156 18.3603 8.78525C18.2783 8.86894 18.2119 8.96832 18.1659 9.07859C18.12 9.18886 18.0952 9.31065 18.0952 9.43731V11.9784C18.0952 12.2318 18.1963 12.4631 18.3603 12.6305C18.4423 12.7142 18.5402 12.7815 18.6483 12.8284C18.7565 12.8753 18.8756 12.9026 19 12.9026C19.1244 12.9026 19.2435 12.8753 19.3517 12.8284C19.6761 12.6876 19.9048 12.3584 19.9048 11.9784V9.43731C19.9048 8.93065 19.4976 8.51311 19 8.51311ZM18.9912 17.0006H19.0088C19.0088 17.0006 25.0793 17.0008 29.1326 17.2904C29.7026 17.3537 30.934 17.3628 32.0378 18.4938C32.9063 19.3442 33.1864 21.2982 33.1864 21.2982C33.1864 21.2982 33.4762 22.683 33.4762 24.972V27.1155C33.4762 29.4046 33.1864 30.7893 33.1864 30.7893C33.1864 30.7893 32.9063 32.7433 32.0378 33.5938C30.934 34.7247 29.7026 34.7338 29.1326 34.7972C25.0793 35.0867 19 35.0958 19 35.0958C19 35.0958 11.4716 35.0231 9.15541 34.806C8.51303 34.6884 7.06605 34.7245 5.96224 33.6026C5.09367 32.7431 4.81362 30.7893 4.81362 30.7893C4.81362 30.7893 4.52381 29.4046 4.52381 27.1155V24.972C4.52381 22.683 4.81362 21.2982 4.81362 21.2982C4.81362 21.2982 5.09367 19.3442 5.96224 18.4938C7.06605 17.3628 8.29737 17.3537 8.86737 17.2904C12.9207 17.0008 18.9912 17.0006 18.9912 17.0006ZM7.2381 20.6196V22.4097H9.04762V31.4767H10.8571V22.4097H12.6667V20.6196H7.2381ZM19 20.6196V31.4767H20.8095V30.3458C21.3804 31.0524 22.1241 31.4767 22.7321 31.4767C23.4125 31.4767 24.0062 31.1106 24.2342 30.4094C24.3419 30.0303 24.4213 29.6763 24.4286 28.8756V26.3875C24.4286 25.4936 24.3075 24.8201 24.1935 24.4401C23.9655 23.7335 23.4134 23.3384 22.7321 23.3339C21.8455 23.3276 21.4881 23.7863 20.8095 24.5779V20.6196H19ZM12.6667 23.3339V29.3827C12.6667 30.036 12.7576 30.4743 12.8752 30.7611C13.0742 31.2261 13.4801 31.4767 14.0592 31.4767C14.7196 31.4767 15.571 31.0115 16.2857 30.2415V31.4767H18.0952V23.3339H16.2857V29.0063C15.8876 29.5347 15.3081 29.9288 14.9462 29.9288C14.711 29.9288 14.5214 29.8297 14.4762 29.57V23.3339H12.6667ZM28.0741 23.3339C27.1621 23.3339 26.4499 23.6207 25.9342 24.1627C25.5542 24.5626 25.3333 25.2163 25.3333 26.0641V28.8384C25.3333 29.6808 25.5763 30.2703 25.9554 30.6656C26.472 31.2076 27.1828 31.4767 28.1165 31.4767C29.0493 31.4767 29.7837 31.1934 30.2777 30.6179C30.4949 30.3637 30.6341 30.0776 30.6948 29.7591C30.711 29.6153 30.7619 29.2248 30.7619 28.7625H28.9524V29.4852C28.9524 29.905 28.547 30.2451 28.0476 30.2451C27.5482 30.2451 27.1429 29.9041 27.1429 29.4852V27.8577H30.7619V27.3364V26.0287C30.7619 25.1828 30.5542 24.5635 30.1805 24.1627C29.6802 23.6207 28.9698 23.3339 28.0741 23.3339ZM28.0476 24.6433C28.547 24.6433 28.9524 24.9843 28.9524 25.4032V26.6048H27.1429V25.4032C27.1429 24.9834 27.5482 24.6433 28.0476 24.6433ZM21.914 24.9137C22.4071 24.9137 22.619 25.2167 22.619 26.1613V28.6494C22.619 29.5939 22.4071 29.9199 21.914 29.9199C21.6326 29.9199 21.0954 29.7269 20.8095 29.441V25.4827C21.0954 25.2004 21.6326 24.9137 21.914 24.9137Z" fill="#FFFBDF"/>
</svg>
