<svg width="164" height="53" viewBox="0 0 164 53" fill="none" xmlns="http://www.w3.org/2000/svg">
<rect width="164" height="53" rx="8" fill="#FF5F00"/>
<g clip-path="url(#clip0_620_1406)">
<path d="M32.7588 11.5835C33.8192 11.4032 35.4633 11.4105 35.7681 12.7119C35.7363 15.0449 36.0252 17.6784 35.8374 19.9822C35.7695 20.8175 35.5196 21.5678 34.6066 21.6645C32.2922 21.9093 29.1847 21.2996 26.9801 21.6953C26.4167 21.7964 25.8099 22.3357 25.7261 22.9146V33.8911C26.0396 35.509 27.9249 34.5213 28.4739 35.9399C28.6848 36.485 28.6863 38.6686 28.6126 39.3251C28.5389 39.9817 28.1012 40.6998 27.3846 40.7173C23.5808 40.4785 19.4346 41.0207 15.6726 40.7203C15.0153 40.6675 14.4172 40.3143 14.3132 39.608C14.2308 39.0496 14.2265 36.337 14.371 35.8695C14.6599 34.9316 15.8575 35.1514 16.4672 34.7719C16.8601 34.5271 17.1289 34.0567 17.1852 33.5951L17.165 22.941C16.8284 21.2777 14.0416 21.3568 12.9581 22.1276C11.59 23.1007 12.2184 25.8163 10.0499 26.0654C8.94764 26.1914 7.22992 26.2706 7.07967 24.8197C6.83263 22.4325 7.2747 19.626 7.07967 17.1919C7.10423 16.443 7.78179 16.0444 8.45212 15.9462L29.2309 15.9213C31.4095 15.2325 30.3997 11.9894 32.7603 11.5878L32.7588 11.5835Z" fill="#F0ECE0"/>
<path d="M60.7117 28.5143C60.7723 28.589 61.0844 28.6931 61.1898 28.6902C61.6189 28.6784 61.7374 28.038 61.9786 27.7405C63.929 25.343 67.6822 24.8213 70.3115 26.3234C71.4109 26.9521 71.5178 27.4855 72.2387 28.3238C72.9596 29.162 73.1388 28.1992 73.5361 27.7391C75.2451 25.7592 77.5306 25.1539 80.0747 25.6522C83.6921 26.3615 84.7612 29.6838 84.9505 33.0163C85.0039 33.9513 84.8089 35.2409 84.9505 36.0923C85.0473 36.6683 85.7942 36.8016 86.099 37.1255C86.6927 37.7586 86.6147 40.7804 85.1701 40.7145C82.769 40.5166 80.0053 40.9651 77.6505 40.7145C77.064 40.6515 76.5208 40.2016 76.4341 39.6036C76.3749 39.1962 76.3633 37.9535 76.4298 37.5608C76.5497 36.8471 77.6664 36.8778 77.8426 36.063C77.9683 35.4783 77.9322 33.5307 77.8585 32.8829C77.7083 31.5479 76.9672 30.3579 75.4922 30.4443C74.2728 30.5162 73.5433 31.4189 73.4089 32.5913C73.3425 33.1687 73.2934 35.767 73.4219 36.2125C73.6011 36.8339 74.6788 36.7401 74.8262 37.8656C74.9316 38.6643 74.9345 40.2279 74.0793 40.6002L65.729 40.6456C65.4054 40.543 64.9735 40.0682 64.8998 39.7282C64.8174 39.3516 64.8073 37.9476 64.8723 37.5622C64.9922 36.8485 66.109 36.8793 66.2852 36.0645C66.4124 35.4798 66.3748 33.5321 66.3011 32.8844C66.1205 31.2855 65.141 30.1102 63.4522 30.5543C62.4539 30.8166 61.9671 31.5772 61.8501 32.5913C61.7836 33.1687 61.7345 35.767 61.8631 36.2125C62.0422 36.8339 63.1199 36.7401 63.2673 37.8656C63.406 38.9149 63.38 40.5767 62.0552 40.7145L54.1702 40.6456C53.1314 40.3144 53.2051 38.6027 53.3034 37.6985C53.4016 36.7943 54.54 36.9262 54.7264 36.0645C54.6628 34.5374 54.9142 32.7496 54.7596 31.2548C54.6397 30.0926 53.5807 30.2201 53.3756 29.5812C53.2369 29.1518 53.2485 27.38 53.4204 26.9726C53.575 26.6077 54.1673 26.2677 54.5458 26.2091C55.3461 26.0874 58.3409 26.0948 59.1283 26.2355C59.5458 26.3102 59.9344 26.5828 60.167 26.9404C60.4429 27.3654 60.56 28.3223 60.7117 28.5114V28.5143Z" fill="#F0ECE0"/>
<path d="M87.6533 15.9769C88.4623 15.8084 92.0726 15.8363 92.9553 15.9564C93.838 16.0766 94.2786 16.7273 94.345 17.6241C94.5661 20.5522 94.0142 24.0195 94.332 26.8699C94.4996 28.372 95.6857 26.716 96.1697 26.3746C98.1965 24.9399 102.234 25.3824 104.152 26.8758C107.044 29.1268 107.36 35.2789 105.105 38.0765C102.63 41.1467 98.8495 41.6977 95.1338 41.4456C91.4181 41.1936 88.3337 39.4541 87.9841 35.3624L87.9769 20.8614C87.8006 19.7769 86.6478 20.0554 86.5351 18.9533C86.4224 17.8513 86.3112 16.2568 87.6533 15.9769ZM98.7715 35.975C99.8521 34.8685 99.8493 31.6181 98.4364 30.7666C97.3803 30.1321 95.8287 30.5014 95.3231 31.6694C94.829 32.8095 94.8637 35.273 95.9385 36.0864C96.6767 36.6447 98.1142 36.6506 98.773 35.975H98.7715Z" fill="#F0ECE0"/>
<path d="M39.0547 35.9751C39.8059 36.7445 41.4948 36.6478 42.1882 35.8037C42.389 35.5604 42.6361 35.0196 42.6996 34.7104C42.8297 34.0832 42.8658 31.4482 42.7343 30.8488C42.5682 30.1 41.4615 30.1395 41.3272 29.1987C41.1365 27.871 41.2737 26.3674 42.8354 26.2003C44.1125 26.064 47.2099 26.0523 48.4755 26.1974C49.179 26.278 49.7699 26.6869 49.8479 27.443C50.1209 30.1073 49.6298 33.2244 49.8508 35.9399C49.988 36.8852 51.0874 36.8398 51.2608 37.4406C51.3518 37.7557 51.3359 39.2314 51.281 39.6037C51.1915 40.2118 50.6396 40.653 50.0646 40.7145C48.5462 40.8772 46.7288 40.6119 45.1787 40.6808C44.1559 40.4522 44.2946 38.9779 43.8525 38.5104C43.2472 37.8685 42.7762 39.1054 42.4743 39.463C40.7031 41.563 37.3789 41.966 34.9258 40.9695C32.061 39.8044 31.3633 36.5686 31.2014 33.7564C31.1509 32.8917 31.3517 31.6329 31.1783 30.8488C31.005 30.0648 29.9056 30.1395 29.7712 29.1987C29.5805 27.871 29.7178 26.3674 31.2795 26.2003C32.5566 26.064 35.6539 26.0523 36.9195 26.1974C37.623 26.278 38.2139 26.6869 38.2919 27.443C38.5 29.4684 38.1128 31.841 38.2876 33.8956C38.341 34.5199 38.617 35.5237 39.0562 35.9737L39.0547 35.9751Z" fill="#F0ECE0"/>
<path d="M129.125 25.513L130.241 25.4719C132.947 25.6859 136.877 26.2955 136.963 29.801C137.06 33.6567 130.822 34.1286 128.288 35.3625C128.061 35.4724 127.85 35.5882 127.719 35.8183C127.543 36.6624 130.845 36.507 131.396 36.4631C132.148 36.403 133.141 36.148 133.855 35.8798C134.76 35.5398 136.776 33.96 136.961 35.7992C137.03 36.4836 137.067 39.356 136.666 39.7575C136.18 40.2426 133.81 40.9284 133.063 41.0852C127.823 42.1785 119.734 41.4106 119.06 34.6151C118.447 28.4601 123.886 25.7753 129.125 25.513ZM126.267 33.0925C126.568 33.1174 126.846 33.0925 127.143 33.0265C127.823 32.8756 130.465 31.9684 130.881 31.5434C131.401 31.0129 131.264 30.267 130.604 29.9402C128.928 29.1093 126.04 31.1522 126.268 33.0925H126.267Z" fill="#F0ECE0"/>
<path d="M109.038 15.98C109.995 15.8085 114.084 15.8042 115.065 15.9536C115.484 16.0181 116.105 16.3903 116.236 16.8168L116.297 35.8066C116.277 36.8969 117.648 36.724 117.753 37.7C117.852 38.6057 117.927 40.3159 116.886 40.6471L108.867 40.7043C107.71 40.5313 107.68 38.9149 107.775 37.999C107.918 36.6273 109.121 36.935 109.228 35.9561L109.212 20.715C109.071 19.7361 107.879 20.0599 107.769 18.6619C107.684 17.5701 107.745 16.2101 109.038 15.9785V15.98Z" fill="#F0ECE0"/>
<path d="M146.316 25.5115L147.721 25.4705C149.45 25.6463 151 25.8105 152.611 26.5183C153.105 26.7352 153.96 27.0869 154.158 27.5866C154.356 28.0864 154.37 29.82 154.285 30.374C154.027 32.0608 151.89 30.566 150.938 30.2655C149.986 29.9651 147.112 29.2954 146.477 30.0736C145.981 30.6803 146.54 31.2635 147.082 31.539C149.587 32.8184 153.787 32.2996 154.801 35.8725C156.435 41.6216 147.458 41.774 144.001 41.2596C143.125 41.1292 139.548 40.3188 139.295 39.438C139.194 39.0863 139.196 35.9531 139.269 35.512C139.502 34.1242 141.809 35.7465 142.557 35.9824C143.543 36.2931 146.782 36.8133 147.559 36.3004C148.388 35.7523 147.699 34.9829 147.023 34.6767C144.784 33.6596 139.726 33.8487 139.278 30.5161C138.742 26.5315 143.363 25.6991 146.313 25.513L146.316 25.5115Z" fill="#F0ECE0"/>
</g>
<defs>
<clipPath id="clip0_620_1406">
<rect width="148" height="30" fill="white" transform="translate(7 11.5)"/>
</clipPath>
</defs>
</svg>
