<svg width="164" height="53" viewBox="0 0 164 53" fill="none" xmlns="http://www.w3.org/2000/svg">
<rect width="164" height="53" fill="#FF5F00"/>
<g clip-path="url(#clip0_2_12)">
<path d="M32.7588 11.5835C33.8192 11.4033 35.4632 11.4106 35.768 12.712C35.7363 15.045 36.0252 17.6785 35.8374 19.9823C35.7695 20.8176 35.5196 21.5679 34.6065 21.6646C32.2921 21.9094 29.1846 21.2997 26.9801 21.6954C26.4166 21.7965 25.8099 22.3358 25.7261 22.9147V33.8912C26.0396 35.5091 27.9249 34.5214 28.4739 35.9399C28.6848 36.4851 28.6862 38.6687 28.6125 39.3252C28.5389 39.9818 28.1011 40.6999 27.3846 40.7174C23.5807 40.4786 19.4345 41.0208 15.6726 40.7204C15.0152 40.6676 14.4171 40.3144 14.3131 39.6081C14.2308 39.0497 14.2264 36.3371 14.3709 35.8696C14.6599 34.9317 15.8575 35.1515 16.4671 34.772C16.8601 34.5272 17.1288 34.0568 17.1851 33.5952L17.1649 22.9411C16.8283 21.2777 14.0415 21.3569 12.958 22.1277C11.5899 23.1008 12.2183 25.8164 10.0499 26.0655C8.9476 26.1915 7.22987 26.2707 7.07963 24.8198C6.83259 22.4325 7.27466 19.6261 7.07963 17.192C7.10419 16.4431 7.78174 16.0445 8.45207 15.9463L29.2309 15.9214C31.4094 15.2326 30.3996 11.9895 32.7602 11.5879L32.7588 11.5835Z" fill="#F0ECE0"/>
<path d="M60.7117 28.5143C60.7723 28.589 61.0844 28.6931 61.1898 28.6902C61.6189 28.6784 61.7374 28.038 61.9786 27.7405C63.929 25.343 67.6822 24.8213 70.3115 26.3234C71.4109 26.9521 71.5178 27.4855 72.2387 28.3238C72.9596 29.162 73.1388 28.1992 73.5361 27.7391C75.2451 25.7592 77.5306 25.1539 80.0747 25.6522C83.6921 26.3615 84.7612 29.6838 84.9505 33.0163C85.0039 33.9513 84.8089 35.2409 84.9505 36.0923C85.0473 36.6683 85.7942 36.8016 86.099 37.1255C86.6927 37.7586 86.6147 40.7804 85.1701 40.7145C82.769 40.5166 80.0053 40.9651 77.6505 40.7145C77.064 40.6515 76.5208 40.2016 76.4341 39.6036C76.3749 39.1962 76.3633 37.9535 76.4298 37.5608C76.5497 36.8471 77.6664 36.8778 77.8426 36.063C77.9683 35.4783 77.9322 33.5307 77.8585 32.8829C77.7083 31.5479 76.9672 30.3579 75.4922 30.4443C74.2728 30.5162 73.5433 31.4189 73.4089 32.5913C73.3425 33.1687 73.2934 35.767 73.4219 36.2125C73.6011 36.8339 74.6788 36.7401 74.8262 37.8656C74.9316 38.6643 74.9345 40.2279 74.0793 40.6002L65.729 40.6456C65.4054 40.543 64.9735 40.0682 64.8998 39.7282C64.8174 39.3516 64.8073 37.9476 64.8723 37.5622C64.9922 36.8485 66.109 36.8793 66.2852 36.0645C66.4124 35.4798 66.3748 33.5321 66.3011 32.8844C66.1205 31.2855 65.141 30.1102 63.4522 30.5543C62.4539 30.8166 61.9671 31.5772 61.8501 32.5913C61.7836 33.1687 61.7345 35.767 61.8631 36.2125C62.0422 36.8339 63.1199 36.7401 63.2673 37.8656C63.406 38.9149 63.38 40.5767 62.0552 40.7145L54.1702 40.6456C53.1314 40.3144 53.2051 38.6027 53.3034 37.6985C53.4016 36.7943 54.54 36.9262 54.7264 36.0645C54.6628 34.5374 54.9142 32.7496 54.7596 31.2548C54.6397 30.0926 53.5807 30.2201 53.3756 29.5812C53.2369 29.1518 53.2485 27.38 53.4204 26.9726C53.575 26.6077 54.1673 26.2677 54.5458 26.2091C55.3461 26.0874 58.3409 26.0948 59.1283 26.2355C59.5458 26.3102 59.9344 26.5828 60.167 26.9404C60.4429 27.3654 60.56 28.3223 60.7117 28.5114V28.5143Z" fill="#F0ECE0"/>
<path d="M87.6535 15.9771C88.4625 15.8085 92.0727 15.8364 92.9554 15.9565C93.8381 16.0767 94.2788 16.7274 94.3452 17.6243C94.5663 20.5523 94.0144 24.0197 94.3322 26.87C94.4998 28.3722 95.6859 26.7162 96.1698 26.3747C98.1967 24.94 102.235 25.3826 104.152 26.8759C107.044 29.1269 107.36 35.279 105.105 38.0766C102.63 41.1468 98.8497 41.6978 95.134 41.4458C91.4183 41.1937 88.3339 39.4542 87.9843 35.3625L87.9771 20.8615C87.8008 19.7771 86.648 20.0555 86.5353 18.9535C86.4226 17.8514 86.3114 16.257 87.6535 15.9771ZM98.7717 35.9751C99.8523 34.8687 99.8494 31.6182 98.4365 30.7668C97.3805 30.1322 95.8289 30.5015 95.3233 31.6695C94.8292 32.8097 94.8639 35.2731 95.9387 36.0865C96.6769 36.6448 98.1144 36.6507 98.7732 35.9751H98.7717Z" fill="#F0ECE0"/>
<path d="M39.0545 35.9751C39.8057 36.7445 41.4946 36.6477 42.188 35.8036C42.3888 35.5604 42.6359 35.0196 42.6994 34.7104C42.8294 34.0831 42.8656 31.4482 42.7341 30.8488C42.568 30.0999 41.4613 30.1395 41.327 29.1987C41.1363 27.8709 41.2735 26.3673 42.8352 26.2003C44.1123 26.064 47.2097 26.0523 48.4752 26.1974C49.1788 26.278 49.7697 26.6868 49.8477 27.443C50.1207 30.1073 49.6295 33.2244 49.8506 35.9399C49.9878 36.8852 51.0872 36.8397 51.2606 37.4406C51.3516 37.7557 51.3357 39.2314 51.2808 39.6036C51.1912 40.2118 50.6394 40.6529 50.0644 40.7145C48.546 40.8771 46.7286 40.6119 45.1785 40.6808C44.1557 40.4522 44.2943 38.9779 43.8523 38.5104C43.247 37.8685 42.776 39.1054 42.4741 39.4629C40.7029 41.563 37.3787 41.966 34.9256 40.9695C32.0608 39.8044 31.363 36.5686 31.2012 33.7563C31.1507 32.8917 31.3515 31.6328 31.1781 30.8488C31.0048 30.0648 29.9054 30.1395 29.771 29.1987C29.5803 27.8709 29.7175 26.3673 31.2792 26.2003C32.5563 26.064 35.6537 26.0523 36.9193 26.1974C37.6228 26.278 38.2137 26.6868 38.2917 27.443C38.4997 29.4683 38.1126 31.8409 38.2874 33.8956C38.3408 34.5199 38.6168 35.5237 39.0559 35.9736L39.0545 35.9751Z" fill="#F0ECE0"/>
<path d="M129.124 25.513L130.241 25.472C132.947 25.6859 136.877 26.2956 136.963 29.801C137.06 33.6567 130.822 34.1286 128.288 35.3625C128.061 35.4724 127.85 35.5882 127.719 35.8183C127.542 36.6624 130.845 36.5071 131.395 36.4631C132.148 36.403 133.141 36.148 133.854 35.8798C134.76 35.5399 136.775 33.9601 136.96 35.7992C137.03 36.4836 137.067 39.356 136.666 39.7575C136.18 40.2426 133.809 40.9285 133.063 41.0853C127.823 42.1785 119.734 41.4106 119.059 34.6151C118.447 28.4601 123.886 25.7753 129.124 25.513ZM126.267 33.0925C126.567 33.1174 126.846 33.0925 127.142 33.0265C127.823 32.8756 130.465 31.9685 130.881 31.5435C131.401 31.013 131.264 30.267 130.604 29.9402C128.928 29.1093 126.04 31.1522 126.268 33.0925H126.267Z" fill="#F0ECE0"/>
<path d="M109.038 15.98C109.995 15.8085 114.084 15.8041 115.065 15.9536C115.484 16.0181 116.105 16.3903 116.236 16.8168L116.297 35.8066C116.277 36.8969 117.648 36.724 117.753 37.7C117.852 38.6056 117.927 40.3159 116.887 40.6471L108.867 40.7042C107.71 40.5313 107.68 38.9149 107.775 37.9989C107.918 36.6272 109.121 36.935 109.228 35.956L109.212 20.715C109.071 19.736 107.879 20.0599 107.769 18.6618C107.684 17.57 107.745 16.2101 109.038 15.9785V15.98Z" fill="#F0ECE0"/>
<path d="M146.316 25.5115L147.72 25.4705C149.45 25.6463 151 25.8105 152.611 26.5183C153.105 26.7352 153.96 27.0869 154.158 27.5867C154.356 28.0864 154.37 29.8201 154.285 30.374C154.026 32.0608 151.89 30.566 150.938 30.2656C149.986 29.9651 147.112 29.2954 146.476 30.0736C145.981 30.6803 146.54 31.2636 147.082 31.5391C149.587 32.8184 153.786 32.2997 154.801 35.8725C156.435 41.6216 147.457 41.774 144 41.2597C143.125 41.1292 139.548 40.3188 139.295 39.4381C139.194 39.0863 139.195 35.9531 139.269 35.512C139.502 34.1242 141.809 35.7465 142.557 35.9824C143.542 36.2931 146.781 36.8134 147.558 36.3004C148.388 35.7524 147.699 34.983 147.022 34.6767C144.783 33.6596 139.725 33.8487 139.278 30.5162C138.742 26.5315 143.363 25.6991 146.313 25.513L146.316 25.5115Z" fill="#F0ECE0"/>
</g>
<defs>
<clipPath id="clip0_2_12">
<rect width="148" height="30" fill="white" transform="translate(7 11.5)"/>
</clipPath>
</defs>
</svg>
