<svg width="52" height="50" viewBox="0 0 52 50" fill="none" xmlns="http://www.w3.org/2000/svg">
<path d="M51.5 24.1173L51.2091 26.364L50.9546 28.6108L50.6976 30.86L50.4503 33.0995L49.8394 35.2472L48.9813 37.3198L48.3486 39.4747L47.4734 41.5208L45.7038 42.8872L43.8978 44.2488L41.9972 45.4798L40.1451 46.7786L38.6591 47.7242L37.1803 48.6722L35.4519 49.0108L33.7041 49.2043L31.9708 49.509L30.2617 50L28.1503 49.6348L26.0412 49.3156L23.9298 49.0036L21.794 48.8464L19.6753 48.5247L17.702 47.7169L15.6609 47.1123L13.6706 46.3602L11.6464 45.6999L9.65857 44.9236L8.3786 43.2451L7.09621 41.5715L5.93987 39.806L4.68899 38.1034L3.30721 36.4975L2.46844 35.0875L1.64422 33.6703L1.48907 32.0427L1.2321 30.4319L0.761812 28.8696L0.5 27.271L0.645449 25.046L1.03574 22.8379L1.34846 20.6177L1.66603 18.4048L2.25026 16.2547L2.9654 14.1361L3.44781 11.9474L4.23082 9.86988L5.80411 8.32205L7.51559 6.89997L9.18828 5.43194L10.8925 3.99294L12.7809 2.76434L14.7518 1.68569L16.9578 1.27697L19.1517 0.771501L21.3771 0.428071L23.5734 0L25.4885 0.355519L27.4254 0.701363L29.3817 0.952888L31.2968 1.41724L33.2435 1.72681L35.1149 2.32901L36.9597 3.00377L38.8045 3.69063L40.6687 4.32427L42.4626 5.08126L43.7741 6.46948L45.1026 7.87946L46.3801 9.3354L47.6504 10.801L48.8213 12.3343L49.8225 14.1071L50.5812 16.0008L50.7291 18.0444L50.6588 20.0977L51.1752 22.0881L51.5 24.1173Z" fill="#FF619B"/>
<path d="M36.4629 42.0868C36.3417 41.9876 36.2011 41.8739 36.7005 41.591C37.4956 41.1242 38.2835 40.6066 39.0592 40.1254C40.1792 39.4167 41.0567 38.4905 42.0822 37.6391C42.4749 37.3078 41.8737 37.6174 41.9464 37.4626C42.0652 37.2135 42.3828 36.9088 42.55 36.8967C42.8143 36.887 43.0203 36.7516 43.2021 36.5557C43.3791 36.3573 43.5197 36.0937 43.6724 35.8349C43.7452 35.714 43.8082 35.5883 43.8736 35.4625C43.7621 35.5592 43.6506 35.6439 43.5343 35.7455C43.3646 35.8978 43.1125 36.1929 43.0422 36.205C42.7416 36.2533 43.2337 35.8591 43.27 35.7164C43.2991 35.6028 43.3403 35.4891 43.3912 35.3754C43.4373 35.2593 43.4955 35.1433 43.5585 35.0296C43.6846 34.7974 43.8494 34.5725 44.0118 34.3331C44.3488 33.8639 44.7294 33.3753 45.03 32.882C45.1488 32.6812 45.2991 32.4466 45.3548 32.2798C45.4348 32.0331 45.4033 32.2677 45.2336 32.3523C45.0688 32.4345 44.8021 32.6183 44.6833 32.911C44.5621 33.1867 44.4215 33.431 44.2688 33.651C44.1112 33.8663 43.9367 34.0574 43.7597 34.2387C43.5876 34.4225 43.3912 34.5773 43.207 34.7418C43.0203 34.9038 42.8361 35.0659 42.6446 35.2327C42.4822 35.3779 42.3173 35.4891 42.1501 35.61C42.2494 35.4456 42.3585 35.269 42.4337 35.1118C42.5428 34.8893 42.6446 34.6668 42.6931 34.4661C42.7125 34.3911 42.63 34.3548 42.5549 34.3863C42.4846 34.4177 42.281 34.6015 42.264 34.6354C42.1888 34.8337 42.0749 35.0054 41.944 35.1578C41.8131 35.3126 41.6507 35.4383 41.4931 35.5641C41.1804 35.8156 40.8458 36.0188 40.6446 36.3066C40.5137 36.4976 40.3658 36.6355 40.2277 36.7564C40.0871 36.8725 39.9513 36.9692 39.8083 37.0466C39.5222 37.2014 39.2556 37.3247 38.9865 37.5158C37.6217 38.5146 36.1284 39.378 34.6593 40.1737C33.9781 40.551 33.2533 40.8509 32.5285 41.1411C31.7988 41.4265 31.057 41.6756 30.3152 41.9465C29.6461 42.1811 28.9237 42.3262 28.2013 42.4036C27.4789 42.4786 26.7565 42.5052 26.0729 42.5076C25.222 42.5173 24.3905 42.5269 23.5687 42.4931C22.7469 42.4616 21.9348 42.3818 21.1421 42.2174C20.536 42.0868 19.9106 41.9852 19.3215 41.8014C18.7324 41.62 18.1652 41.3806 17.7191 41.0057C17.644 40.9501 17.5228 40.8799 17.387 40.8195C17.2512 40.7614 17.1058 40.7082 16.9991 40.6671C16.6864 40.5655 16.4028 40.4301 16.1192 40.21C15.0307 39.3611 14.1653 38.326 13.6925 37.066C13.2174 35.8132 13.1471 34.3524 13.4962 32.9303C13.7677 31.7501 14.2986 30.5288 13.8428 29.9387C13.8113 29.9 13.918 29.5493 14.0101 29.3534C14.2113 28.8914 14.1895 28.7101 14.0222 28.6689C13.8162 28.6182 13.615 29.0172 13.4744 29.3679C13.3847 29.6097 13.2877 29.796 13.1786 29.9532C13.0695 30.1104 12.9556 30.241 12.8489 30.3812C12.7398 30.5191 12.6259 30.6642 12.5217 30.848C12.4174 31.0318 12.335 31.2567 12.2647 31.547C12.2089 31.7574 12.1677 31.9823 12.0999 32.2024C12.0708 32.3136 12.0296 32.4224 12.0005 32.5337C11.9689 32.6449 11.9374 32.7538 11.9011 32.8626C11.8647 32.9714 11.8283 33.0779 11.7896 33.1794C11.7532 33.2834 11.7193 33.385 11.6805 33.4842C11.6078 33.6801 11.5156 33.8615 11.4381 34.0211C11.3314 34.2315 11.3484 34.3451 11.3775 34.5725C11.4914 35.3125 11.5956 36.0599 11.7411 36.7975C11.8817 37.5351 12.0829 38.2534 12.3205 38.9161C12.3447 38.9887 12.3714 39.0588 12.4005 39.1314C12.432 39.2015 12.4659 39.2692 12.5023 39.3393C12.575 39.4772 12.6453 39.6151 12.7301 39.7457C12.9047 40.0044 13.0865 40.2608 13.2901 40.493C13.4816 40.7372 13.6998 40.9476 13.8889 41.175C13.9883 41.2814 14.0877 41.3878 14.1798 41.4966C14.2695 41.6079 14.3592 41.7167 14.4465 41.8231C14.7059 41.8884 14.9192 41.9997 15.1228 42.1158C15.2222 42.1762 15.3192 42.2415 15.4089 42.3141C15.501 42.3842 15.5931 42.4495 15.6804 42.5245C15.7677 42.5995 15.8549 42.672 15.9422 42.7446C16.0295 42.8171 16.1192 42.8824 16.2089 42.9477C16.3858 43.0783 16.5676 43.1968 16.764 43.267C17.7458 43.6467 18.633 43.9974 19.5736 44.2537C20.1506 44.4109 20.65 44.6044 21.0451 44.3916C21.3021 44.2537 21.3966 44.4085 21.5978 44.5222C22.0511 44.7931 22.8535 44.9019 23.5372 44.8777C25.5759 44.7931 27.6001 44.6794 29.571 44.232C30.0412 44.128 30.5091 44.0288 30.9552 43.9708C31.3988 43.8982 31.8254 43.874 32.206 43.8789L32.6957 43.7192C32.5479 43.4701 32.7975 43.2936 33.1684 43.1436C33.3551 43.0711 33.566 42.9961 33.7769 42.926C33.9854 42.8534 34.1939 42.7881 34.3587 42.7107C34.989 42.435 35.9611 41.7869 36.012 42.3334L36.4678 42.0964L36.4629 42.0868Z" fill="#555555"/>
<path d="M30.9187 29.6098C31.0545 29.6557 31.2169 29.7089 31.1999 29.8008C31.1732 29.9459 31.1417 30.0935 31.0545 30.212C30.9284 30.3861 31.0205 30.6376 30.8678 30.8069C30.8096 30.8746 31.0254 30.8432 31.0763 30.8892C31.1538 30.9617 31.1344 31.0318 31.0181 31.0101C30.652 30.9448 30.7611 31.0826 30.8435 31.2108C30.8654 31.2422 30.8848 31.2713 30.9066 31.3027C30.9381 31.2882 30.9769 31.2785 30.9987 31.2616C31.0351 31.235 31.0472 31.1721 31.0908 31.1794C31.2847 31.2084 31.1538 31.2664 31.212 31.31C31.5805 31.5808 31.3744 31.7332 31.3647 31.9267C31.3647 31.9654 31.3478 32.0065 31.3817 32.0476C31.4326 32.1057 31.3478 32.0428 31.4472 32.0476C31.5441 32.05 31.6823 32.0428 31.6387 31.9775C31.4714 31.7235 31.8132 31.6824 31.9684 31.5687C32.0023 31.5446 32.0605 31.5325 32.109 31.5155C32.1381 31.5567 32.1575 31.6002 32.1962 31.6413C32.2496 31.6993 32.3053 31.7598 32.3781 31.8154C32.4047 31.8372 32.4871 31.8614 32.5284 31.8614C32.5671 31.8614 32.6156 31.8348 32.6035 31.8251C32.3538 31.6026 32.8168 31.6268 32.7271 31.4768C32.6108 31.2761 32.9356 31.3172 32.9914 31.2253C33.1368 30.9907 33.292 30.7537 33.3235 30.4732C33.3574 30.212 33.515 30.004 33.5053 29.721C33.4956 29.4671 33.7865 29.322 33.9732 29.1575C34.2059 28.9519 34.2616 28.6762 34.4313 28.4489C34.5622 28.2723 34.4944 28.0015 34.8338 27.9216C34.8895 27.9096 34.8822 27.8297 34.8532 27.7717C34.8144 27.6895 34.795 27.6193 34.8265 27.5613C35.0786 27.0969 34.9913 26.5092 35.2822 26.0183C35.3113 25.9675 35.3428 25.9119 35.3598 25.8563C35.3792 25.8031 35.384 25.7329 35.3671 25.67C35.3331 25.5394 35.2095 25.4185 34.8992 25.2927C34.858 25.2758 34.841 25.1936 34.841 25.1501C34.8459 25.0461 34.7538 25.0049 34.5865 24.9856C34.3804 24.9638 34.3538 25.0267 34.3659 25.0896C34.3829 25.1767 34.2568 25.196 34.1332 25.2105C34.0095 25.2274 33.8932 25.2395 33.9004 25.3339C33.9053 25.4741 33.738 25.5781 33.4374 25.5636C33.338 25.5588 33.355 25.5805 33.3792 25.6265C33.5441 25.9143 33.3841 26.1054 33.1271 26.2118C32.9041 26.3013 33.018 26.5576 32.7199 26.5939C33.0641 26.8938 32.5526 26.8188 32.555 26.9494C32.5599 27.1163 32.4484 27.2227 32.3635 27.3461C32.3126 27.421 32.1841 27.45 32.412 27.6072C32.5623 27.7112 32.4265 27.6726 32.3296 27.6629C32.1114 27.6459 32.0169 27.7354 32.0169 27.8491C32.0241 28.1877 31.7987 28.4295 31.6872 28.7198C31.6338 28.86 31.4811 28.9519 31.1999 28.9519L31.1684 29.0245C31.7017 29.2325 31.4035 29.3244 31.3744 29.4332C31.3454 29.5372 31.4157 29.7621 30.9502 29.5372L30.9187 29.6098Z" fill="#555555"/>
<path d="M21.0039 29.2736C21.1445 29.3026 21.3118 29.3364 21.3069 29.4259C21.2972 29.571 21.2875 29.7161 21.2148 29.8443C21.1106 30.0281 21.2342 30.2627 21.1033 30.4417C21.0548 30.5118 21.2657 30.4586 21.319 30.4997C21.4063 30.5626 21.3942 30.6327 21.273 30.6231C20.9021 30.5965 21.0257 30.7198 21.1227 30.8383C21.1469 30.8673 21.1712 30.8939 21.1954 30.923C21.2245 30.906 21.2609 30.8915 21.2827 30.8722C21.3142 30.8432 21.319 30.7803 21.3651 30.7827C21.5615 30.7899 21.4378 30.8625 21.5009 30.8988C21.9033 31.131 21.7069 31.293 21.7239 31.4961C21.7263 31.5348 21.719 31.5808 21.7578 31.6147C21.816 31.6654 21.7239 31.6146 21.8233 31.6026C21.9202 31.5905 22.056 31.5663 22.0027 31.5082C21.8039 31.2785 22.1433 31.2011 22.2814 31.0729C22.3105 31.0439 22.3687 31.027 22.4148 31.0052C22.4463 31.0439 22.473 31.0826 22.5142 31.1189C22.5724 31.1721 22.6354 31.2253 22.7154 31.2712C22.7445 31.2882 22.8293 31.3051 22.8705 31.3027C22.9069 31.3027 22.9529 31.2688 22.9408 31.2591C22.6693 31.0657 23.1323 31.039 23.0233 30.9012C22.8826 30.715 23.2099 30.7198 23.256 30.6231C23.3723 30.374 23.496 30.12 23.4935 29.8395C23.4935 29.5783 23.622 29.3534 23.576 29.0776C23.5323 28.8285 23.8014 28.652 23.9663 28.4706C24.1699 28.2433 24.1893 27.97 24.325 27.7305C24.4317 27.5467 24.3299 27.2904 24.6572 27.184C24.7105 27.167 24.6935 27.0921 24.6572 27.0389C24.6087 26.9639 24.582 26.8986 24.6062 26.8381C24.8026 26.3859 24.6572 25.8199 24.919 25.4112C24.9723 25.3217 25.0232 25.2467 24.9893 25.1476C24.9553 25.0484 24.8317 24.9275 24.5432 24.7751C24.5044 24.7534 24.4947 24.6953 24.4996 24.6639C24.5141 24.5962 24.4366 24.5285 24.2863 24.4511C24.102 24.3567 24.0608 24.4172 24.056 24.4825C24.0414 24.6566 23.5614 24.4922 23.5541 24.7026C23.5541 24.8525 23.382 24.9589 23.0766 24.9589C22.9772 24.9589 22.9917 24.9831 23.0184 25.0291C23.1881 25.3241 23.0402 25.5249 22.7905 25.6555C22.5748 25.7691 22.7105 26.0158 22.4148 26.0836C22.7857 26.3496 22.2693 26.3278 22.2863 26.4608C22.3081 26.6301 22.2111 26.7462 22.1433 26.8768C22.1021 26.9566 21.976 27.0002 22.2233 27.1308C22.3857 27.2178 22.2451 27.1936 22.1481 27.1961C21.9299 27.2057 21.8451 27.3073 21.8621 27.4186C21.9106 27.7523 21.7215 28.0183 21.6487 28.3158C21.6148 28.4585 21.4766 28.5698 21.1978 28.6036L21.176 28.6786C21.7312 28.8164 21.4475 28.9422 21.433 29.0535C21.4184 29.1575 21.5154 29.3703 21.0257 29.2034L21.0039 29.2784V29.2736Z" fill="#555555"/>
</svg>
