<svg width="127" height="163" viewBox="0 0 127 163" fill="none" xmlns="http://www.w3.org/2000/svg">
<path d="M123.596 78.4803L122.655 85.7973L121.83 93.1142L120.991 100.431L120.19 107.709L118.207 114.7L115.415 121.449L113.362 128.463L110.524 135.119L104.777 139.566L98.9138 143.999L92.7472 148.011L86.7283 152.233L81.8993 155.312L77.1013 158.399L71.4946 159.496L65.818 160.125L60.188 161.113L54.6435 162.715L47.777 161.525L40.9339 160.483L34.0752 159.472L27.1466 158.959L20.2646 157.909L13.8569 155.289L7.23156 153.322L0.769478 150.864L-5.80147 148.718L-12.2558 146.199L-16.4161 140.733L-20.5842 135.29L-24.3401 129.543L-28.3915 123.999L-32.8862 118.774L-35.6079 114.186L-38.2907 109.575L-38.7884 104.28L-39.6205 99.0315L-41.1446 93.9462L-42 88.7443L-41.5334 81.5051L-40.2659 74.3203L-39.2394 67.0967L-38.213 59.8886L-36.3155 52.8982L-33.9904 46.0012L-32.4274 38.8786L-29.8846 32.1137L-24.7756 27.075L-19.2233 22.4563L-13.7877 17.6742L-8.25099 12.9932L-2.12329 8.98873L4.27658 5.48187L11.4385 4.15223L18.5616 2.51154L25.7857 1.39184L32.9166 0L39.1376 1.15079L45.4286 2.27828L51.774 3.09472L58.0028 4.60321L64.3171 5.61407L70.3904 7.57354L76.3859 9.7663L82.3736 12.0057L88.4236 14.0663L94.248 16.5312L98.5172 21.0489L102.825 25.6365L106.97 30.3797L111.099 35.1462L114.902 40.1383L118.152 45.9001L120.617 52.0662L121.092 58.7144L120.866 65.4016L122.546 71.8787L123.596 78.4803Z" fill="#FF7124"/>
<path d="M62.715 30.7529C62.2796 30.8385 61.7585 30.9396 61.7663 31.2039C61.7819 31.6316 61.8052 32.0593 62.0152 32.4325C62.3262 32.9612 61.9452 33.6533 62.3418 34.1665C62.4973 34.3609 61.8441 34.2442 61.6808 34.3609C61.4164 34.5553 61.4553 34.7574 61.8285 34.7108C62.9716 34.5708 62.5906 34.9363 62.3029 35.3017C62.2329 35.3873 62.1551 35.4728 62.0851 35.5583C61.9918 35.5194 61.883 35.4806 61.813 35.4339C61.7119 35.3562 61.6963 35.1773 61.5564 35.1929C60.9576 35.2473 61.3386 35.4417 61.1442 35.5583C59.9233 36.3126 60.5532 36.7791 60.561 37.3468C60.561 37.4634 60.5999 37.5878 60.491 37.7044C60.3277 37.8833 60.5999 37.6889 60.2888 37.7044C59.9933 37.72 59.5656 37.6967 59.7134 37.4945C60.2577 36.7403 59.2079 36.6003 58.7647 36.2193C58.6714 36.1337 58.4847 36.0949 58.3448 36.0327C58.2514 36.1571 58.1737 36.2815 58.0493 36.4059C57.8704 36.5769 57.6838 36.7558 57.4505 36.9191C57.3649 36.9813 57.1006 37.0435 56.9761 37.0435C56.8595 37.0435 56.7117 36.9424 56.7506 36.9113C57.5671 36.2582 56.1285 36.227 56.4396 35.776C56.8673 35.1851 55.8486 35.2162 55.7008 34.9052C55.3198 34.1198 54.9543 33.3112 54.9699 32.4403C54.9932 31.6238 54.6044 30.9162 54.7832 30.0609C54.9465 29.2911 54.1456 28.7157 53.6634 28.1247C53.0725 27.3861 53.0647 26.523 52.6992 25.7532C52.4192 25.1544 52.7847 24.3768 51.8049 23.9647C51.6494 23.8947 51.7194 23.6615 51.836 23.506C52.0071 23.2805 52.1082 23.0861 52.046 22.8917C51.5794 21.3988 52.2248 19.7037 51.6183 18.2029C51.3694 17.5887 51.1595 16.8655 53.1424 16.329C53.2746 16.2901 53.3524 16.0879 53.3602 15.9713C53.3679 15.7069 53.6634 15.5825 54.1845 15.5281C54.8221 15.4581 54.8921 15.6603 54.8454 15.8469C54.721 16.3757 56.3229 16.1968 56.1907 16.7722C56.0974 17.1999 56.5718 17.5964 57.4894 17.7053C57.7926 17.7442 57.7304 17.8064 57.6293 17.923C56.9684 18.7161 57.3261 19.3615 58.0493 19.8203C58.6714 20.2091 58.1581 20.9011 59.0446 21.1733C57.816 21.8731 59.4101 21.9275 59.3168 22.3163C59.2001 22.8062 59.4645 23.1794 59.6434 23.5759C59.7523 23.8248 60.1255 23.9725 59.3323 24.3224C58.8113 24.5479 59.2468 24.5013 59.5501 24.5324C60.2266 24.5946 60.4521 24.9056 60.3821 25.2322C60.1489 26.2197 60.6932 27.0284 60.8643 27.9226C60.9498 28.3503 61.3619 28.6846 62.2096 28.8012L62.264 29.0189C60.5299 29.4077 61.3853 29.7887 61.4242 30.1153C61.4553 30.4264 61.1287 31.0562 62.6606 30.5585L62.715 30.7763V30.7529Z" fill="#555555"/>
<path d="M50.3201 75.1446C50.6856 74.818 51.0899 74.4837 49.698 73.6283C49.1381 73.2862 48.5704 72.9441 48.0105 72.6019L46.3464 71.5289C45.2189 70.8368 44.1457 70.0904 43.0337 69.4217C39.861 67.4233 37.3959 64.7718 34.4254 62.4935C33.2901 61.5915 35.0397 62.3769 34.8298 61.9259C34.4954 61.2027 33.5856 60.3552 33.0723 60.394C31.5015 60.5029 30.6695 59.0177 29.7519 57.5948C29.5497 57.2449 29.3475 56.9028 29.1453 56.5606C29.4797 56.8017 29.8218 57.0116 30.1562 57.2838C30.6617 57.6803 31.4315 58.4657 31.6337 58.4734C32.528 58.5123 31.0505 57.517 30.9338 57.1049C30.5761 55.7675 29.6896 54.5156 28.6165 53.2715C27.5823 51.9963 26.3225 50.7677 25.3427 49.4536C24.9383 48.9249 24.4251 48.3261 24.2229 47.8674C23.9197 47.1831 24.0752 47.8518 24.604 48.0151C25.1172 48.1706 25.9648 48.5672 26.3925 49.3681C26.7891 50.1457 27.2712 50.7833 27.7767 51.3587C28.2821 51.9341 28.8187 52.4317 29.363 52.8983C30.4906 53.7925 31.6493 54.5623 32.769 55.4487C33.2589 55.8297 33.7644 56.0941 34.2621 56.4129C33.9666 55.9463 33.6244 55.4642 33.3834 55.021C33.0412 54.399 32.7457 53.738 32.5669 53.1704C32.5047 52.9527 32.7379 52.8205 32.9712 52.8827C33.189 52.9449 33.8111 53.4348 33.8577 53.5436C34.3321 54.6867 35.2652 55.4409 36.1984 56.1174C37.1549 56.7628 38.1269 57.3149 38.7179 58.1391C39.5189 59.2044 40.3587 59.7564 41.1596 60.1997C41.9762 60.6273 42.7849 60.915 43.547 61.4749C47.4506 64.3052 51.6732 66.739 55.7712 69.0484C56.7277 69.5849 57.7153 70.0515 58.7029 70.518C59.7138 70.9379 60.7092 71.4045 61.7356 71.7621L63.2676 72.3453L64.8228 72.8818L65.6005 73.1618L66.3781 73.4184C66.8991 73.5894 67.4201 73.7761 67.9333 73.9549C69.8152 74.5614 71.837 74.9191 73.8666 74.9968C74.8775 75.0746 75.8885 75.028 76.876 75.0357C77.3737 75.0124 77.8636 74.9891 78.3458 74.9658C78.8279 74.9502 79.31 74.9269 79.7844 74.8802C82.1406 74.7325 84.4424 74.5536 86.7208 74.2504C88.9915 73.9471 91.2388 73.5272 93.4239 72.8585C95.0958 72.3298 96.83 71.8866 98.4863 71.249C100.135 70.6036 101.729 69.826 102.997 68.6519C103.416 68.3019 104.451 67.8354 105.119 67.641C106.045 67.33 106.916 66.9723 107.794 66.3425C111.193 63.9398 114.389 61.3116 116.986 58.1857C118.277 56.6306 119.404 54.9511 120.252 53.1704C121.115 51.3976 121.652 49.5003 121.768 47.6419C121.877 46.0945 121.714 44.586 121.628 43.3108C121.628 42.9842 121.582 42.6887 121.597 42.3855C121.597 42.2377 121.613 42.09 121.621 41.9423C121.621 41.8023 121.636 41.6623 121.652 41.5224C121.691 41.2502 121.761 40.9781 121.87 40.7293C121.963 40.4804 122.087 40.2472 122.258 40.0217C122.305 39.9672 122.243 39.7106 122.142 39.3996C122.033 39.0964 121.838 38.7542 121.698 38.5054C121.543 38.2099 121.387 37.9689 121.286 37.7667C121.185 37.5568 121.123 37.3857 121.107 37.2302C121.069 36.9269 121.177 36.7325 121.411 36.6003C121.971 36.2893 122.834 37.2768 123.308 38.2566C123.954 39.594 124.615 40.286 125.252 41.1258C125.563 41.5457 125.89 41.9967 126.115 42.5877C126.372 43.1708 126.52 43.8862 126.551 44.7882C126.551 46.0945 126.551 47.5175 126.559 48.8627C126.543 49.5314 126.559 50.2001 126.574 50.8221C126.574 51.4364 126.644 52.0429 126.691 52.5639C126.761 53.2559 126.621 53.567 126.248 54.1346C125.112 56.0008 123.977 57.8281 122.857 59.6165C121.737 61.4049 120.618 63.1389 119.544 64.7562C119.101 65.4716 118.526 66.0937 117.95 66.7235C117.344 67.3144 116.729 67.9209 116.084 68.4575C114.824 69.5772 113.549 70.5802 112.592 71.7699C111.123 71.9721 110.088 72.7108 109.116 73.5195C108.144 74.3204 107.242 75.2223 106.177 75.6578C103.486 76.7775 101.091 77.9516 98.5096 78.8925C98.113 79.0324 97.732 79.188 97.3665 79.3357C97.001 79.4679 96.6433 79.5923 96.3012 79.6778C95.6169 79.8567 94.987 79.8955 94.396 79.5923C93.6261 79.2035 93.4084 79.7089 92.8718 80.1288C92.2653 80.572 91.4099 80.9608 90.4612 81.2252C89.5047 81.474 88.4627 81.6606 87.4829 81.6762C84.5668 81.7928 81.674 81.8861 78.7735 81.8162C75.8807 81.7462 72.9801 81.4896 70.1418 80.953C68.781 80.7198 67.4357 80.4632 66.1448 80.3543C64.8695 80.1833 63.6253 80.1755 62.5366 80.2299L61.1291 79.7867C61.9767 78.2238 58.2752 77.7106 56.3778 76.8319C55.4757 76.4431 54.3482 75.7511 53.3995 75.409C52.4741 75.0357 51.7354 74.9735 51.6343 75.8211L50.3279 75.1524L50.3201 75.1446Z" fill="#555555"/>
<path d="M95.0021 29.3846C94.5588 29.4391 94.03 29.5013 94.0223 29.7812C94.0067 30.2244 94.0067 30.6754 94.1933 31.072C94.4655 31.6551 94.0223 32.3394 94.38 32.9148C94.5122 33.1403 93.8745 32.9381 93.7034 33.047C93.4235 33.2181 93.439 33.428 93.8123 33.428C94.9632 33.4125 94.551 33.7624 94.2244 34.0967C94.1467 34.1745 94.0611 34.26 93.9756 34.3378C93.8901 34.2833 93.7812 34.2289 93.719 34.1667C93.6257 34.0734 93.6257 33.8868 93.4857 33.879C92.8791 33.8634 93.2446 34.1045 93.0424 34.2056C91.7516 34.8354 92.3193 35.3797 92.2493 35.9629C92.2337 36.0795 92.257 36.2117 92.1326 36.3128C91.946 36.4605 92.2415 36.3128 91.9304 36.2817C91.6349 36.2428 91.215 36.1573 91.3861 35.9862C92.0315 35.302 90.9973 35.0143 90.6007 34.5944C90.5152 34.5011 90.3363 34.4389 90.2041 34.3611C90.0952 34.47 90.0097 34.5866 89.8697 34.6955C89.6753 34.8432 89.4731 34.9987 89.2165 35.1309C89.1232 35.1775 88.8588 35.2164 88.7344 35.2009C88.6177 35.1853 88.4856 35.0687 88.5244 35.0453C89.4109 34.4933 87.9801 34.3144 88.3456 33.9023C88.8277 33.358 87.809 33.2958 87.6924 32.977C87.3891 32.1761 87.0858 31.3519 87.1636 30.4888C87.2414 29.6801 86.8992 28.957 87.1247 28.1172C87.3269 27.363 86.5493 26.7565 86.0982 26.1499C85.5383 25.3957 85.5539 24.5559 85.204 23.7861C84.9318 23.2029 85.3128 22.4331 84.333 22.0288C84.1775 21.9666 84.2475 21.7333 84.3641 21.5856C84.5352 21.3679 84.6363 21.1735 84.5741 20.9869C84.0997 19.5639 84.7063 17.861 84.0064 16.6091C83.8664 16.3292 83.7265 16.1193 83.8587 15.8316C83.9287 15.6916 84.0609 15.5361 84.2941 15.3495C84.5274 15.1551 84.8618 15.0073 85.3128 14.7663C85.4373 14.7041 85.4761 14.533 85.4684 14.4475C85.4373 14.2531 85.6861 14.0431 86.1449 13.8021C86.7126 13.4988 86.837 13.701 86.8525 13.9032C86.8681 14.1753 87.2491 14.1909 87.6302 14.2298C88.0112 14.2686 88.3922 14.3308 88.3845 14.6574C88.3689 15.1317 88.8588 15.4894 89.8075 15.5516C90.1186 15.575 90.0641 15.6449 89.9786 15.7849C89.3798 16.6713 89.792 17.3167 90.5229 17.7833C91.1606 18.1876 90.6785 18.9185 91.5649 19.1985C90.3441 19.9294 91.946 19.9838 91.8527 20.3959C91.736 20.9091 92.0082 21.2979 92.1793 21.7178C92.2881 21.9744 92.6614 22.1454 91.8605 22.4798C91.3317 22.7053 91.7749 22.6664 92.0704 22.7053C92.7469 22.7908 92.9725 23.1252 92.8869 23.4595C92.6381 24.4781 93.1513 25.3335 93.2913 26.2666C93.3535 26.7098 93.7501 27.083 94.6055 27.2619L94.6521 27.4951C92.8947 27.7828 93.7345 28.2338 93.7501 28.576C93.7656 28.9025 93.4002 29.5246 94.9632 29.1358L95.0098 29.3691L95.0021 29.3846Z" fill="#555555"/>
</svg>
