<svg width="110" height="119" viewBox="0 0 110 119" fill="none" xmlns="http://www.w3.org/2000/svg">
<path d="M0.636719 115.642L5.04585 108.931L8.87178 101.855L12.8532 94.8574L16.7958 87.8359L20.9328 80.9311L24.5565 73.8551L27.3404 66.406L30.5209 59.1201L33.4681 51.7332L36.5864 44.3852L41.1044 37.9158L45.0003 31.1042L49.2384 24.4871L52.831 17.4812L56.7814 10.5997L65.6541 9.9465L74.3013 8.13479L83.0807 7.52826L92.0856 7.70709L101.145 7.52826L110.165 7.606L119.147 6.82069L128.012 4.94672L137.04 4.41797L146.613 4.38689L156.248 5.00894L165.68 2.85505L174.996 0.475678L184.11 0.568983L193.465 0.133545L195.992 8.28253L199.149 15.9027L202.221 23.5618L205.744 31.042L208.753 38.74L211.125 46.7334L213.084 54.8435L215.697 62.7747L217.657 70.8926L220.355 78.785L222.719 87.0194L226.024 94.904L229.531 102.711L232.214 110.852L234.982 118.581L227.782 118.153L220.176 118.091L212.563 118.286L205.005 117.228L197.415 116.839L189.818 116.559L182.205 116.404L174.592 116.458L166.022 116.396L157.437 116.497L148.868 117.003L140.283 116.839L131.721 117.866L123.121 117.562L114.536 118.146L105.943 117.959L97.3813 117.399L88.8507 116.209L80.2735 115.968L71.6885 115.634L63.1268 114.965L54.534 115.479L45.7468 116.256L36.9286 117.143L28.118 116.171L19.3775 114.631L9.98379 114.841L0.636719 115.642Z" fill="#14B9CA"/>
<mask id="mask0_620_1360" style="mask-type:luminance" maskUnits="userSpaceOnUse" x="0" y="0" width="235" height="119">
<path d="M0.636719 115.642L5.04585 108.931L8.87178 101.855L12.8532 94.8574L16.7958 87.8359L20.9328 80.9311L24.5565 73.8551L27.3404 66.406L30.5209 59.1201L33.4681 51.7332L36.5864 44.3852L41.1044 37.9158L45.0003 31.1042L49.2384 24.4871L52.831 17.4812L56.7814 10.5997L65.6541 9.9465L74.3013 8.13479L83.0807 7.52826L92.0856 7.70709L101.145 7.52826L110.165 7.606L119.147 6.82069L128.012 4.94672L137.04 4.41797L146.613 4.38689L156.248 5.00894L165.68 2.85505L174.996 0.475678L184.11 0.568983L193.465 0.133545L195.992 8.28253L199.149 15.9027L202.221 23.5618L205.744 31.042L208.753 38.74L211.125 46.7334L213.084 54.8435L215.697 62.7747L217.657 70.8926L220.355 78.785L222.719 87.0194L226.024 94.904L229.531 102.711L232.214 110.852L234.982 118.581L227.782 118.153L220.176 118.091L212.563 118.286L205.005 117.228L197.415 116.839L189.818 116.559L182.205 116.404L174.592 116.458L166.022 116.396L157.437 116.497L148.868 117.003L140.283 116.839L131.721 117.866L123.121 117.562L114.536 118.146L105.943 117.959L97.3813 117.399L88.8507 116.209L80.2735 115.968L71.6885 115.634L63.1268 114.965L54.534 115.479L45.7468 116.256L36.9286 117.143L28.118 116.171L19.3775 114.631L9.98379 114.841L0.636719 115.642Z" fill="white"/>
</mask>
<g mask="url(#mask0_620_1360)">
<path d="M9.79745 138.339C9.96853 138.23 10.1707 138.09 10.3807 137.912C10.5906 137.733 10.8317 137.585 11.0339 137.375C11.2438 137.165 11.446 136.963 11.6171 136.769C11.7804 136.559 11.9204 136.356 12.0137 136.178C12.387 135.486 10.6451 133.837 10.8395 133.223C10.8861 133.067 11.0416 132.951 11.2749 132.857C11.5316 132.772 11.8193 132.679 12.107 132.585C12.7136 132.399 13.3279 132.111 13.4056 131.745C13.5534 130.983 12.6669 130.027 12.8457 129.296C13.0324 128.55 12.6902 127.453 13.0168 126.691C13.3434 125.929 14.9376 125.75 15.3341 124.957C15.5208 124.561 15.4508 123.985 15.373 123.394C15.2875 122.827 15.1786 122.298 15.373 121.932C15.7696 121.217 15.7074 120.183 16.1118 119.483C16.5239 118.776 18.6935 119.328 19.1134 118.667C19.5333 117.998 20.2954 117.671 20.7387 117.042C21.1819 116.404 20.2176 114.514 20.6842 113.923C20.9175 113.628 21.0808 113.247 21.2363 112.874C21.3996 112.493 21.5474 112.135 21.8118 111.816C22.325 111.21 23.0404 110.829 23.5537 110.222C24.0591 109.608 25.7932 110.284 26.2909 109.678C26.7886 109.064 27.6518 108.69 28.1106 108.053C28.5771 107.423 29.1059 107.104 29.6425 106.537C30.179 105.977 30.3268 105.044 30.9022 104.523C31.4699 104.002 32.0065 103.434 32.5741 102.913C33.1418 102.392 33.4606 101.475 34.005 100.938C34.5649 100.394 35.8713 100.526 36.3612 99.9272C36.8589 99.3362 35.7935 97.2057 36.2834 96.5992C36.7811 96.0004 37.0144 95.1529 37.5198 94.5619C38.0175 93.9632 38.4608 93.31 38.9585 92.7035C39.4561 92.097 39.8527 91.3739 40.366 90.7907C40.8792 90.1998 42.24 90.4953 42.7533 89.9199C43.2898 89.3445 44.7129 89.4766 45.1561 88.8157C45.5994 88.1625 44.6507 86.483 45.0706 85.791C45.4827 85.0989 47.6756 85.5888 48.08 84.9045C48.4921 84.2202 46.6025 81.8176 47.0691 81.1722C47.5435 80.519 49.4953 81.2266 50.0474 80.6823C50.6073 80.138 51.1283 79.6948 51.766 79.2438C52.3881 78.8006 52.4347 77.1832 53.1035 76.7867C53.7645 76.3979 55.1564 77.6109 55.8096 77.2299C56.4706 76.8411 56.7661 75.6281 57.396 75.2004C58.0414 74.7728 59.0834 74.8505 59.6511 74.3373C60.2188 73.8319 61.0431 73.7541 61.6341 73.272C62.2173 72.7899 61.323 70.014 61.9296 69.5475C62.5361 69.0809 63.1893 68.6921 63.7959 68.2334C64.4102 67.7668 65.8099 68.56 66.4165 68.0934C67.0308 67.6191 68.5005 68.4122 69.0993 67.9457C69.698 67.4714 68.5549 64.5788 69.1304 64.0345C69.698 63.5057 70.1957 62.977 70.7478 62.4249C71.3 61.865 73.1196 62.8137 73.6639 62.2771C74.2161 61.7406 75.1181 61.7096 75.6935 61.2041C76.269 60.6987 75.3903 58.0316 76.0046 57.5806C76.6189 57.1296 78.4852 58.6459 79.0684 58.1482C79.6439 57.6584 79.986 56.8031 80.5459 56.2977C81.1058 55.7922 80.4449 53.6928 81.0047 53.1796C81.5569 52.6742 83.2987 53.7628 83.8742 53.2807C84.4496 52.7986 83.9908 50.6758 84.5896 50.2481C85.1806 49.8205 87.0936 51.6322 87.6846 51.2123C88.2833 50.7924 88.3844 49.5328 88.9832 49.1206C89.582 48.7085 90.2741 48.4908 90.8651 48.0787C91.456 47.6666 91.2383 45.8782 91.7982 45.4583C92.3659 45.0384 93.7267 45.9015 94.2944 45.466C94.8543 45.0228 94.9165 43.7943 95.4842 43.3744C96.0596 42.9545 96.6506 42.589 97.2105 42.1692C97.7626 41.7493 98.9524 42.3091 99.4967 41.8737C100.049 41.4382 101.122 41.7804 101.674 41.3371C102.226 40.8862 102.016 39.3466 102.537 38.8878C103.058 38.4213 103.12 37.2938 103.657 36.835C104.194 36.3918 105.741 37.426 106.293 36.9828C106.853 36.5395 107.584 36.3607 108.136 35.9097C108.688 35.4509 108.167 33.4681 108.688 32.9938C109.217 32.5117 108.953 31.1354 109.443 30.6222C109.932 30.109 110.345 29.6114 110.803 29.0515C111.262 28.5072 112.11 28.3673 112.553 27.7919C112.996 27.2242 113.416 26.6099 113.859 26.0345C114.295 25.4514 116.021 26.0734 116.48 25.4902C116.931 24.9071 117.786 24.8138 118.269 24.2539C118.751 23.6941 118.735 22.6677 119.233 22.1234C119.738 21.5869 119.062 19.6896 119.559 19.1686C120.065 18.6399 122.157 19.9462 122.67 19.4019C122.927 19.1297 122.74 18.3677 122.561 17.6135C122.468 17.2325 122.374 16.8514 122.336 16.5404C122.312 16.3927 122.328 16.2216 122.305 16.1361C122.289 16.0505 122.297 15.9883 122.328 15.9495C122.46 15.8173 123.105 16.1128 123.782 16.346C124.451 16.5871 125.151 16.7737 125.322 16.5093C125.664 15.9805 125.524 14.9697 125.928 14.2621C126.325 13.5545 126.869 12.808 127.39 11.9838C127.647 11.5717 127.429 10.763 127.258 9.91549C127.18 9.48783 127.095 9.06018 127.095 8.67139C127.095 8.47701 127.11 8.29816 127.149 8.13487C127.18 7.98713 127.266 7.80829 127.32 7.74609C127.833 7.1007 129.599 7.71498 130.104 7.11625C130.61 6.51752 130.003 4.68241 130.524 4.10701C131.045 3.53938 133.183 4.82239 133.697 4.27032C134.21 3.71824 134.879 3.35278 135.384 2.81626C135.897 2.27196 134.568 -0.340691 135.05 -0.861664C135.532 -1.38264 138.005 0.273621 138.487 -0.270679C138.977 -0.81498 137.888 -2.97665 138.324 -3.49762C138.767 -4.01859 140.555 -3.2177 141.006 -3.76978C141.216 -4.03415 141.442 -4.3374 141.621 -4.594C141.792 -4.8506 141.971 -5.1072 142.157 -5.34824C142.538 -5.88477 141.629 -7.40102 141.963 -7.93755C142.305 -8.48185 144.405 -7.82092 144.762 -8.45853C145.12 -9.07281 145.571 -9.67155 145.929 -10.3325C146.279 -10.9934 144.171 -13.1628 144.506 -13.886C144.84 -14.6091 147.414 -14.1037 147.756 -14.858C148.098 -15.5966 147.943 -16.6386 148.332 -17.4161C148.518 -17.7972 148.565 -18.2715 148.635 -18.7536C148.697 -19.2357 148.759 -19.7255 149.008 -20.1221C149.459 -20.8997 150.252 -21.4362 150.797 -22.1905C151.077 -22.5559 151.084 -23.178 151.108 -23.8234C151.162 -24.4687 151.232 -25.1452 151.567 -25.5496C152.243 -26.3116 153.448 -26.3971 154.117 -27.0425C154.452 -27.3846 154.918 -27.509 155.385 -27.6335C155.851 -27.7656 156.31 -27.8745 156.645 -28.1467C157.313 -28.7143 158.161 -28.9009 158.837 -29.3908C159.506 -29.8573 159.778 -31.0703 160.478 -31.4824C161.163 -31.8868 161.606 -33.0143 162.321 -33.3253C163.037 -33.6441 164.18 -32.4622 164.887 -32.7265C165.587 -32.9754 166.202 -33.4808 166.886 -33.7218C167.562 -33.9629 168.441 -33.6752 169.094 -33.9551C169.771 -34.2428 169.817 -35.9068 170.432 -36.2645C171.054 -36.6222 171.381 -37.7419 172.003 -38.0607C172.617 -38.3717 174.157 -36.5366 174.802 -36.8554C175.455 -37.182 175.144 -39.6625 175.743 -39.9735C176.342 -40.3001 178.161 -38.1773 178.776 -38.5739C179.398 -38.9627 179.662 -40.0668 180.222 -40.5178C180.79 -40.9688 181.894 -40.9921 182.392 -41.5753C182.897 -42.1585 181.855 -44.1957 182.26 -44.7945C182.679 -45.3932 183.092 -46.0152 183.48 -46.6217C183.683 -46.9483 183.737 -47.3527 183.846 -47.8192C183.955 -48.2858 184.071 -48.7601 184.312 -49.0711C184.81 -49.732 186.801 -48.7834 187.337 -49.3044C187.89 -49.8331 187.695 -51.3261 188.224 -51.777C188.776 -52.228 190.386 -51.1006 190.961 -51.5671C191.241 -51.8082 191.156 -52.5935 191.008 -53.3555C190.876 -54.1098 190.666 -54.8329 190.915 -55.0506C191.381 -55.5016 192.384 -55.4316 192.812 -55.9915C193.255 -56.5669 193.092 -57.4533 193.38 -58.0598C193.496 -58.3009 193.986 -58.7752 194.515 -59.2417C195.02 -59.7005 195.588 -60.1437 195.845 -60.0582C196.055 -59.9882 196.249 -59.3973 196.381 -58.713C196.475 -58.0443 196.513 -57.29 196.459 -57.0412C196.381 -56.6136 195.736 -56.2637 195.036 -56.0226C194.694 -55.8982 194.352 -55.7816 194.087 -55.6571C193.815 -55.5405 193.613 -55.4083 193.558 -55.2217C193.457 -54.8562 193.317 -54.5141 193.177 -54.1642C193.045 -53.8143 192.874 -53.4722 192.711 -53.1145C192.563 -52.7646 192.866 -52.1425 193.17 -51.4816C193.473 -50.8206 193.745 -50.1442 193.527 -49.7787C193.1 -49.04 191.023 -49.5998 190.603 -48.9545C190.184 -48.3168 191.249 -46.4585 190.806 -45.8131C190.378 -45.1755 190.152 -44.4912 189.81 -43.8069C189.46 -43.1149 189.305 -42.4773 188.932 -41.6764C188.589 -40.9144 188.519 -39.9891 188.123 -39.2271C187.734 -38.4728 187.081 -37.773 186.614 -37.0576C186.148 -36.3423 185.362 -35.7357 184.795 -35.1137C184.235 -34.4916 183.255 -34.2972 182.633 -33.7607C182.011 -33.2242 180.65 -33.8929 180.012 -33.4263C179.375 -32.9676 178.9 -32.2133 178.247 -31.7779C177.594 -31.3425 176.505 -31.6146 175.875 -31.1792C175.238 -30.7437 174.553 -30.145 173.939 -29.6785C173.332 -29.2119 173.076 -28.2322 172.415 -27.8278C171.762 -27.4235 171.948 -25.1997 171.279 -24.842C170.611 -24.4843 169.444 -25.3163 168.799 -24.9741C168.153 -24.632 167.002 -25.3396 166.388 -24.9741C165.75 -24.6009 166.264 -22.1905 165.712 -21.7783C165.16 -21.3662 163.464 -22.5015 162.974 -21.9572C162.741 -21.6928 162.438 -21.4673 162.135 -21.2418C161.847 -21.0085 161.567 -20.7675 161.365 -20.4798C160.984 -19.8811 161.256 -18.7613 160.976 -18.1937C160.649 -17.6105 161.785 -15.9388 161.559 -15.48C161.442 -15.239 160.914 -15.3867 160.307 -15.5033C159.716 -15.6044 159.078 -15.6433 158.915 -15.3867C158.589 -14.8191 159.421 -13.4894 159.141 -12.9374C158.993 -12.6652 158.767 -12.4241 158.534 -12.1753C158.309 -11.9343 158.075 -11.6855 157.928 -11.3744C157.632 -10.7679 156.077 -10.8068 155.781 -10.1381C155.478 -9.45383 156.302 -8.15528 156.007 -7.46324C155.704 -6.73232 154.483 -6.43685 154.187 -5.69038C153.853 -4.87393 155.455 -2.97665 155.004 -2.11354C154.794 -1.69366 154.584 -1.22712 154.374 -0.760578C154.172 -0.301807 153.938 0.172493 153.674 0.607933C153.417 1.0356 153.176 1.50993 152.927 1.98425C152.686 2.45857 152.43 2.93291 152.111 3.36835C151.955 3.58607 151.808 3.80376 151.66 4.02148C151.528 4.21588 151.396 4.40249 151.271 4.59688C151.015 4.97789 150.758 5.35891 150.478 5.72437C149.91 6.47861 147.64 5.61553 147.126 6.33089C146.613 7.04626 147.056 8.60137 146.528 9.30896C145.999 10.0166 145.594 10.8175 145.066 11.4939C144.537 12.1782 144.311 13.1268 143.79 13.7878C143.269 14.4487 142.818 15.1641 142.305 15.8172C141.8 16.4626 140.509 16.3615 140.011 16.9992C139.513 17.6368 139.661 18.7565 139.241 19.433C139.109 19.6274 139.125 19.7129 139.109 19.8528C139.101 19.9772 139.109 20.125 139.117 20.2728C139.132 20.5605 139.163 20.8559 139.078 21.1203C139 21.3691 138.37 21.3691 137.702 21.4391C137.033 21.5169 136.333 21.6568 136.177 22.0689C135.874 22.8932 136.03 24.0051 135.524 24.9926C135.268 25.4903 135.4 26.2756 135.477 27.0998C135.516 27.5119 135.54 27.9318 135.501 28.3128C135.47 28.5228 135.485 28.6394 135.462 28.7638C135.439 28.8882 135.4 28.9971 135.338 29.0827C134.824 29.7825 133.386 29.6502 132.88 30.3501C132.375 31.0499 131.62 31.532 131.107 32.2318C130.594 32.9239 131.068 34.5178 130.54 35.2177C130.003 35.9175 127.678 34.9377 127.141 35.6142C126.605 36.2985 126.216 37.0994 125.664 37.7681C125.112 38.4368 124.435 38.9889 123.875 39.6576C123.308 40.3186 123.137 41.3838 122.553 42.0448C121.986 42.7057 121.402 43.3588 120.819 44.012C120.236 44.6652 119.606 45.2639 119.007 45.9015C118.401 46.5313 117.888 47.2623 117.265 47.8765C116.643 48.5064 115.92 48.7941 115.197 49.3073C114.497 49.8127 114.622 52.091 113.852 52.542C113.074 52.9774 111.519 51.4611 110.765 51.881C110.01 52.3087 109.559 53.4984 108.82 53.9494C108.082 54.4004 107.895 55.6756 107.211 56.2121C106.534 56.7486 105.943 57.2929 105.298 57.8683C104.652 58.436 104.442 59.4935 103.805 60.0844C103.167 60.6832 101.674 60.1311 101.044 60.7065C100.414 61.2819 100.375 62.7281 99.7222 63.2569C99.0612 63.7934 97.226 62.4638 96.5417 62.9225C95.8574 63.3891 95.8108 64.9831 95.1187 65.4497C94.4344 65.9006 93.0813 65.1308 92.397 65.5818C91.7127 66.0328 92.2259 68.7077 91.5416 69.1509C90.8573 69.5941 89.5664 68.8943 88.8899 69.3297C88.2133 69.7652 88.1511 71.367 87.4824 71.8102C86.8136 72.2456 86.0438 72.4634 85.375 72.9144C84.714 73.3576 83.7497 73.2565 83.0965 73.7075C82.4356 74.1584 80.9503 73.1476 80.3049 73.6064C79.6517 74.0651 79.0451 74.5861 78.4074 75.0371C77.762 75.4959 78.2597 77.9686 77.6221 78.404C76.9844 78.8472 75.4991 77.782 74.8381 78.2018C74.1772 78.6217 74.1616 80.2158 73.5162 80.6279C72.8708 81.04 71.5566 80.2391 70.8878 80.6901C70.2268 81.1333 70.1024 82.5329 69.457 82.9762C68.8116 83.4349 67.3729 82.5718 66.7353 83.0539C66.0899 83.536 66.5331 85.8687 65.8877 86.3197C65.2345 86.7629 64.6746 87.455 64.0058 87.8826C63.3526 88.3181 61.2141 86.0009 60.5454 86.4441C59.8766 86.8873 60.0321 88.8079 59.3867 89.2745C58.7413 89.741 57.5515 89.36 56.9216 89.8576C56.3462 90.3242 56.9139 92.3226 56.3851 92.8358C55.8641 93.3567 54.7287 93.1468 54.231 93.7066C53.7334 94.2587 53.5856 95.1996 53.0879 95.7516C52.5825 96.3037 51.5793 96.2959 51.0661 96.8324C50.5529 97.369 50.3507 98.3098 49.7986 98.7919C49.2542 99.2818 48.8265 99.9816 48.2589 100.44C47.699 100.899 46.4625 100.363 45.8949 100.821C45.3272 101.28 44.674 101.622 44.1063 102.081C43.5309 102.54 42.6911 102.649 42.139 103.131C41.5791 103.621 40.9958 104.157 40.4593 104.678C39.9305 105.207 39.0829 105.635 38.6085 106.226C38.1342 106.816 38.0486 107.858 37.6132 108.488C37.1777 109.11 36.8511 109.826 36.4234 110.448C35.9879 111.07 35.0781 111.186 34.6193 111.793C34.1605 112.407 35.428 114.686 34.9304 115.23C34.4249 115.774 33.935 116.388 33.4062 116.902C32.8774 117.415 31.2522 116.598 30.7234 117.135C30.1946 117.664 30.2257 118.861 29.7047 119.382C29.1759 119.919 28.2428 120.059 27.714 120.618C27.1774 121.186 26.0421 121.108 25.5288 121.684C25.0156 122.259 25.4511 123.869 24.9223 124.405C24.3935 124.942 24.028 125.696 23.4992 126.217C22.9704 126.73 21.4385 125.968 20.902 126.497C20.6376 126.761 20.6065 127.321 20.5831 127.873C20.5831 128.417 20.6298 128.876 20.4043 129.133C19.9688 129.615 18.7946 129.483 18.3513 130.097C17.9081 130.696 17.4493 131.24 16.9594 131.839C16.4695 132.437 15.9874 133.013 15.4352 133.58C15.1553 133.86 14.7976 134.016 14.4476 134.164C14.0822 134.304 13.7322 134.436 13.4367 134.677C13.1257 134.902 13.0557 135.517 12.8846 136.123C12.7447 136.745 12.488 137.352 12.1303 137.554C11.7493 137.717 11.4305 138.067 11.0572 138.37C10.6839 138.666 10.2951 138.985 9.87522 139.039C9.22979 139.156 9.40085 138.137 9.34641 137.593C9.32308 137.212 8.63877 137.896 8.93427 137.678C9.36974 138.013 9.14424 138.409 9.74301 138.417L9.79745 138.339Z" fill="#FFFBDF"/>
<path d="M75.7635 197.061C75.9657 196.945 76.199 196.75 76.4478 196.564C76.7044 196.385 76.9611 196.152 77.2021 195.911C77.4587 195.685 77.6765 195.429 77.8631 195.18C78.0575 194.946 78.2208 194.705 78.3219 194.495C78.7496 193.679 76.8988 192.209 77.1321 191.478C77.1866 191.3 77.3732 191.136 77.622 190.989C77.8787 190.849 78.2053 190.685 78.5319 190.522C79.1851 190.195 79.8538 189.791 79.9549 189.356C80.1571 188.469 79.2706 187.497 79.535 186.603C79.7994 185.709 79.5661 184.441 80.0638 183.477C80.1882 183.236 80.3904 183.042 80.6392 182.855C80.8959 182.669 81.1914 182.505 81.4869 182.358C82.039 182.101 82.5677 181.899 82.8088 181.487C83.2832 180.678 82.5833 179.154 83.0654 178.345C83.5476 177.544 83.5709 176.425 84.053 175.639C84.5351 174.854 86.8058 175.282 87.2957 174.52C87.7856 173.758 88.6177 173.338 89.1154 172.599C89.6597 171.837 88.8199 169.8 89.442 169.03C90.0252 168.276 90.4684 167.148 91.1528 166.41C91.5027 166.044 91.8682 165.733 92.2959 165.438C92.7236 165.142 93.1435 164.847 93.5245 164.489C93.9133 164.131 94.5199 164.131 95.1886 164.178C95.8418 164.209 96.4717 164.271 96.8683 163.937C97.2416 163.595 97.7937 163.377 98.2914 163.152C98.7968 162.918 99.2867 162.693 99.7455 162.428C100.189 162.156 100.609 161.946 101.036 161.799C101.464 161.659 101.9 161.534 102.374 161.348C103.292 161.037 104.054 160.243 104.909 160.065C105.36 159.971 105.757 159.87 106.161 159.769C106.558 159.676 106.954 159.575 107.351 159.481C107.732 159.388 108.113 159.186 108.47 158.953C108.82 158.719 109.17 158.478 109.528 158.354C109.901 158.237 110.368 158.299 110.85 158.369C111.332 158.432 111.83 158.494 112.172 158.276C112.872 157.817 112.429 155.438 113.043 155.003C113.673 154.513 114.101 153.751 114.715 153.269C115.329 152.763 115.889 152.141 116.496 151.62C117.11 151.107 117.608 150.376 118.206 149.808C118.805 149.241 120.189 149.637 120.811 149.015C121.434 148.409 122.942 148.525 123.486 147.826C124.023 147.118 123.144 145.392 123.626 144.645C124.101 143.899 126.426 144.288 126.908 143.51C127.39 142.74 125.462 140.384 125.975 139.677C126.496 138.953 128.564 139.513 129.171 138.86C129.777 138.215 130.345 137.678 131.037 137.118C131.714 136.574 131.776 134.863 132.491 134.35C133.199 133.837 134.7 134.895 135.415 134.381C136.131 133.868 136.434 132.523 137.111 131.955C137.795 131.388 138.93 131.279 139.537 130.618C140.143 129.965 141.03 129.716 141.652 129.086C142.274 128.456 141.201 125.727 141.831 125.105C142.461 124.491 143.153 123.931 143.783 123.316C144.412 122.694 145.944 123.208 146.566 122.578C147.189 121.948 148.829 122.414 149.436 121.761C150.042 121.108 148.573 118.402 149.133 117.695C149.693 116.995 150.167 116.311 150.711 115.587C151.248 114.864 153.293 115.323 153.837 114.6C154.374 113.877 155.354 113.581 155.921 112.881C156.489 112.182 155.26 109.67 155.875 109.009C156.489 108.348 158.69 109.336 159.273 108.644C159.856 107.952 160.136 106.949 160.704 106.233C161.264 105.526 160.346 103.535 160.921 102.82C161.497 102.104 163.519 102.688 164.117 102.003C164.724 101.311 164.079 99.1962 164.724 98.543C165.362 97.8899 167.648 99.2273 168.317 98.5975C168.985 97.9677 169.102 96.5447 169.685 96.0081C170.3 95.4483 171.038 95.0518 171.645 94.4841C172.251 93.901 171.87 92.1048 172.454 91.5216C173.037 90.9384 174.569 91.4749 175.152 90.8528C175.735 90.2386 175.704 88.9167 176.28 88.3102C176.855 87.6959 177.493 87.1438 178.068 86.5295C178.644 85.923 179.958 86.1408 180.541 85.5187C181.116 84.8811 182.314 84.9278 182.882 84.2746C183.457 83.6215 183.146 82.0274 183.69 81.3665C184.235 80.69 184.25 79.4381 184.818 78.785C185.386 78.1396 187.12 78.8238 187.711 78.1784C188.294 77.5331 189.095 77.1443 189.678 76.4911C190.16 75.9779 189.149 74.3761 189.538 73.793C189.935 73.2098 189.414 71.8413 189.942 70.9237C190.471 70.0062 191.008 69.042 191.747 67.9223C191.933 67.6423 192.159 67.3857 192.392 67.1447C192.633 66.9114 192.905 66.6548 193.139 66.4604C193.527 66.1805 193.916 65.8928 194.204 65.5118C194.772 64.7498 195.316 63.98 195.876 63.249C196.436 62.5104 198.286 62.9769 198.846 62.2849C199.406 61.5851 200.347 61.3984 200.923 60.7375C201.498 60.0766 201.568 58.9646 202.143 58.3426C202.719 57.7205 202.136 55.7377 202.672 55.1545C202.944 54.8591 203.613 55.0224 204.282 55.1779C204.616 55.2557 204.951 55.3334 205.238 55.3489C205.371 55.38 205.549 55.2945 205.689 55.2323C205.829 55.1623 205.954 55.069 206.055 54.9446C206.242 54.7113 206.343 54.3614 206.405 53.9338C206.56 53.2028 206.638 52.262 206.801 51.36C206.895 50.9323 207.019 50.528 207.175 50.1703C207.33 49.8204 207.54 49.5482 207.773 49.3616C208.411 48.8795 209.344 49.1284 210.2 49.4627C211.078 49.8126 211.872 50.2325 212.494 50.0459C213.73 49.6493 215.013 48.8095 216.413 48.8173C217.097 48.8173 217.797 48.8951 218.481 48.9962C219.065 49.0895 219.656 49.1828 220.239 49.2761C220.348 49.2917 220.472 49.2683 220.573 49.2061C220.682 49.1439 220.822 49.0584 220.845 48.9418C220.946 48.7007 221.032 48.3741 221.102 48.0475C221.25 47.3944 221.281 46.7179 221.327 46.7179C221.374 46.7179 221.475 47.1844 221.654 47.6587C221.825 48.1253 222.082 48.5918 222.206 48.5763C222.338 48.5607 222.315 48.0864 222.206 47.6354C222.113 47.1767 221.95 46.7412 222.004 46.7179C222.058 46.7024 222.471 47.2466 222.953 47.6976C223.427 48.1642 223.964 48.5374 224.065 48.3897C224.259 48.1175 224.617 47.9542 224.788 47.6043C224.873 47.4255 224.376 46.9045 223.824 46.5157C223.684 46.4146 223.552 46.3291 223.419 46.2436C223.295 46.1347 223.194 45.9792 223.116 45.8392C222.953 45.5593 222.859 45.3338 222.922 45.1394C223.163 44.4163 226.055 44.6418 226.304 43.7865C226.553 42.9389 224.765 41.3449 225.006 40.4662C225.247 39.5875 227.214 39.2921 227.471 38.3901C227.727 37.4726 227.937 36.5317 228.225 35.5909C228.505 34.6656 227.37 33.0638 227.72 32.0451C227.898 31.5397 228.552 31.2675 229.22 31.0032C229.874 30.7466 230.55 30.4977 230.752 30.0079C230.978 29.5024 231.211 29.0204 231.507 28.5149C231.771 28.0251 232.144 27.4263 232.471 26.8743C232.642 26.6021 232.681 26.2211 232.665 25.7546C232.665 25.2958 232.611 24.7671 232.572 24.2072C232.549 23.6629 232.556 23.103 232.626 22.5976C232.72 22.1155 232.891 21.6879 233.171 21.4235C233.661 21.0269 234.43 20.9881 235.216 21.1125L235.605 21.1824L235.799 21.2213C235.854 21.2369 235.892 21.268 235.939 21.2913C236.126 21.3924 236.305 21.4857 236.476 21.5557C236.818 21.6956 237.121 21.7345 237.3 21.5946C237.611 21.3535 237.837 20.988 238.054 20.5993C238.28 20.2182 238.505 19.845 238.816 19.5651C239.431 19.0363 239.617 17.9089 240.239 17.3568C240.846 16.8047 241.686 16.5715 242.323 16.0038C242.961 15.4595 242.658 13.6788 243.257 13.0957C243.848 12.5125 244.967 12.5669 245.558 11.9371C246.142 11.3306 247.292 11.3539 247.876 10.7241C248.451 10.0943 249.252 9.72881 249.828 9.09121C250.403 8.45359 250.403 7.20947 250.955 6.59518C251.243 6.28415 251.406 5.82539 251.569 5.38217C251.647 5.15668 251.741 4.93117 251.826 4.73677C251.904 4.55793 251.982 4.418 252.114 4.28582C252.65 3.72596 254.151 4.26247 254.765 3.63264C255.364 3.01058 255.815 2.17083 256.422 1.52545C257.028 0.887836 258 0.639015 258.584 -0.0296974C259.167 -0.706184 258.762 -2.46352 259.291 -3.18666C259.828 -3.9098 259.859 -5.24723 260.427 -5.93149C260.986 -6.62353 263.063 -5.58937 263.654 -6.25808C264.237 -6.93457 263.35 -9.37614 263.926 -10.0448C264.509 -10.7136 266.85 -9.37614 267.41 -10.0682C267.977 -10.768 268.063 -12.0665 268.592 -12.7897C269.128 -13.5284 270.287 -13.9871 270.746 -14.7958C271.197 -15.5967 269.89 -17.494 270.295 -18.3182C270.707 -19.1502 271.111 -19.9822 271.516 -20.7987C271.928 -21.6307 271.788 -22.8748 272.223 -23.6601C272.666 -24.4688 274.82 -24.0023 275.341 -24.7332C275.862 -25.4796 275.528 -27.0581 276.072 -27.7424C276.625 -28.4422 278.413 -27.6413 278.989 -28.3178C279.58 -29.0098 278.46 -31.7624 279.004 -32.4078C279.572 -33.0765 280.629 -33.1387 281.15 -33.8308C281.687 -34.5461 281.71 -35.6192 282.13 -36.3423C282.216 -36.49 282.41 -36.6844 282.651 -36.9022C282.9 -37.1199 283.211 -37.3609 283.499 -37.5864C283.818 -37.8275 284.121 -38.053 284.339 -38.2163C284.587 -38.3951 284.805 -38.5117 284.93 -38.4651C285.132 -38.4107 285.295 -37.5709 285.264 -36.7778C285.248 -35.9691 285.124 -35.1449 285.038 -34.8727C284.906 -34.4062 284.183 -34.1107 283.452 -33.8774C282.729 -33.6208 281.998 -33.4031 281.835 -32.9677C281.531 -32.1201 281.166 -31.3192 280.808 -30.4639C280.458 -29.6396 282.146 -27.8201 281.749 -26.9648C281.368 -26.1172 279.175 -26.1872 278.786 -25.3475C278.398 -24.531 279.688 -22.8281 279.284 -21.9806C278.887 -21.1486 278.709 -20.3243 278.374 -19.4379C278.048 -18.567 277.853 -17.7039 277.55 -16.8097C277.254 -15.9311 277.278 -14.9358 276.967 -14.0493C276.656 -13.1707 276.096 -12.2765 275.738 -11.4134C275.38 -10.5503 274.696 -9.69494 274.253 -8.87849C273.81 -8.06982 272.884 -7.5255 272.379 -6.74793C271.881 -5.97813 270.365 -6.08699 269.836 -5.34053C269.315 -4.59406 269.027 -3.62986 268.498 -2.8834C267.97 -2.13693 266.803 -1.86478 266.29 -1.11053C265.777 -0.348515 265.271 0.607883 264.797 1.40101C264.33 2.19413 264.4 3.26719 263.879 4.02921C263.358 4.78345 264.291 6.83624 263.739 7.57493C263.187 8.3214 261.741 8.21255 261.173 8.94346C260.613 9.68993 259.206 9.66659 258.622 10.4364C258.311 10.8485 258.42 11.5794 258.529 12.3337C258.638 13.0957 258.739 13.8577 258.451 14.2309C257.853 15.0085 255.769 14.6042 255.255 15.3895C254.742 16.1826 253.879 16.8747 253.397 17.6756C252.907 18.4765 253.148 19.7206 252.65 20.5137C252.145 21.3224 253.101 23.1186 252.541 23.8884C251.958 24.6815 249.586 23.8573 248.941 24.5105C248.288 25.187 248.537 26.9287 247.852 27.5896C247.145 28.2506 246.204 28.5927 245.481 29.2225C245.123 29.5491 244.516 29.5569 243.933 29.5647C243.35 29.5725 242.759 29.5647 242.378 29.8602C242.152 30.0312 241.997 30.2956 241.857 30.5988C241.779 30.7466 241.717 30.9099 241.647 31.0732C241.6 31.1665 241.608 31.2209 241.608 31.2753V31.4542C241.631 31.7885 241.678 32.0762 241.577 32.1695C241.522 32.2317 241.429 32.2473 241.297 32.2395C241.18 32.2395 241.033 32.224 240.885 32.2162C240.597 32.2006 240.286 32.2318 240.201 32.4339C240.154 32.5428 240.224 32.7294 240.364 32.9393C240.504 33.1415 240.706 33.3981 240.885 33.678C241.071 33.9424 241.258 34.2223 241.382 34.4712C241.507 34.72 241.569 34.9144 241.507 35.0932C241.243 35.7386 241.118 36.6172 240.838 37.4259C240.558 38.2268 240.488 39.1832 240.224 40.0774C239.959 40.9716 239.812 41.8969 239.571 42.8534C239.33 43.8253 236.934 44.2219 236.725 45.2405C236.515 46.2669 237.502 47.5732 237.246 48.6774C237.121 49.2217 237.02 49.7815 236.919 50.3569L236.833 50.7924C236.802 50.9401 236.779 51.0723 236.732 51.2667C236.616 51.6866 236.499 52.1065 236.375 52.5186C235.854 54.1592 235.55 55.9866 234.703 57.5028C233.871 59.0113 232.899 60.4265 231.639 61.5229C231.336 61.8106 230.955 61.9894 230.573 62.1605C230.169 62.2927 229.773 62.417 229.345 62.4715C228.513 62.6348 227.681 62.6504 226.965 62.8914C226.234 63.1013 225.597 63.4668 224.912 63.7778C224.236 64.1044 223.505 64.3688 222.688 64.4077C221.88 64.4388 221.125 64.5631 220.34 64.6642C219.951 64.7109 219.555 64.7576 219.142 64.7809L218.839 64.7965L218.66 64.8198C218.536 64.8353 218.435 64.8431 218.326 64.8509C218.217 64.8509 218.108 64.812 217.991 64.742C217.945 64.7109 217.89 64.6642 217.844 64.6176C217.805 64.5709 217.828 64.5321 217.82 64.4776C217.805 64.2677 217.766 63.9722 217.712 63.6768C217.603 63.078 217.346 62.4871 217.206 62.5648C216.911 62.7203 216.895 63.4901 216.755 63.6768C216.677 63.7778 216.841 64.3766 217.089 64.9286C217.206 65.2008 217.346 65.4651 217.455 65.6518C217.564 65.8384 217.649 65.9628 217.649 65.9628L217.564 65.8617C217.509 65.7995 217.424 65.714 217.33 65.6285C217.159 65.5818 216.973 65.5351 216.817 65.5274C216.778 65.5274 216.739 65.5274 216.701 65.5274C216.662 65.5274 216.646 65.5196 216.568 65.5818C216.444 65.6828 216.335 65.7917 216.242 65.9162C215.604 66.8104 214.733 67.4635 214.096 68.3033C213.466 69.143 213.816 70.8615 213.17 71.6702C212.533 72.4866 210.114 71.5924 209.492 72.3544C208.87 73.1242 208.411 74.0107 207.797 74.7494C207.182 75.4881 206.467 76.1179 205.884 76.8488C205.588 77.2143 205.402 77.673 205.223 78.1318C205.098 78.3962 205.122 78.4973 205.075 78.645C205.036 78.7772 204.99 78.9172 204.92 79.026C204.616 79.4926 204.29 80.0757 203.87 80.8533C203.442 81.6464 202.898 82.5795 202.221 83.6992C201.887 84.2513 201.545 84.85 201.164 85.4565C200.977 85.7598 200.767 86.063 200.557 86.3663C200.409 86.584 200.262 86.7862 200.114 86.9883C199.492 87.8048 198.745 88.2869 198.022 89.0023C197.314 89.7021 197.61 92.097 196.832 92.7579C196.062 93.4111 194.282 92.2214 193.512 92.8512C192.734 93.4888 192.369 94.8807 191.614 95.5572C190.86 96.2415 190.759 97.6255 190.075 98.3953C189.39 99.1573 188.799 99.896 188.138 100.689C187.493 101.482 187.33 102.664 186.676 103.473C186.015 104.282 184.336 104.157 183.675 104.935C183.014 105.72 183.053 107.267 182.345 108.029C181.63 108.791 179.507 107.874 178.76 108.55C178.371 108.908 178.231 109.468 178.084 110.036C177.936 110.603 177.788 111.163 177.446 111.474C176.769 112.081 175.261 111.637 174.569 112.283C173.877 112.936 174.701 115.541 174.009 116.202C173.325 116.855 171.863 116.505 171.171 117.166C170.478 117.819 170.595 119.514 169.903 120.175C169.219 120.844 168.402 121.31 167.718 121.987C167.034 122.671 165.968 122.866 165.292 123.558C164.615 124.242 162.881 123.659 162.197 124.351C161.52 125.043 160.898 125.781 160.214 126.466C159.53 127.15 160.26 129.623 159.568 130.299C158.876 130.976 157.142 130.299 156.427 130.944C155.719 131.598 155.735 133.308 155.019 133.954C154.296 134.599 152.795 134.101 152.08 134.739C151.357 135.377 151.248 136.908 150.532 137.562C149.817 138.215 148.199 137.632 147.5 138.3C146.792 138.969 147.282 141.387 146.551 142.017C145.812 142.647 145.182 143.518 144.428 144.132C143.674 144.739 141.333 142.67 140.586 143.277C139.84 143.883 139.957 145.944 139.202 146.558C138.456 147.18 137.134 146.97 136.411 147.623C135.75 148.222 136.247 150.298 135.602 150.951C134.964 151.597 133.72 151.542 133.098 152.219C132.491 152.895 132.204 153.93 131.582 154.598C130.944 155.267 129.816 155.368 129.148 156.006C128.471 156.635 128.09 157.693 127.375 158.268C126.683 158.852 125.998 159.637 125.236 160.181C124.466 160.718 123.199 160.166 122.398 160.64C121.605 161.122 120.757 161.472 119.964 161.946C119.132 162.39 118.121 162.405 117.312 162.856C116.48 163.284 115.578 163.742 114.738 164.17C114.31 164.38 113.789 164.512 113.284 164.668C112.779 164.823 112.281 164.987 111.845 165.181C111.418 165.383 111.029 165.733 110.64 166.098C110.251 166.441 109.855 166.775 109.419 166.977C108.984 167.187 108.595 167.389 108.191 167.599L107.592 167.91C107.397 168.011 107.219 168.097 107.032 168.182C106.254 168.517 105.391 168.128 104.73 168.439C104.419 168.602 104.334 169.349 104.287 170.056C104.264 170.795 104.287 171.495 104.038 171.604C103.781 171.689 103.533 171.915 103.268 172.062C103.012 172.226 102.739 172.366 102.467 172.576C102.195 172.755 101.705 172.552 101.184 172.366C100.671 172.164 100.134 172.055 99.8311 172.288C99.5278 172.529 99.3334 172.957 99.1545 173.377C98.9679 173.796 98.8046 174.271 98.5013 174.535C97.9103 175.079 96.9383 175.134 96.3629 175.779C95.7796 176.394 94.5899 176.378 94.0144 177.039C93.4234 177.739 93.7656 179.48 93.1357 180.141C92.5136 180.802 92.047 181.673 91.4171 182.311C90.7873 182.941 89.2165 182.233 88.5866 182.855C87.9567 183.485 88.2367 185.336 87.6301 185.958C87.3268 186.269 86.8758 186.385 86.417 186.51C85.9893 186.619 85.5616 186.696 85.305 187.031C84.7607 187.699 84.2707 188.306 83.7342 188.967C83.1821 189.667 82.6766 190.351 82.0778 191.043C81.4868 191.735 80.5848 191.929 79.9549 192.536C79.6283 192.831 79.5194 193.516 79.3328 194.2C79.255 194.55 79.1306 194.892 78.9907 195.187C78.8585 195.483 78.6874 195.724 78.4697 195.848C78.2597 195.965 78.0731 196.144 77.8709 196.315C77.6687 196.486 77.4665 196.673 77.2566 196.867C77.0544 197.061 76.8133 197.217 76.5878 197.372C76.4711 197.45 76.3545 197.512 76.2379 197.575C76.1212 197.621 75.9968 197.652 75.8801 197.683C75.1258 197.839 75.3747 196.797 75.3358 196.245C75.3203 195.864 74.5038 196.595 74.8537 196.354C75.3436 196.665 75.0637 197.077 75.7557 197.054L75.7635 197.061Z" fill="#FFFBDF"/>
<path d="M42.3411 244.011C43.0332 243.187 43.943 241.601 44.2385 240.691C44.534 239.781 42.4889 238.677 42.7066 237.791C42.901 236.912 45.4128 236.088 45.6149 235.147C45.8249 234.214 44.9462 233.226 45.195 232.324C45.4516 231.407 45.1795 230.178 45.5372 229.292C45.8949 228.413 47.5357 228.032 47.8856 227.13C48.2277 226.228 47.2713 224.875 47.5979 223.973C47.9245 223.071 47.7456 221.967 48.0722 221.065C48.3988 220.163 50.7239 219.992 51.0739 219.09C51.4238 218.188 52.1781 217.535 52.5591 216.648C52.9402 215.762 51.696 213.997 52.1237 213.134C52.5436 212.271 52.6291 211.128 53.0724 210.272C53.5156 209.425 54.1999 208.741 54.6354 207.885C55.0709 207.03 56.9527 207.108 57.3727 206.237C57.7848 205.366 58.6246 204.604 58.9979 203.71C59.3711 202.823 59.8533 202.248 60.3121 201.393C60.7631 200.545 60.7631 199.464 61.2452 198.632C61.7274 197.808 62.1628 196.945 62.6527 196.113C63.1426 195.289 63.2748 194.138 63.7259 193.29C64.1769 192.435 65.5455 191.953 65.9265 191.066C66.3076 190.18 64.7679 188.384 65.1411 187.49C65.5222 186.595 65.5999 185.569 65.9887 184.651C66.3853 183.734 66.7042 182.793 67.2019 181.774L67.6529 180.841C67.824 180.491 68.0106 180.149 68.2128 179.807L68.3527 179.574L68.4383 179.411L68.6171 179.092C68.7415 178.882 68.866 178.672 68.9982 178.477C69.5581 177.653 71.0589 177.583 71.6188 176.806C72.1864 176.013 73.7495 175.764 74.2161 174.916C74.6749 174.084 73.5706 172.529 73.9672 171.666C74.3482 170.826 76.7667 170.694 77.0311 169.932C77.3499 169.131 75.017 167.265 75.3203 166.518C75.4758 166.13 76.0668 166.005 76.6734 165.803C77.2799 165.616 77.9098 165.422 78.1197 165.049C78.5319 164.263 78.9285 163.603 79.4339 162.864C79.9238 162.11 79.5195 160.5 80.0327 159.761C80.5537 159.038 82.2956 159.512 82.8166 158.75C83.3454 157.988 83.2365 156.597 83.7031 155.796C84.1852 154.987 85.2272 154.435 85.6005 153.556C85.9738 152.693 86.7358 152.087 87.1324 151.224C87.529 150.36 85.6549 148.207 86.0515 147.351C86.4559 146.496 86.9302 145.679 87.3268 144.816C87.7234 143.953 89.3331 143.79 89.7219 142.919C90.1107 142.048 91.8138 141.792 92.1792 140.897C92.5447 140.003 90.2974 138.044 90.6084 137.118C90.9195 136.201 91.1528 135.338 91.4483 134.397C91.736 133.464 93.82 133.021 94.1155 132.095C94.411 131.162 95.2431 130.455 95.5775 129.537C95.9118 128.612 93.9755 126.699 94.3721 125.789C94.7765 124.879 97.1638 124.911 97.5293 123.993C97.887 123.075 97.8715 121.971 98.2214 121.038C98.5713 120.105 97.1249 118.527 97.4826 117.578C97.8559 116.629 99.9944 116.381 100.391 115.463C100.803 114.546 99.6211 112.687 100.103 111.777C100.601 110.86 103.144 111.334 103.649 110.455C104.178 109.577 103.914 108.146 104.481 107.26C105.049 106.381 105.757 105.635 106.371 104.764C106.666 104.328 106.674 103.644 106.69 102.952C106.713 102.26 106.76 101.56 107.086 101.109C107.724 100.207 109.505 100.339 110.181 99.4839C110.508 99.0485 110.749 98.4575 110.967 97.851C111.2 97.2523 111.41 96.6458 111.845 96.2181C112.701 95.3706 113.603 94.593 114.606 93.7921C115.586 92.9523 117.094 93.31 118.043 92.6724C118.525 92.3692 119.116 92.2681 119.692 92.1903C120.275 92.1281 120.85 92.0737 121.325 91.8093C122.273 91.3117 122.794 89.5777 123.798 89.1345C124.777 88.6913 125.563 87.4783 126.574 87.1517C127.592 86.8095 128.883 88.3724 129.84 88.1314C130.804 87.8981 131.792 88.0536 132.732 87.867C133.666 87.696 134.428 85.6199 135.369 85.4566C136.294 85.2933 136.994 83.9247 137.896 83.7381C138.806 83.5515 139.591 83.3571 140.462 83.1394C141.333 82.9294 142.282 83.3104 143.129 83.0849C143.961 82.8595 144.778 82.6029 145.579 82.3696C146.372 82.1363 147.624 83.6915 148.409 83.4504C149.195 83.2249 150.05 83.6293 150.82 83.4116C151.598 83.2016 152.134 82.2841 152.865 82.0897C153.223 81.9808 153.487 81.421 153.736 80.8689C153.969 80.309 154.179 79.7492 154.514 79.6481C155.136 79.4304 156.543 81.5998 157.236 81.3043C157.407 81.2343 157.523 81.0088 157.601 80.6978C157.671 80.3868 157.71 79.9902 157.741 79.6092C157.811 78.8472 157.819 78.0852 158.091 77.9219C158.371 77.7742 158.977 78.2329 159.592 78.645C160.206 79.0572 160.875 79.4771 161.155 79.236C161.427 79.0027 161.652 78.6372 161.792 78.2718C161.917 77.8985 162.033 77.5409 162.251 77.3154C162.36 77.1987 162.469 77.0977 162.593 76.9888L162.998 76.53C163.27 76.2268 163.542 75.9235 163.791 75.5969C164.04 75.2781 163.822 74.5394 163.596 73.7541C163.371 72.9843 163.138 72.2301 163.387 71.8802C163.635 71.5303 164.211 71.468 164.802 71.3903C165.385 71.3047 165.976 71.1959 166.233 70.8304C166.746 70.0762 166.023 68.2489 166.544 67.518C167.057 66.7715 169.39 67.619 169.919 66.8648C170.447 66.1183 171.147 65.5196 171.668 64.7498C172.197 63.98 170.665 61.4296 171.186 60.6676C171.707 59.9056 174.429 61.0252 174.95 60.2554C175.471 59.4779 174.297 57.2696 174.81 56.4842C175.323 55.6989 177.275 56.1343 177.796 55.349C178.317 54.5714 178.784 53.7472 179.297 52.9618C179.818 52.1765 179.095 50.3414 179.616 49.556C180.137 48.7785 182.291 49.3694 182.812 48.5841C183.325 47.791 183.939 47.0756 184.452 46.2825C184.966 45.4972 183.193 42.9156 183.69 42.0836C184.172 41.2749 186.754 41.9281 187.236 41.0805C187.703 40.2563 187.695 39.1055 188.177 38.2657C188.652 37.4415 188.566 36.2129 189.072 35.3809C189.561 34.5645 190.37 33.9658 190.907 33.1493C191.42 32.364 190.852 30.5678 191.404 29.7047C191.474 29.5958 191.576 29.4636 191.708 29.3159C191.855 29.1526 192.011 28.997 192.166 28.8493C192.485 28.5538 192.82 28.2817 193.139 28.0096C193.675 27.5974 194.243 27.2475 194.694 26.7499C194.966 26.5089 195.277 26.2989 195.604 26.1356C195.946 25.9878 196.296 25.8712 196.646 25.7624C197.003 25.6691 197.361 25.5913 197.695 25.4902C198.038 25.4047 198.372 25.3036 198.683 25.1558C199.313 24.8759 199.974 24.7127 200.635 24.6038C201.257 24.5027 201.747 24.4716 202.283 24.3394C203.294 24.1139 204.196 23.0642 205.184 22.9553C206.164 22.8387 207.19 21.9911 208.147 22.0067C209.095 22.0222 209.826 23.5929 210.736 23.6629C211.638 23.7329 212.571 23.5463 213.466 23.6318C214.352 23.7174 215.184 24.3705 216.063 24.4094C216.942 24.4561 217.89 22.9631 218.722 22.9164C219.562 22.8698 220.425 21.9911 221.172 21.96C221.887 21.9212 222.735 24.2539 223.513 24.1606C223.606 24.1528 223.691 24.1062 223.777 24.0284C223.855 23.9506 223.917 23.8418 223.979 23.7251C224.111 23.4919 224.205 23.1653 224.275 22.8465C224.352 22.5432 224.384 22.1933 224.446 21.96C224.469 21.8356 224.5 21.7268 224.547 21.6412C224.625 21.5324 224.71 21.4546 224.811 21.4079C225.589 21.0425 227.284 23.2741 228.07 22.8465C228.863 22.4188 229.391 21.2291 230.122 20.7315C230.869 20.2338 232.121 20.2027 232.797 19.5729C233.482 18.9353 232.728 16.7114 233.295 16.0505C233.886 15.3818 234.454 14.6897 234.998 14.0055C235.558 13.2979 235.628 12.0693 236.157 11.4006C236.709 10.7086 238.731 11.5717 239.4 10.8641C240.068 10.1487 240.045 8.46916 240.729 7.86265C241.421 7.25614 243.047 8.39918 243.747 7.82378C244.096 7.5283 244.128 6.63408 244.112 5.7632C244.096 4.88454 244.034 4.05255 244.322 3.7804C244.625 3.50047 245.03 3.37609 245.434 3.22835C245.846 3.08839 246.235 2.92509 246.499 2.59074C246.779 2.25638 246.888 1.7976 247.005 1.36216C247.083 0.911168 247.191 0.4835 247.347 0.0947137C247.409 -0.053025 247.588 -0.270736 247.821 -0.527334C248.039 -0.783933 248.311 -1.07942 248.599 -1.36713C249.128 -1.94253 249.703 -2.50238 249.96 -2.40907C250.162 -2.33909 250.356 -1.60817 250.434 -0.783946C250.457 -0.379609 250.481 0.0558217 250.465 0.421281C250.442 0.786739 250.411 1.08999 250.38 1.2455C250.341 1.50988 250.131 1.75095 249.835 1.95312C249.54 2.15529 249.19 2.34969 248.817 2.49743C248.443 2.65295 248.078 2.79287 247.782 2.94839C247.479 3.09613 247.246 3.25941 247.16 3.47713C246.818 4.33246 246.383 5.12563 245.908 5.94985C245.675 6.34641 245.916 7.06951 246.126 7.80043C246.344 8.53135 246.538 9.28563 246.258 9.68997C245.706 10.5064 243.529 10.0243 242.984 10.7941C242.448 11.5561 243.428 13.4923 242.93 14.2465C242.689 14.612 242.456 15.0397 242.246 15.4595C242.036 15.8872 241.818 16.3071 241.561 16.7503C241.056 17.6056 240.652 18.4687 240.115 19.3474C239.594 20.2027 239.337 21.2369 238.754 22.0922C238.163 22.9242 237.308 23.7096 236.647 24.4794C235.986 25.2647 234.983 25.9023 234.236 26.571C233.49 27.2242 232.362 27.4264 231.569 27.9862C230.776 28.5461 229.36 27.8385 228.559 28.3283C228.381 28.4372 228.124 28.6316 227.875 28.8027C227.618 28.9737 227.377 29.1759 227.113 29.3392C226.592 29.6735 226.032 29.969 225.449 30.1401C224.337 30.4589 223.194 29.798 222.245 29.9535C221.312 30.1323 220.231 30.3345 219.306 30.5133C218.396 30.6611 217.657 31.4309 216.747 31.5009C215.845 31.5708 214.99 33.678 214.096 33.7013C213.209 33.7324 212.315 32.4495 211.444 32.4806C210.573 32.5117 209.64 31.3687 208.777 31.4386C207.906 31.5242 207.338 33.9502 206.576 34.1135C205.798 34.269 204.461 32.5506 203.722 32.9005C203.357 33.0638 202.952 33.1882 202.68 33.2737C202.377 33.3825 202.073 33.507 201.856 33.7247C201.405 34.1757 201.661 35.2876 201.482 35.7541C201.389 35.9796 201.607 36.4618 201.871 36.905C202.182 37.4493 202.587 37.9236 202.556 38.1102C202.54 38.1491 202.517 38.188 202.486 38.2191C202.447 38.2657 202.408 38.3046 202.353 38.3357C202.252 38.4057 202.128 38.4679 201.988 38.5223C201.708 38.6234 201.358 38.6934 201 38.7556C200.293 38.88 199.562 39.0355 199.336 39.4476C198.877 40.2796 199.585 41.8348 199.126 42.6512C198.66 43.4832 197.882 44.0975 197.423 44.9062C196.949 45.7382 195.285 45.7693 194.826 46.5857C194.352 47.4255 194.95 48.9651 194.499 49.7893C194.033 50.6369 192.703 50.9479 192.26 51.7799C191.77 52.7052 193.115 54.8591 192.579 55.7533C192.042 56.6398 191.599 57.6817 191.023 58.5603C190.456 59.4312 190.059 60.4498 189.484 61.3285C188.916 62.1994 188.457 63.0936 187.905 63.98C187.345 64.8742 184.958 64.4077 184.437 65.3174C183.924 66.2272 184.46 67.829 183.939 68.7465C183.426 69.6641 183.022 70.6594 182.493 71.5769C181.956 72.4866 181.77 73.6297 181.217 74.5472C180.665 75.4648 180.183 76.429 179.631 77.3387C179.087 78.2563 177.617 78.5439 177.042 79.4537C176.754 79.9125 176.63 80.4646 176.521 81.0244C176.396 81.5843 176.264 82.1596 175.976 82.6495C175.689 83.1316 175.525 83.6681 175.362 84.2124C175.276 84.4846 175.206 84.7489 175.098 85.0211C174.981 85.2932 174.849 85.5654 174.685 85.8298C174.359 86.3508 173.48 86.5762 172.625 86.7706C172.22 86.8562 171.707 86.9962 171.295 87.1517C170.875 87.3072 170.533 87.4938 170.323 87.7659C170.113 88.0381 169.926 88.3258 169.755 88.629C169.592 88.909 169.429 89.1811 169.273 89.4533C168.954 89.9976 168.628 90.5652 168.146 90.9851C167.663 91.4128 167.5 92.2758 167.282 93.0923C167.065 93.9087 166.816 94.7563 166.256 95.114C165.704 95.4561 164.988 95.5494 164.296 95.5727C163.597 95.5961 162.92 95.6272 162.376 95.9071C161.831 96.1792 161.256 96.397 160.68 96.5758C160.105 96.7469 159.537 96.9335 159.001 97.159C158.464 97.3767 158.052 97.9366 157.624 98.4731C157.204 99.0019 156.769 99.5384 156.225 99.7406C155.688 99.9272 154.957 99.4995 154.249 99.0563C153.55 98.6053 152.865 98.1465 152.352 98.302C151.839 98.442 151.349 98.6364 150.859 98.8308C150.369 99.0096 149.887 99.1962 149.381 99.3206C148.378 99.5617 147.352 99.6395 146.372 99.8572C145.4 100.075 144.545 100.868 143.604 101.078L140.828 101.716C139.918 101.926 139.016 102.081 138.145 102.307C137.702 102.415 137.282 102.555 136.869 102.703C136.45 102.851 136.037 102.991 135.625 103.107C134.785 103.341 134.023 103.247 133.184 103.38C132.344 103.52 131.737 105.65 131.014 105.759C130.26 105.844 129.225 103.916 128.417 104.072C128.036 104.165 127.678 104.46 127.351 104.779C127.032 105.106 126.714 105.425 126.371 105.565C126.029 105.72 125.78 106.078 125.586 106.467C125.392 106.863 125.205 107.252 124.925 107.47C124.676 107.695 124.435 107.921 124.194 108.138C123.953 108.348 123.72 108.667 123.471 108.931C123.347 109.071 123.253 109.242 123.175 109.414C123.098 109.592 123.043 109.818 122.981 110.02C122.864 110.44 122.756 110.852 122.53 111.163C122.087 111.855 120.532 111.7 120.065 112.5C119.832 112.889 119.808 113.418 119.793 113.955C119.777 114.507 119.762 115.043 119.528 115.432C119.07 116.171 116.892 115.797 116.371 116.591C115.866 117.415 116.371 118.962 115.881 119.779C115.407 120.618 113.821 120.657 113.338 121.536C112.856 122.407 114.365 124.615 113.906 125.486C113.44 126.349 111.946 126.543 111.488 127.438C111.021 128.324 111.628 129.887 111.177 130.781C110.726 131.675 110.096 132.445 109.66 133.363C109.225 134.273 108.276 134.895 107.841 135.828C107.413 136.753 105.586 136.916 105.158 137.857C104.73 138.798 104.38 139.77 103.945 140.711C103.509 141.652 104.995 143.712 104.551 144.653C104.108 145.586 102.249 145.687 101.791 146.62C101.324 147.553 101.884 149.186 101.41 150.112C100.928 151.037 99.349 151.216 98.8668 152.141C98.3847 153.066 98.758 154.598 98.2758 155.539C97.7859 156.48 96.0674 156.612 95.6008 157.561C95.1187 158.509 96.324 160.656 95.7952 161.596C95.2586 162.529 94.9009 163.665 94.3333 164.582C93.7656 165.508 90.935 164.427 90.3596 165.321C90.0719 165.772 90.0952 166.495 90.1107 167.226C90.1185 167.957 90.1263 168.696 89.8308 169.154C89.2553 170.08 87.8634 170.367 87.2957 171.285C86.7359 172.125 87.6768 174.092 87.0936 175.01C86.8136 175.468 86.3393 175.787 85.8805 176.106C85.3983 176.425 84.9162 176.736 84.6207 177.194C84.3174 177.669 84.1463 178.151 83.9753 178.633C83.8042 179.115 83.6331 179.597 83.3532 180.002C82.8011 180.802 81.6657 181.129 81.0981 181.883C80.5304 182.645 80.3282 183.749 79.7294 184.441C79.1384 185.141 78.6874 186.02 78.0964 186.689C77.9409 186.86 77.7387 186.969 77.5132 187.054C77.3965 187.093 77.2799 187.124 77.1555 187.155C77.0933 187.171 77.0311 187.186 76.9689 187.194L76.8289 187.171C76.6578 187.14 76.4867 187.116 76.339 187.132C76.1835 187.147 76.0901 187.155 75.9657 187.326C75.5147 187.956 74.9159 188.648 74.426 189.418C73.9361 190.195 73.0963 190.732 72.6219 191.541C72.1476 192.349 71.6576 193.244 71.2144 194.083C70.7712 194.931 69.978 195.817 69.5969 196.712C69.2237 197.598 69.3326 198.803 68.9904 199.713C68.656 200.623 68.4383 201.579 68.1039 202.489C67.7617 203.399 66.8208 203.959 66.4398 204.845C66.0587 205.739 67.7384 207.761 67.2874 208.608C66.8286 209.456 66.4009 210.389 65.911 211.213C65.4289 212.045 63.6092 211.812 63.1193 212.636C62.6294 213.46 62.7927 214.821 62.3028 215.645C61.8129 216.47 60.872 216.936 60.3898 217.768C59.9077 218.6 58.7102 218.958 58.2514 219.805C57.7926 220.653 58.4458 222.301 57.9481 223.126C57.4504 223.95 57.1549 224.953 56.6339 225.769C56.1207 226.578 54.4255 226.283 53.9044 227.083C53.3834 227.884 53.9433 229.719 53.4145 230.52C52.8857 231.321 51.626 231.453 51.105 232.254C50.584 233.055 50.063 233.755 49.5031 234.517C48.9432 235.279 48.4066 236.002 47.8156 236.725C47.2168 237.449 46.3303 237.69 45.7082 238.374C45.1095 239.05 45.3894 241.22 44.6818 241.904C44.3396 242.238 44.083 242.72 43.7875 243.21C43.6398 243.459 43.4765 243.7 43.2976 243.934C43.1032 244.175 42.901 244.369 42.6755 244.501C41.9523 244.882 41.9368 243.825 41.7579 243.319C41.7035 243.14 41.5168 243.288 41.3691 243.428C41.2136 243.545 41.1047 243.669 41.2758 243.537C41.579 243.654 41.6801 243.794 41.7968 243.902C41.9057 244.003 42.0456 244.089 42.3878 243.941L42.3411 244.011Z" fill="#FFFBDF"/>
<path d="M131.939 74.7027C131.511 75.2237 132.616 77.3154 132.211 77.6808C131.706 78.1241 130.516 77.5253 130.049 77.813C129.513 78.1396 129.07 78.5206 128.541 78.7772C128.02 79.026 127.794 79.8191 127.25 80.1379C126.776 80.4101 126.558 80.9777 126.045 81.4054C125.625 81.7553 123.774 80.4723 123.323 80.9622C122.817 81.522 123.3 83.015 122.926 83.4504C122.421 84.0491 121.387 83.9014 121.037 84.3446C120.617 84.8889 119.754 84.8656 119.326 85.3943C118.976 85.8376 119.536 87.2916 118.999 87.867C118.611 88.2791 118.027 88.5746 117.475 89.0956C116.923 89.6243 116.985 90.744 116.565 91.1328C115.99 91.6693 115.57 92.1281 115.135 92.5091C114.621 92.9756 113.268 92.167 112.763 92.6258C112.351 93.0068 113.074 95.0829 112.475 95.5883C112.04 95.9615 110.204 94.4452 109.629 94.9351C109.046 95.425 109.691 97.5944 109.232 97.921C108.595 98.3565 107.459 97.5711 106.969 97.8277C106.378 98.131 105.445 97.5322 104.862 97.8277C104.38 98.0688 105.228 101.024 104.582 101.42C104.116 101.716 103.112 101.125 102.521 101.568C101.915 102.027 100.367 100.891 99.963 101.28C99.4187 101.801 100.842 104.468 100.5 104.95C100.095 105.518 98.1978 104.367 97.7935 104.919C97.4513 105.386 98.26 107.407 97.7079 107.913C97.3036 108.286 95.4372 106.482 94.8385 106.894C94.2397 107.314 95.0484 110.191 94.5741 110.432C93.9286 110.767 93.0344 110.448 92.5289 110.611C91.9224 110.798 91.4558 111.148 90.8492 111.334C90.3438 111.49 89.2629 110.277 88.6252 110.603C88.1664 110.844 87.0467 110.137 86.4557 110.541C85.8647 110.945 86.0202 112.454 85.6236 112.796C85.0793 113.263 84.4649 113.465 84.1072 113.869C83.6795 114.351 83.9361 115.564 83.5162 116.054C83.1663 116.458 81.7044 115.339 81.1678 115.813C80.779 116.155 80.8412 117.213 80.2813 117.617C79.7214 118.021 79.3948 118.566 78.9749 118.83C78.3839 119.188 78.5705 120.844 78.1117 121.046C77.5596 121.287 75.9888 119.172 75.4445 119.429C74.9857 119.646 75.2967 121.474 74.7213 121.839C74.3014 122.111 73.8814 122.508 73.3371 122.943C72.7928 123.379 72.0618 123.34 71.6497 123.643C71.082 124.063 70.5376 124.25 70.1099 124.537C69.5967 124.879 69.5423 125.828 69.029 126.17C68.6091 126.45 67.155 125.222 66.5951 125.657C66.1907 125.968 66.3618 127.298 65.833 127.741C65.2887 128.2 64.1222 127.772 63.7723 128.176C63.2979 128.728 64.4177 130.75 64.1455 131.232C63.8189 131.792 61.8982 130.859 61.5638 131.434C61.2917 131.924 62.9869 134.459 62.5281 135.003C62.1859 135.4 60.1408 133.86 59.6198 134.335C59.1065 134.801 58.7333 135.237 58.3445 135.571C57.8001 136.022 57.5591 136.597 57.1547 136.901C56.6648 137.266 55.8716 137.064 55.3817 137.437C54.9696 137.74 56.206 140.408 55.685 140.866C55.3117 141.201 53.251 139.506 52.7533 139.988C52.2479 140.47 51.9446 140.975 51.5636 141.31C51.0348 141.776 51.2058 142.919 50.7937 143.23C50.3038 143.596 50.0394 144.155 49.5495 144.521C49.1451 144.832 49.4251 146.045 48.9041 146.519C48.5308 146.861 46.5401 145.376 46.058 145.889C45.5758 146.403 46.1513 147.95 45.7858 148.308C45.2803 148.805 44.2461 148.44 43.8651 148.782C43.414 149.202 42.512 148.961 42.061 149.381C41.6799 149.731 42.0687 151.076 41.5866 151.581C41.2367 151.954 40.7779 152.328 40.3191 152.849C39.8525 153.377 40.1558 154.474 39.8525 154.902C39.4403 155.492 39.0515 155.835 38.8027 156.309C38.4994 156.869 37.2941 156.667 36.9986 157.242C36.7575 157.724 36.3843 158.082 35.9877 158.673C35.6922 159.1 35.1245 159.303 34.689 159.855C34.2536 160.407 35.6066 162.459 35.3034 162.864C35.1945 163.004 34.9845 163.035 34.7201 163.019C34.448 163.019 34.1214 162.957 33.8026 162.895C33.1649 162.763 32.5428 162.607 32.3795 162.833C31.9907 163.385 32.9938 165.064 32.605 165.609C32.2862 166.06 32.4106 167.016 31.9596 167.599C31.633 168.027 30.5832 167.879 30.1399 168.439C29.6967 168.999 28.2192 168.338 27.877 168.719C27.4027 169.248 27.7371 170.352 27.3716 170.702C27.2083 170.857 27.0916 171.059 26.9983 171.269L26.8584 171.588L26.7884 171.744L26.7495 171.821C26.7184 171.868 26.6873 171.923 26.6562 171.969C26.5084 172.195 26.3373 172.405 26.1507 172.599C25.8241 172.941 25.4664 173.244 25.1942 173.462C25.0465 173.587 24.8987 173.711 24.7354 173.843C24.5955 173.96 24.4477 174.084 24.3 174.224C23.8645 174.644 23.5923 175.305 23.0635 175.849C22.527 176.401 21.7338 176.417 21.3527 176.813C20.824 177.366 19.6653 176.922 19.292 177.319C18.841 177.801 18.9965 178.843 18.5377 179.317C18.1645 179.706 18.0945 180.546 17.5735 181.067C17.1924 181.448 16.9825 182.155 16.4615 182.669C15.9405 183.182 16.1349 184.504 15.7305 184.854C15.1706 185.336 13.1332 183.454 12.7055 183.765C12.1845 184.138 11.9979 184.877 11.4691 185.25C11.0336 185.561 10.8859 186.416 10.3338 186.891C9.92941 187.241 8.86407 186.883 8.34306 187.381C7.81427 187.894 7.56543 188.687 7.22327 189.122C6.75669 189.713 8.05532 191.657 7.77538 192.163C7.44878 192.761 6.65561 192.894 6.32901 193.492C6.05684 193.998 4.09721 192.964 3.63064 193.547C3.28848 193.974 4.3305 196.074 3.79393 196.579C3.26515 197.077 2.923 197.629 2.53418 198.002C1.99762 198.508 1.78764 199.176 1.39883 199.55C0.932255 199.993 -0.607441 198.951 -1.07402 199.402C-1.45506 199.767 -1.46283 200.708 -1.9994 201.214C-2.38821 201.579 -3.81127 200.732 -4.33228 201.229C-4.86106 201.727 -4.05232 203.834 -4.46446 204.168C-5.03991 204.627 -5.58424 204.93 -6.04304 205.218C-6.58738 205.56 -6.82068 206.268 -7.36502 206.61C-7.81604 206.898 -8.36815 206.991 -8.9436 207.45C-9.37129 207.769 -10.2811 207.52 -10.8177 208.002C-11.4087 208.531 -12.1474 208.585 -12.4818 208.927C-13.135 209.596 -13.1972 210.272 -13.4616 210.677C-13.7338 211.073 -13.6871 211.835 -14.3481 212.504C-14.6903 212.846 -15.88 212.294 -16.4788 212.807C-16.9998 213.258 -16.2922 215.101 -16.6965 215.544C-17.1553 216.05 -17.5364 216.446 -17.8941 216.944C-18.2907 217.488 -18.1896 218.367 -18.5551 218.911C-18.9205 219.448 -20.9268 218.507 -21.3234 219.043C-21.6967 219.541 -21.0668 221.151 -21.5489 221.648C-21.9688 222.084 -23.3375 221.407 -23.8896 221.85C-24.3639 222.231 -24.7683 222.169 -25.4215 222.294C-25.717 222.356 -25.9892 222.916 -26.2925 223.476C-26.6424 224.004 -26.9845 224.541 -27.3345 224.502C-27.9877 224.432 -28.4931 222.962 -29.1697 222.768C-29.8229 222.581 -30.3828 222.169 -30.9738 221.866C-31.3081 221.726 -31.4326 221.329 -31.5492 220.933C-31.6736 220.536 -31.8136 220.132 -32.078 219.938C-32.3735 219.735 -32.8556 219.813 -33.3144 219.86C-33.4544 219.875 -33.5944 219.891 -33.7266 219.906C-33.8821 219.922 -34.0299 219.93 -34.1543 219.93C-34.4109 219.93 -34.6053 219.875 -34.7064 219.743C-34.9163 219.448 -34.6208 218.927 -34.4109 218.445C-34.2865 218.204 -34.2476 217.97 -34.2165 217.753C-34.1931 217.543 -34.2009 217.348 -34.2709 217.208C-34.4109 216.921 -34.823 216.812 -35.1652 216.602C-35.5073 216.392 -35.7328 216.12 -35.7873 215.762C-35.8184 215.599 -35.8184 215.451 -35.8106 215.311C-35.8106 215.249 -35.8106 215.187 -35.8028 215.109V215.016C-35.8028 215.016 -35.7717 214.93 -35.7562 214.891C-35.6318 214.549 -35.5151 214.215 -35.6006 213.888C-35.7562 213.25 -35.935 212.698 -36.0361 212.037C-36.145 211.377 -37.327 210.537 -37.3659 209.907C-37.3892 209.58 -37.3892 209.246 -37.3814 208.935C-37.3814 208.616 -37.327 208.266 -37.3037 207.971C-37.2803 207.636 -37.3425 207.216 -37.397 206.812C-37.4514 206.408 -37.4981 206.011 -37.397 205.755C-37.1792 205.171 -36.7593 204.347 -36.3472 203.974C-35.9039 203.577 -35.3907 203.235 -34.9786 202.955C-34.4886 202.621 -33.8199 202.536 -33.3689 202.333C-32.8556 202.1 -32.288 201.952 -31.7825 201.773C-31.2848 201.587 -30.1339 202.924 -29.6051 202.676C-29.1463 202.458 -29.3407 200.903 -28.8353 200.553C-28.4231 200.265 -27.1323 201.175 -26.6657 200.747C-26.168 200.281 -25.7948 200.071 -25.3904 199.822C-24.7994 199.464 -24.885 198.041 -24.4106 197.94C-23.8274 197.823 -23.6174 196.727 -23.0342 196.603C-22.5598 196.502 -22.0155 197.077 -21.4245 196.712C-21.0201 196.463 -20.0948 196.929 -19.5893 196.455C-19.0683 195.957 -19.0916 194.978 -18.7339 194.589C-18.2285 194.06 -17.3342 194.2 -16.9998 193.772C-16.6032 193.259 -17.132 191.883 -16.7354 191.37C-16.4088 190.942 -16.1055 190.289 -15.6079 189.76C-15.2424 189.371 -14.7291 188.967 -14.2081 188.477C-13.6871 187.987 -12.5907 188.423 -12.2252 188.042C-11.712 187.521 -10.5066 188.01 -10.1567 187.606C-9.729 187.124 -10.9887 184.846 -10.5611 184.364C-10.2111 183.967 -9.51126 183.827 -9.0058 183.306C-8.64031 182.925 -8.50813 182.085 -7.99489 181.596C-7.47388 181.106 -5.5376 182.606 -5.15656 182.241C-4.62777 181.743 -5.3354 179.869 -4.94658 179.519C-4.48001 179.092 -3.18916 179.862 -2.72258 179.434C-2.33377 179.076 -3.22805 176.984 -2.70704 176.487C-2.326 176.121 -1.37728 176.37 -0.864044 175.873C-0.350811 175.375 1.14222 176.3 1.52325 175.935C2.05204 175.437 1.05668 173.174 1.45327 172.825C1.92762 172.405 2.58083 172.358 3.05518 171.93C3.44399 171.58 3.52953 170.779 4.05054 170.282C4.43158 169.924 5.8391 170.748 6.35233 170.243C6.86557 169.738 7.4099 169.473 7.80649 169.131C8.3586 168.665 7.90759 166.923 8.34306 166.627C8.86407 166.277 9.68834 166.542 10.2016 166.184C10.6293 165.889 11.7335 166.487 12.2701 166.021C12.6589 165.679 13.0943 165.235 13.5765 164.73C14.0586 164.225 15.1395 164.528 15.4661 164.139C15.6994 163.875 15.6994 163.424 15.645 163.012C15.6139 162.584 15.505 162.242 15.5594 162.117C15.5983 162.04 15.6838 162.016 15.7849 162.001C15.8005 162.001 15.8238 162.001 15.8394 162.001L15.9405 161.962L16.1427 161.884L16.5626 161.744C16.8347 161.643 17.0758 161.526 17.2158 161.301C17.5113 160.819 16.4926 159.186 16.9358 158.556C17.2624 158.097 18.5066 158.393 18.9654 157.81C19.4242 157.219 20.0852 156.9 20.3885 156.441C20.8006 155.811 19.051 153.743 19.292 153.245C19.5798 152.654 22.0837 153.704 22.3637 153.113C22.4803 152.864 22.1071 152.242 21.7571 151.605C21.4072 150.967 21.0572 150.329 21.2828 149.987C21.5938 149.505 22.5503 149.404 23.0169 148.805C23.499 148.191 24.8832 148.751 25.2875 148.362C25.8319 147.833 25.1709 145.905 25.6453 145.586C26.2051 145.213 27.9315 146.791 28.4836 146.434C28.9579 146.13 29.2146 145.26 29.7745 144.746C30.1788 144.373 29.5489 142.725 30.0544 142.142C30.5598 141.566 31.633 141.761 31.9518 141.286C32.3873 140.641 32.2551 139.778 32.5117 139.241C32.8072 138.604 34.2458 138.845 34.5413 138.215C34.7902 137.686 34.0514 136.333 34.5024 135.703C34.8368 135.244 35.5289 135.027 36.0499 134.475C36.5709 133.915 37.3485 133.938 37.784 133.588C38.375 133.122 38.8493 132.896 39.3393 132.632C39.9225 132.329 40.288 131.761 40.8712 131.458C41.3689 131.209 41.5166 130.284 42.1154 129.833C42.5509 129.498 42.4964 128.487 43.033 127.959C43.5695 127.438 44.3783 127.484 44.7515 127.08C45.2648 126.52 45.6536 126.092 46.0035 125.657C46.4234 125.136 46.9289 124.825 47.3488 124.304C47.6988 123.876 48.2431 123.558 48.7641 123.021C49.1451 122.632 48.7563 121.085 49.3007 120.579C49.8528 120.074 51.3614 121.038 51.7502 120.649C52.279 120.113 52.9866 119.95 53.3365 119.514C53.7565 118.993 53.3988 117.741 53.8264 117.22C54.1764 116.793 54.2153 115.828 54.744 115.3C55.1329 114.911 56.3693 115.51 56.9214 115.028C57.4891 114.545 58.1267 114.468 58.5855 114.18C59.2154 113.791 59.8142 113.908 60.3352 113.721C60.9417 113.504 60.8795 111.77 61.4938 111.552C62.0148 111.365 63.158 112.392 63.7801 112.011C64.2466 111.738 64.8299 111.381 65.3975 110.914C65.9652 110.455 65.8952 109.25 66.2996 108.885C66.8672 108.379 68.2747 109.165 68.648 108.76C69.099 108.27 67.6915 105.557 68.1659 105.075C68.5547 104.67 69.6511 105.036 70.2266 104.538C70.6465 104.173 71.0664 103.644 71.6652 103.216C72.264 102.781 73.1738 103.1 73.5937 102.758C74.1769 102.299 74.1925 101.272 74.5968 100.899C75.079 100.456 75.1645 99.5617 75.6467 99.1262C76.051 98.7686 76.6031 98.4342 77.1864 97.9832C77.6141 97.6567 79.3948 99.4917 79.978 99.0952C80.569 98.6908 81.0667 98.4886 81.5255 98.2165C82.1476 97.851 81.7277 95.6739 82.202 95.4639C82.7697 95.2073 83.454 95.3861 84.0295 95.1295C84.5038 94.9196 84.6438 93.9632 85.2581 93.6055C85.7014 93.3411 86.4634 93.5588 87.0389 93.1623C87.6143 92.7657 88.5864 93.3178 89.0296 93.0534C89.6361 92.6879 90.3049 92.859 90.7637 92.6258C91.3158 92.3458 91.4714 91.405 92.0235 91.125C92.4745 90.8918 92.84 90.3475 93.431 89.9743C93.8587 89.7021 94.4574 89.5544 95.0096 89.1422C95.5772 88.7224 95.0718 87.0039 95.4373 86.6307C95.9427 86.1252 97.7001 87.346 98.0034 86.8717C98.3533 86.3196 96.9692 84.1191 97.3113 83.5748C97.6068 83.116 99.1154 83.8392 99.5898 83.3182C99.9397 82.9295 99.4809 81.2499 99.9941 80.8144C100.5 80.3868 102.171 81.833 102.568 81.522C103.105 81.0943 103.867 81.281 104.256 80.97C104.73 80.5967 104.885 79.9047 105.352 79.5314C105.741 79.2359 106.581 79.3915 107.102 78.9327C107.483 78.5984 106.682 76.6078 107.164 76.1412C107.654 75.6747 109.295 76.8333 109.668 76.4834C110.189 76.009 109.466 74.1895 109.847 73.8707C110.305 73.4819 110.383 72.7121 110.842 72.3156C111.223 71.989 111.721 71.7635 112.211 71.2659C112.568 70.916 113.618 71.2348 114.085 70.7216C114.536 70.2239 113.447 68.5832 113.673 68.0389C113.937 67.4247 114.388 67.238 114.474 66.5849C114.567 65.9006 115.236 65.5118 115.259 64.812C115.282 64.12 116.628 63.9567 116.713 63.2646C116.791 62.6115 116.293 61.8494 116.534 61.2196C116.744 60.6675 116.215 59.4857 116.635 58.9647C117.009 58.5059 118.16 59.3224 118.82 59.2135C119.396 59.1202 119.746 57.8527 120.469 57.9694C121.115 58.0705 121.884 58.3037 122.592 58.537C123.261 58.7547 124.069 58.6847 124.746 58.9802C125.423 59.2757 125.671 61.2585 126.309 61.6162C126.993 61.9972 127.779 61.865 128.37 62.2694C129.062 62.7437 130.034 62.6503 130.539 63.1169C131.091 63.6301 132.351 63.8789 132.81 64.5399C133.245 65.1697 133.051 66.3827 133.378 67.0981C133.697 67.8056 132.849 68.7465 133.036 69.4852C133.222 70.2394 132.709 70.7293 132.732 71.4525C132.756 72.2067 135.205 73.6841 135.034 74.3528C134.855 75.0449 132.421 74.1973 132.009 74.7105L131.939 74.7027Z" fill="#FFFBDF"/>
</g>
</svg>
