<svg width="167" height="163" viewBox="0 0 167 163" fill="none" xmlns="http://www.w3.org/2000/svg">
<path d="M166.411 78.4803L165.478 85.7973L164.646 93.1142L163.814 100.431L163.005 107.717L161.03 114.707L158.238 121.449L156.178 128.463L153.347 135.119L147.592 139.574L141.729 144.006L135.563 148.011L129.552 152.233L124.722 155.312L119.917 158.399L114.31 159.496L108.633 160.125L103.003 161.121L97.4589 162.715L90.5924 161.533L83.7493 160.491L76.8907 159.48L69.962 158.967L63.0878 157.917L56.6724 155.289L50.047 153.322L43.5849 150.872L37.014 148.726L30.5597 146.199L26.3993 140.733L22.239 135.29L18.4753 129.543L14.4239 123.999L9.93698 118.774L7.20752 114.186L4.53249 109.575L4.02703 104.28L3.19497 99.0393L1.67082 93.9462L0.81543 88.7443L1.28977 81.5129L2.55731 74.3203L3.576 67.0967L4.60247 59.8964L6.49988 52.8982L8.82498 46.0089L10.388 38.8786L12.9308 32.1137L18.0399 27.0751L23.5999 22.4563L29.0277 17.6742L34.5644 12.9932L40.6999 8.98873L47.0998 5.48188L54.2539 4.15223L61.377 2.51156L68.6089 1.39185L75.732 0L81.9608 1.15081L88.244 2.27829L94.5972 3.09474L100.818 4.611L107.14 5.61407L113.214 7.58133L119.209 9.7663L125.197 12.0057L131.247 14.0663L137.071 16.5312L141.333 21.0566L145.648 25.6443L149.785 30.3797L153.915 35.1462L157.717 40.1383L160.968 45.9078L163.441 52.074L163.915 58.7222L163.682 65.4016L165.361 71.8787L166.411 78.4803Z" fill="#FFB32C"/>
<path d="M96.2071 70.0905C95.7639 70.106 95.2351 70.1293 95.1962 70.3704C95.1418 70.7592 95.1029 71.1557 95.2506 71.5212C95.4917 72.0266 95.0173 72.6176 95.3517 73.1152C95.4839 73.3018 94.8463 73.1463 94.6752 73.2474C94.3952 73.4029 94.4108 73.5895 94.7841 73.574C95.9349 73.5118 95.5228 73.815 95.1962 74.1261C95.1184 74.2038 95.0329 74.2738 94.9551 74.3516C94.8696 74.3127 94.7607 74.2738 94.6985 74.2271C94.6052 74.1494 94.6052 73.9861 94.4652 73.9939C93.8664 74.0172 94.2242 74.2116 94.022 74.3127C92.7389 74.9658 93.361 75.4402 93.3377 75.9767C93.3377 76.0855 93.3688 76.2022 93.2521 76.3188C93.081 76.4899 93.3532 76.3033 93.0499 76.3188C92.7544 76.3344 92.3345 76.3033 92.4823 76.1089C93.0577 75.378 91.9924 75.2224 91.5958 74.8025C91.5102 74.717 91.3314 74.6548 91.1914 74.5848C91.0826 74.7015 91.0048 74.8181 90.8648 74.9347C90.6782 75.098 90.476 75.2613 90.2349 75.4168C90.1416 75.4713 89.8772 75.5179 89.7528 75.5101C89.6362 75.5024 89.4962 75.378 89.5351 75.3468C90.3982 74.7403 88.9596 74.5693 89.3018 74.1261C89.7839 73.5584 88.7808 73.4807 88.6641 73.1308C88.5164 72.6953 88.3764 72.2599 88.3064 71.8167C88.2286 71.3812 88.1975 70.9302 88.2831 70.487C88.4464 69.6706 88.182 68.8852 88.5241 68.0766C88.8274 67.3456 88.1587 66.6303 87.8165 65.9382C87.3888 65.0829 87.5832 64.2509 87.3888 63.4111C87.2488 62.7735 87.7854 62.1048 86.9222 61.4905C86.7823 61.3894 86.9067 61.1795 87.0622 61.0629C87.28 60.8918 87.4277 60.7207 87.4121 60.5263C87.2955 59.0178 88.3142 57.5482 88.0031 56.1408C87.972 55.9931 87.9409 55.8531 87.9487 55.7054C87.9487 55.5732 87.9876 55.4488 88.0965 55.3322C88.3064 55.0989 88.7963 54.8812 89.8072 54.749C89.9394 54.7334 90.0405 54.5779 90.0561 54.4846C90.0949 54.2824 90.3905 54.1658 90.9115 54.1036C91.5491 54.0258 91.6036 54.2436 91.5491 54.4302C91.3936 54.9278 92.98 54.9589 92.77 55.5576C92.5989 55.9698 92.9955 56.4441 93.8742 56.7473C94.1619 56.8484 94.092 56.8951 93.9675 56.9962C93.1588 57.6493 93.3688 58.3414 93.9675 58.9479C94.4885 59.4688 93.8276 60.0131 94.6285 60.4719C93.2677 60.8607 94.8151 61.265 94.6285 61.6149C94.3952 62.0581 94.5819 62.4625 94.6596 62.8824C94.7063 63.139 95.0407 63.3567 94.1853 63.5122C93.6254 63.6133 94.0609 63.6677 94.3486 63.7533C94.994 63.9554 95.1495 64.2898 95.0018 64.5853C94.5585 65.4639 94.9162 66.3192 94.9007 67.1746C94.9007 67.5867 95.2351 67.9677 96.0516 68.2165V68.4265C94.2864 68.4887 95.064 68.9863 95.0407 69.2896C95.0173 69.5773 94.5819 70.1138 96.176 69.8805L96.1993 70.0827L96.2071 70.0905Z" fill="#555555"/>
<path d="M85.4213 117.227C85.7479 116.885 86.1212 116.473 84.6748 115.781C82.3575 114.637 80.1179 113.222 77.995 111.784C77.6139 111.519 77.2407 111.247 76.8752 110.967C76.5175 110.68 76.1831 110.369 75.8409 110.058C75.1488 109.451 74.5501 108.775 73.9358 108.106C73.6169 107.779 73.337 107.422 73.0492 107.072C72.7537 106.722 72.466 106.38 72.1705 106.03C71.6184 105.307 71.0196 104.615 70.4286 103.899C69.5344 102.787 71.0508 103.915 70.9497 103.433C70.8019 102.663 70.1021 101.683 69.6355 101.574C68.8812 101.434 68.3913 100.952 68.0258 100.307C67.6836 99.6614 67.5048 98.845 67.287 98.0441C67.1782 97.6631 67.1315 97.2821 67.0538 96.9011C67.2948 97.2199 67.5203 97.5309 67.7769 97.8653C68.1346 98.3785 68.609 99.3271 68.7956 99.3893C69.6199 99.6692 68.5468 98.3318 68.5701 97.9119C68.5935 97.251 68.5313 96.5667 68.3757 95.8669C68.2202 95.1671 67.9714 94.4673 67.7381 93.7286C67.2171 92.2745 66.6105 90.7349 66.2373 89.2342C66.0973 88.6277 65.8873 87.9123 65.9029 87.438C65.9184 86.7304 65.7784 87.368 66.1828 87.7102C66.5794 88.0368 67.1782 88.6899 67.217 89.5375C67.2948 90.3384 67.4581 91.0771 67.6836 91.7535C67.9091 92.43 68.2435 93.0365 68.5701 93.6197C68.889 94.2107 69.2933 94.7394 69.6744 95.2759C69.861 95.5403 70.0554 95.8125 70.242 96.0768C70.4364 96.3412 70.6308 96.6056 70.8252 96.8777C71.1596 97.3443 71.5251 97.7253 71.8984 98.1219C71.7584 97.632 71.6184 97.1032 71.5406 96.6445C71.4862 96.3179 71.4473 95.9913 71.4085 95.6881C71.3929 95.3693 71.3851 95.066 71.4085 94.7939C71.424 94.5839 71.6962 94.5295 71.875 94.6461C72.0539 94.7627 72.4427 95.3459 72.4583 95.447C72.4816 96.0069 72.6449 96.5201 72.8782 96.9866C73.1037 97.4609 73.4614 97.8575 73.788 98.2463C74.4412 99.0472 75.2266 99.6692 75.5377 100.525C76.0276 101.598 76.6497 102.251 77.334 102.702C77.6684 102.935 77.995 103.153 78.3293 103.355C78.6637 103.557 78.9903 103.775 79.2936 104.055C82.443 106.854 86.1678 108.93 90.0482 110.509C91.8523 111.247 93.773 111.737 95.7249 112.103C97.6767 112.476 99.6752 112.678 101.697 112.935C103.517 113.176 105.43 113.012 107.296 112.709C109.162 112.406 110.99 111.885 112.724 111.434C117.024 110.229 121.262 109.226 125.306 107.476C126.861 106.823 128.479 106.224 130.042 105.532C131.597 104.817 133.09 104 134.303 102.849C134.7 102.484 135.726 102.064 136.364 101.862C137.281 101.598 138.113 101.248 139 100.688C140.695 99.5837 142.375 98.4873 144.031 97.3521C145.672 96.209 147.282 95.0271 148.829 93.7675C151.901 91.2559 154.739 88.3867 156.722 85.0509C157.554 83.6746 158.238 82.2205 158.954 81.0853C159.685 79.9578 160.416 79.118 161.528 78.9236C161.598 78.9081 161.73 78.6903 161.846 78.4026C161.948 78.1149 162.056 77.7573 162.119 77.4929C162.36 76.2488 162.679 75.8833 163.207 76.0155C163.822 76.171 163.767 77.3996 163.464 78.3638C163.075 79.6934 163.137 80.5876 163.153 81.5751C163.153 82.5471 163.091 83.6046 162.251 85.012C161.014 87.0337 159.77 89.483 159.374 91.4036C159.241 92.0335 159 92.2045 158.534 92.5855C155.47 95.0116 152.733 97.8886 150.392 100.563C149.894 101.147 149.327 101.668 148.72 102.157C148.129 102.655 147.491 103.098 146.869 103.549C145.625 104.444 144.42 105.307 143.502 106.364C142.818 106.411 142.227 106.582 141.698 106.846C141.169 107.111 140.711 107.468 140.26 107.834C139.809 108.199 139.396 108.604 138.961 108.953C138.525 109.303 138.082 109.614 137.6 109.824C135.151 110.866 133.028 112.064 130.749 113.121C129.349 113.767 128.206 114.56 127.04 114.085C126.286 113.774 126.138 114.28 125.71 114.739C125.469 114.995 125.166 115.236 124.816 115.469C124.466 115.687 124.077 115.897 123.665 116.076C122.841 116.457 121.908 116.721 121.029 116.9C115.78 117.903 110.546 119.179 105.111 119.35C102.521 119.427 99.9629 119.629 97.9255 120.244L96.518 120.096C96.7746 119.241 96.0126 118.875 94.9394 118.658C94.4029 118.564 93.7886 118.471 93.1898 118.378C92.5832 118.292 91.9923 118.207 91.5101 118.067C91.0513 117.934 90.5225 117.771 89.9937 117.592C89.465 117.406 88.9284 117.219 88.454 117.118C87.5053 116.892 86.7821 116.892 86.7744 117.756C86.3233 117.584 85.8645 117.429 85.4213 117.235V117.227Z" fill="#555555"/>
<path d="M125.656 69.7248C125.22 69.6159 124.707 69.4837 124.606 69.7248C124.435 70.1136 124.271 70.5101 124.31 70.93C124.365 71.5287 123.735 71.9875 123.89 72.5862C123.953 72.8117 123.4 72.4541 123.206 72.4929C122.887 72.5551 122.841 72.7495 123.198 72.8506C124.295 73.1772 123.82 73.3249 123.408 73.5271C123.307 73.5737 123.206 73.6126 123.113 73.6593C123.043 73.5971 122.949 73.5271 122.903 73.4571C122.841 73.356 122.887 73.1927 122.755 73.1539C122.18 72.975 122.46 73.2861 122.242 73.3172C120.834 73.5271 121.223 74.2036 121.083 74.6623C121.052 74.7557 121.068 74.8567 120.935 74.9423C120.733 75.0667 121.044 74.9423 120.741 74.9112C120.453 74.8801 120.033 74.7323 120.228 74.5768C120.593 74.2891 120.554 74.0558 120.383 73.7915C120.22 73.5349 119.917 73.2705 119.785 72.9983C119.73 72.8817 119.582 72.7651 119.473 72.6484C119.334 72.7262 119.217 72.8195 119.054 72.8817C118.82 72.975 118.579 73.0761 118.307 73.1539C118.206 73.185 117.934 73.1383 117.825 73.0839C117.716 73.0294 117.623 72.8662 117.669 72.8506C118.68 72.5318 117.374 71.9097 117.856 71.5987C118.494 71.2177 117.553 70.8134 117.553 70.4635C117.553 69.5693 117.553 68.6673 117.957 67.8819C118.323 67.151 118.284 66.3501 118.812 65.6581C119.287 65.036 118.797 64.1807 118.61 63.4575C118.377 62.5556 118.719 61.7935 118.688 60.9615C118.665 60.3239 119.302 59.7796 118.548 59.0565C118.424 58.9398 118.579 58.761 118.75 58.6755C118.991 58.5433 119.162 58.4033 119.17 58.2167C119.217 57.4858 119.52 56.8249 119.792 56.1561C120.057 55.503 120.282 54.8265 120.142 54.2511C120.111 54.1422 120.088 54.01 120.088 53.9245C120.088 53.839 120.127 53.7457 120.236 53.6601C120.43 53.5513 120.92 53.3724 121.9 53.1314C122.032 53.1003 122.117 52.9681 122.125 52.9137C122.149 52.8592 122.421 52.6648 122.872 52.416C123.424 52.105 123.587 52.3383 123.564 52.5482C123.533 52.8204 123.898 52.9059 124.264 53.0459C124.637 53.1858 124.987 53.3647 124.886 53.699C124.73 54.1733 125.103 54.6788 125.967 55.0675C126.254 55.192 126.177 55.2464 126.044 55.3552C125.197 56.0317 125.329 56.7626 125.858 57.478C126.309 58.1001 125.578 58.5977 126.301 59.1964C124.901 59.4142 126.355 60.0673 126.114 60.4172C125.811 60.8449 125.912 61.3114 125.912 61.7624C125.912 62.0424 126.192 62.3378 125.321 62.3378C124.754 62.3378 125.173 62.4778 125.43 62.6255C126.021 62.9599 126.099 63.3565 125.897 63.6286C125.275 64.4606 125.422 65.4326 125.197 66.3268C125.088 66.7544 125.313 67.2443 126.037 67.7109L125.99 67.9364C124.256 67.5398 124.862 68.2629 124.754 68.574C124.652 68.8694 124.085 69.2971 125.679 69.507L125.632 69.7325L125.656 69.7248Z" fill="#555555"/>
</svg>
