<svg width="70" height="69" viewBox="0 0 70 69" fill="none" xmlns="http://www.w3.org/2000/svg">
<path d="M57.7454 45.2102L56.2708 47.0587L54.695 48.8391L53.0745 50.5792L51.5661 52.4275L49.6636 53.8497L47.7803 55.2975L45.81 56.6272L43.9681 58.1376L41.6204 58.4496L39.2916 58.8549L36.974 59.3248L34.6451 59.7301L32.8948 59.9313L31.1385 59.9498L29.5416 59.2217L27.9111 58.5518L26.2221 58.042L24.5194 57.5727L22.9958 56.281L21.5533 54.8908L19.9674 53.6649L18.4951 52.3011L17.0839 50.8902L15.8374 49.3368L14.6249 47.7497L13.3221 46.2268L12.1614 44.5921L10.8978 43.0095L10.6126 41.0174L10.3392 39.0467L9.91006 37.1024L9.69982 35.1148L9.22531 33.1735L9.14483 31.5323L9.01749 29.8882L9.77689 28.4217L10.3247 26.8767L10.9093 25.3432L11.3639 23.7831L12.6373 22.3419L14.0891 21.0619L15.486 19.7259L16.7839 18.2843L18.26 17.0377L19.9133 16.0388L21.6317 15.1454L23.3232 14.1977L25.0231 13.2692L26.7208 12.3445L28.6418 12.1836L30.5648 11.9269L32.4892 11.7098L34.4194 11.4573L36.3575 11.3257L38.6081 11.3163L40.8582 11.1565L42.9752 11.9328L45.057 12.7954L47.2353 13.3647L49.3267 14.1602L50.9628 15.4586L52.513 16.8723L54.0082 18.356L55.605 19.7142L56.7454 21.468L58.0133 23.1356L59.126 24.9122L60.3578 26.6171L60.4186 28.7123L60.5118 30.8019L60.6085 32.8936L60.7376 34.9797L60.5883 36.7838L60.5873 38.5913L59.7393 40.186L58.9002 41.7907L58.3178 43.5048L57.7454 45.2102Z" fill="#7D4792"/>
<path d="M33.8384 27.1588C33.6886 27.1085 33.5129 27.047 33.4688 27.13C33.3981 27.2623 33.33 27.4 33.3291 27.5498C33.3316 27.7663 33.0918 27.9114 33.1225 28.1384C33.135 28.2255 32.9566 28.0731 32.8852 28.0813C32.7693 28.0943 32.7467 28.1631 32.8677 28.2139C33.2421 28.373 33.0614 28.419 32.908 28.477C32.8703 28.4895 32.8333 28.5042 32.7956 28.5167C32.7745 28.4874 32.746 28.4576 32.7351 28.4304C32.7191 28.3888 32.7433 28.3305 32.6994 28.3109C32.5054 28.2217 32.5887 28.3478 32.5096 28.3497C32.0036 28.3658 32.1124 28.6189 32.0142 28.7925C31.9936 28.8281 31.985 28.8727 31.9293 28.89C31.848 28.9154 31.9646 28.9047 31.8679 28.8546C31.7741 28.8061 31.6484 28.724 31.7281 28.6882C32.0285 28.5534 31.7307 28.3243 31.6619 28.1305C31.6467 28.0875 31.5985 28.0425 31.5672 27.9978C31.5158 28.0176 31.4707 28.0429 31.4122 28.0586C31.3275 28.0801 31.2391 28.1014 31.1389 28.1101C31.101 28.113 31.0096 28.0869 30.9733 28.064C30.9376 28.0434 30.9115 27.9865 30.9287 27.9831C31.2938 27.9275 30.8586 27.6629 31.0355 27.5805C31.2701 27.4742 30.9554 27.304 30.9641 27.1834C30.987 26.8769 31.0168 26.5649 31.1774 26.2999C31.3273 26.0534 31.3341 25.7681 31.5414 25.5376C31.7258 25.3302 31.5831 25.0137 31.5422 24.7484C31.492 24.4169 31.6422 24.1534 31.6662 23.8514C31.6846 23.6185 31.9341 23.4467 31.7086 23.1452C31.6716 23.0972 31.735 23.0368 31.7993 23.0111C31.8917 22.9731 31.9577 22.9313 31.9715 22.8612C32.091 22.3213 32.5893 21.9163 32.6689 21.3533C32.6998 21.1219 32.7641 20.8622 33.4646 21.0497C33.5111 21.0613 33.5716 21.0125 33.5928 20.9791C33.6427 20.8994 33.754 20.9142 33.9237 20.9894C34.1316 21.0808 34.1162 21.1537 34.0695 21.2048C33.9379 21.3439 34.4602 21.5731 34.3166 21.7262C34.2122 21.841 34.2872 22.0441 34.55 22.2415C34.6362 22.3065 34.6069 22.3143 34.5541 22.3333C34.2113 22.4589 34.2075 22.7193 34.348 22.9869C34.4686 23.2163 34.1911 23.3377 34.4122 23.5777C33.9126 23.5728 34.3908 23.8717 34.2939 23.9737C34.1695 24.1036 34.1871 24.2641 34.1705 24.4182C34.1597 24.5127 34.2475 24.6243 33.9439 24.5899C33.7437 24.5675 33.8861 24.6307 33.9724 24.692C34.1679 24.8314 34.1834 24.966 34.1021 25.0542C33.856 25.3155 33.879 25.658 33.7745 25.9611C33.7252 26.1058 33.7906 26.2825 34.032 26.4675L34.0104 26.5445C33.4111 26.3564 33.6061 26.6251 33.5599 26.7316C33.5147 26.833 33.3043 26.9665 33.859 27.0869L33.8374 27.1639L33.8384 27.1588Z" fill="white"/>
<path d="M22.2055 38.5505C22.3759 38.5157 22.5579 38.4838 22.2834 37.9771C22.1723 37.774 22.0598 37.5701 21.9472 37.3662L21.6273 36.7438C21.4038 36.3332 21.2082 35.9139 20.9864 35.5137C20.3694 34.3411 20.0839 33.0954 19.5777 31.8727C19.3899 31.397 19.7867 31.9458 19.8024 31.7702C19.8265 31.4911 19.6982 31.0707 19.536 30.9923C19.0361 30.7475 19.0427 30.1461 19.0143 29.5493C19.0133 29.406 19.0121 29.2664 19.0117 29.1254C19.0724 29.2575 19.1395 29.3819 19.1936 29.5254C19.2792 29.7365 19.3748 30.1114 19.4359 30.1505C19.7025 30.3216 19.4265 29.755 19.4633 29.6088C19.5905 29.138 19.5396 28.5967 19.4327 28.0269C19.3408 27.4544 19.1736 26.8574 19.1071 26.2805C19.0775 26.0483 19.026 25.775 19.0448 25.5975C19.0723 25.3355 19.0016 25.5668 19.134 25.7099C19.2615 25.8482 19.4535 26.1189 19.4425 26.4379C19.427 26.7449 19.4611 27.0253 19.5139 27.2898C19.5667 27.5543 19.6426 27.8018 19.728 28.0395C19.9138 28.5121 20.134 28.9513 20.3206 29.4225C20.4029 29.626 20.5115 29.7972 20.609 29.981C20.6 29.7855 20.5807 29.5784 20.587 29.3993C20.591 29.1486 20.6181 28.894 20.6644 28.6886C20.6823 28.6114 20.779 28.612 20.8388 28.6732C20.8944 28.7319 20.9985 28.9899 20.9916 29.0316C20.9344 29.4667 21.0858 29.8605 21.2526 30.2308C21.4306 30.5981 21.6316 30.9387 21.6642 31.2943C21.7218 31.7614 21.8792 32.0787 22.0478 32.3569C22.2218 32.6324 22.4184 32.862 22.5536 33.1684C23.2466 34.7235 24.1095 36.215 24.9555 37.6435C25.1511 37.9772 25.3735 38.294 25.5928 38.6128C25.8277 38.9178 26.0508 39.2368 26.3019 39.5302L26.6684 39.9797L27.0498 40.4168L27.2372 40.6392L27.4311 40.8539C27.5604 40.999 27.6867 41.1461 27.813 41.2932C28.2825 41.8117 28.8378 42.2769 29.4432 42.6588C29.7375 42.861 30.0554 43.0256 30.3571 43.2017C30.5125 43.2819 30.6665 43.3613 30.8205 43.4406C30.9722 43.5206 31.1233 43.5984 31.2771 43.6681C32.0248 44.0408 32.7606 44.3914 33.5114 44.6993C34.26 45.0078 35.0229 45.2751 35.8086 45.4566C36.4135 45.5889 37.0227 45.7599 37.6428 45.8591C38.2611 45.9516 38.886 45.9965 39.481 45.8624C39.6727 45.8303 40.0713 45.8683 40.3092 45.9276C40.647 45.9951 40.9751 46.0399 41.356 46.003C42.8194 45.8678 44.2631 45.6282 45.6065 45.1307C46.277 44.8823 46.9176 44.567 47.4913 44.1733C48.0692 43.7819 48.5657 43.2979 48.9321 42.7521C49.2377 42.2987 49.4561 41.8082 49.6548 41.4015C49.7147 41.301 49.7509 41.2021 49.8088 41.1118C49.8351 41.0661 49.8672 41.0237 49.8956 40.9811C49.9203 40.9383 49.9493 40.898 49.9789 40.8599C50.039 40.7823 50.1073 40.7133 50.1847 40.6552C50.2569 40.596 50.3374 40.5455 50.429 40.5089C50.4531 40.5 50.4799 40.4108 50.5015 40.2976C50.523 40.1845 50.5224 40.0471 50.5241 39.9453C50.5283 39.826 50.5238 39.7282 50.5295 39.6459C50.5344 39.565 50.5471 39.5 50.5686 39.4496C50.6093 39.3495 50.6782 39.3093 50.7718 39.312C50.9974 39.3166 51.0862 39.7694 51.0601 40.154C51.0228 40.6767 51.1021 41.0041 51.1477 41.3767C51.1683 41.5618 51.1891 41.7565 51.153 41.9773C51.1299 42.2018 51.0481 42.4457 50.8982 42.7284C50.6667 43.1294 50.4168 43.5655 50.1817 43.9759C50.0588 44.179 49.9461 44.3841 49.8399 44.5778C49.7312 44.7662 49.644 44.9633 49.566 45.1314C49.4647 45.3564 49.366 45.425 49.155 45.5334C48.4772 45.9032 47.8088 46.2633 47.1485 46.6128C46.4903 46.9616 45.8391 47.2954 45.2257 47.5997C44.9641 47.7397 44.6767 47.8288 44.3899 47.9201C44.0997 47.9943 43.8065 48.0704 43.5148 48.1208C42.9317 48.2409 42.3649 48.3228 41.8622 48.5178C41.3764 48.321 40.9316 48.363 40.4885 48.4383C40.05 48.5124 39.6155 48.6288 39.212 48.5728C38.1916 48.4385 37.251 48.3769 36.2962 48.2081C36.1493 48.1823 36.0051 48.1618 35.8682 48.1418C35.7316 48.1181 35.6025 48.0911 35.4827 48.0581C35.243 47.992 35.0415 47.8928 34.9138 47.6954C34.7467 47.441 34.5906 47.5564 34.3546 47.5895C34.0922 47.6188 33.7604 47.587 33.4223 47.5003C33.086 47.407 32.7334 47.2795 32.4318 47.113C31.5192 46.6337 30.6179 46.1514 29.7426 45.6175C28.8686 45.0844 28.0277 44.4942 27.2539 43.8305C26.8784 43.5185 26.5126 43.2027 26.1371 42.9402C25.7757 42.6631 25.3992 42.4419 25.0547 42.2639L24.702 41.8795C25.2386 41.55 24.1966 40.741 23.7715 40.1359C23.5645 39.8584 23.3404 39.4455 23.1123 39.1749C22.8942 38.8967 22.6802 38.7466 22.4981 38.9896L22.2163 38.5548L22.2055 38.5505Z" fill="white"/>
<path d="M43.9544 32.4418C43.8089 32.3807 43.637 32.3061 43.5869 32.3895C43.5044 32.5226 43.4238 32.6588 43.4101 32.8145C43.3898 33.0407 43.1354 33.1716 43.1425 33.4097C43.1443 33.5021 42.9842 33.3279 42.9111 33.3294C42.7935 33.3319 42.7636 33.4003 42.8771 33.4639C43.2321 33.6632 43.0447 33.6977 42.8855 33.7428C42.8472 33.753 42.8067 33.7639 42.767 33.7733C42.7498 33.7406 42.726 33.7059 42.7182 33.6766C42.7061 33.6316 42.7391 33.5745 42.6971 33.5484C42.514 33.437 42.5825 33.5755 42.5038 33.57C41.9987 33.5353 42.075 33.8019 41.9491 33.9672C41.9243 34.0004 41.9075 34.0459 41.8508 34.055C41.7674 34.0677 41.8837 34.074 41.7952 34.0096C41.7105 33.9454 41.5983 33.8464 41.681 33.8219C41.9991 33.7258 41.7339 33.4566 41.6862 33.2559C41.6755 33.2117 41.6343 33.1612 41.6069 33.113C41.5543 33.1283 41.5066 33.1484 41.4448 33.1565C41.3599 33.1684 41.2685 33.1784 41.1675 33.1753C41.1299 33.1745 41.0428 33.1375 41.0076 33.1096C40.9744 33.0847 40.955 33.0259 40.972 33.0262C41.3404 33.0144 40.9344 32.7057 41.1182 32.6444C41.3616 32.5623 41.0626 32.3649 41.0815 32.2465C41.1319 31.9483 41.1813 31.6419 41.3594 31.3927C41.5248 31.159 41.5506 30.877 41.7652 30.6603C41.9615 30.4653 41.8302 30.1422 41.7989 29.8767C41.7603 29.5481 41.9152 29.293 41.9441 28.9958C41.9637 28.7673 42.2159 28.6008 41.9884 28.3059C41.9515 28.2579 42.0138 28.2026 42.0767 28.1761C42.1674 28.1409 42.2334 28.0991 42.2478 28.0313C42.3542 27.5142 42.8399 27.0981 42.8474 26.5906C42.8541 26.4803 42.8483 26.3913 42.94 26.3282C42.9847 26.2969 43.0541 26.2723 43.1576 26.2578C43.2627 26.2405 43.3912 26.2519 43.5731 26.2599C43.6209 26.2627 43.6649 26.2196 43.6763 26.19C43.7023 26.1251 43.8136 26.1038 43.9977 26.1111C44.2246 26.1203 44.2285 26.2025 44.1951 26.2669C44.1508 26.3536 44.2676 26.4249 44.3743 26.5036C44.4833 26.5818 44.5897 26.6679 44.5283 26.7676C44.4385 26.9099 44.5272 27.1057 44.8054 27.2929C44.8963 27.353 44.8674 27.3668 44.8156 27.3939C44.4763 27.5596 44.486 27.8297 44.6299 28.1012C44.7545 28.3368 44.4768 28.4752 44.6991 28.7196C44.198 28.7272 44.6754 29.0275 44.5766 29.136C44.4503 29.2724 44.4647 29.4387 44.4425 29.599C44.4292 29.6979 44.5145 29.8138 44.2103 29.7771C44.0095 29.7525 44.1517 29.8193 44.2364 29.8835C44.4271 30.0278 44.4385 30.1695 44.3527 30.2589C44.0974 30.5263 44.1014 30.8787 43.9794 31.1889C43.9203 31.3374 43.9757 31.5217 44.2049 31.7244L44.178 31.804C43.5911 31.5813 43.7667 31.8672 43.7114 31.9761C43.658 32.0785 43.4385 32.2048 43.9836 32.3616L43.9567 32.4412L43.9544 32.4418Z" fill="white"/>
</svg>
