<svg width="50" height="50" viewBox="0 0 50 50" fill="none" xmlns="http://www.w3.org/2000/svg">
<path d="M0.5 22.6264L0.763454 24.8585L1.07242 27.0883L1.41012 29.3156L1.92744 31.5091L2.18611 33.7509L2.60045 35.9734L3.83389 37.8549L5.18468 39.6445L6.36304 41.5478L7.81922 43.0955L9.182 44.7424L10.6693 46.2781L12.6476 47.0713L14.6786 47.7025L16.6593 48.474L18.7238 48.9698L20.8075 49.3881L22.8648 50L24.8623 49.5816L26.8645 49.2866L28.8812 49.0931L30.8834 48.7981L32.8665 48.4015L34.7753 47.7702L36.6027 46.9069L38.4828 46.1765L40.3534 45.4196L42.279 44.786L43.4525 43.1342L44.595 41.4704L45.7398 39.8065L46.9253 38.1669L47.9935 36.4426L49.2916 33.5623L49.0809 31.9831L48.9324 30.3918L49.4234 27.2503L49.3539 25.0447L49.4305 22.8343L49.5 20.6239L49.4258 18.4111L49.3443 16.1959L49.2581 13.9855L48.1731 12.0822L47.1026 10.1596L45.9146 8.31922L44.1591 6.66989L42.4873 4.90931L40.6982 3.26723L38.3367 2.68682L36.0687 1.80653L33.7119 1.23338L31.3217 0.844012L28.9602 0.270857L26.5604 0L24.6827 0.299877L22.8002 0.681985L20.8889 0.911726L19.0016 1.27448L17.1287 1.70738L15.4187 2.57315L13.6344 3.28416L11.9507 4.21281L10.1999 5.00121L8.54013 5.92986L7.37135 7.43652L6.39178 9.10036L5.22301 10.6336L4.23386 12.2926L3.18723 13.9129L1.53705 16.5393L1.39814 19.659L0.5 22.6264Z" fill="#FFB32C"/>
<path d="M16.4028 19.0737C16.2615 19.0785 16.0963 19.0858 16.0867 19.1632C16.0699 19.2865 16.0556 19.4147 16.1035 19.5284C16.1777 19.688 16.0292 19.8766 16.1346 20.0338C16.1777 20.0918 15.9765 20.0459 15.9214 20.0749C15.8328 20.1257 15.84 20.1837 15.955 20.1789C16.3166 20.1596 16.1873 20.2539 16.0843 20.3554C16.058 20.3796 16.034 20.4038 16.0077 20.428C15.9813 20.4159 15.9454 20.4038 15.9262 20.3869C15.8975 20.3627 15.8975 20.3095 15.852 20.3119C15.6628 20.3192 15.7753 20.3796 15.7131 20.4111C15.3083 20.619 15.5047 20.7714 15.4975 20.9407C15.4975 20.9745 15.5071 21.0132 15.4712 21.0495C15.4185 21.1051 15.5047 21.0447 15.4089 21.0495C15.3155 21.0544 15.1838 21.0447 15.2293 20.9842C15.4113 20.7521 15.076 20.7037 14.9491 20.5683C14.9203 20.5392 14.8652 20.5223 14.8221 20.4981C14.7886 20.5344 14.7622 20.5731 14.7191 20.6094C14.6592 20.6602 14.597 20.7134 14.5203 20.7617C14.4916 20.7811 14.4078 20.7956 14.3694 20.7907C14.3311 20.7883 14.288 20.7496 14.3024 20.74C14.573 20.5465 14.1204 20.4933 14.2305 20.3506C14.3814 20.1716 14.0653 20.145 14.0294 20.0338C13.9839 19.8959 13.9383 19.7557 13.9168 19.6178C13.8928 19.4776 13.8833 19.3349 13.9096 19.1946C13.9599 18.9359 13.8761 18.6843 13.9862 18.4256C14.082 18.1934 13.8713 17.9637 13.7635 17.746C13.6294 17.4752 13.6893 17.2091 13.6294 16.9431C13.5839 16.74 13.7539 16.5271 13.4833 16.3313C13.4402 16.2998 13.4785 16.2321 13.5264 16.1934C13.5959 16.1378 13.6414 16.0846 13.6366 16.0217C13.5982 15.5429 13.9216 15.0737 13.8234 14.6263C13.8138 14.5803 13.8042 14.5344 13.8066 14.4884C13.8066 14.4449 13.8186 14.4086 13.8521 14.3699C13.9192 14.2974 14.0725 14.2248 14.391 14.1837C14.4341 14.1789 14.4629 14.1281 14.4676 14.0991C14.4796 14.0338 14.573 13.9975 14.7359 13.9782C14.9371 13.954 14.9538 14.0217 14.9371 14.0822C14.8892 14.2394 15.3873 14.249 15.3203 14.4401C15.2676 14.5707 15.3897 14.723 15.6676 14.8198C15.7586 14.8512 15.737 14.8657 15.6963 14.8996C15.4424 15.1076 15.5071 15.3276 15.6963 15.5187C15.8592 15.6831 15.6532 15.8573 15.9047 16.0048C15.476 16.1281 15.9621 16.2587 15.9047 16.3675C15.8328 16.5078 15.8903 16.6384 15.9143 16.769C15.9286 16.8512 16.034 16.9213 15.7658 16.9697C15.5885 17.0036 15.7274 17.0181 15.8185 17.0471C16.022 17.1124 16.0699 17.2188 16.0244 17.3131C15.8831 17.5936 15.9981 17.8645 15.9933 18.1378C15.9933 18.2684 16.0987 18.3917 16.3549 18.4691V18.5368C15.7969 18.5562 16.0436 18.7158 16.0364 18.8125C16.0292 18.9044 15.8927 19.0737 16.3933 19.0012L16.4004 19.0664L16.4028 19.0737Z" fill="#555555"/>
<path d="M13.007 34.0724C13.1099 33.9636 13.2273 33.833 12.7722 33.6105C12.0418 33.2453 11.3352 32.7979 10.667 32.3384C10.5473 32.2538 10.4299 32.1668 10.3149 32.0773C10.2024 31.9854 10.097 31.8862 9.9892 31.7895C9.77126 31.5984 9.58205 31.3808 9.38806 31.168C9.28986 31.064 9.19884 30.9503 9.10783 30.8391C9.01682 30.7278 8.92342 30.619 8.83001 30.5077C8.65517 30.278 8.46836 30.0555 8.28155 29.8282C8.00133 29.4727 8.47794 29.833 8.44441 29.6806C8.39651 29.4364 8.17856 29.1244 8.03007 29.0906C7.79296 29.0446 7.63729 28.8923 7.52472 28.6891C7.41694 28.4836 7.35946 28.2224 7.2924 27.9684C7.25887 27.8475 7.24211 27.7242 7.21815 27.6057C7.2924 27.7072 7.36664 27.8064 7.44568 27.9128C7.55825 28.0773 7.70674 28.3771 7.76661 28.3989C8.02528 28.4884 7.68758 28.0628 7.69477 27.9297C7.70195 27.7193 7.6804 27.5017 7.63489 27.2792C7.58459 27.0567 7.50795 26.8318 7.43371 26.5972C7.26845 26.1353 7.07924 25.6444 6.96188 25.168C6.91638 24.9745 6.85171 24.7472 6.8565 24.5972C6.86129 24.3723 6.81578 24.5755 6.94272 24.6843C7.06726 24.7883 7.25647 24.9962 7.26845 25.2647C7.2924 25.521 7.34509 25.7532 7.41454 25.9684C7.48639 26.1837 7.58938 26.3771 7.69477 26.5634C7.79536 26.7496 7.9223 26.9189 8.04205 27.0882C8.10192 27.1728 8.1618 27.2574 8.22168 27.3445C8.28155 27.4291 8.34382 27.5138 8.40609 27.5984C8.51147 27.7484 8.62643 27.8669 8.74379 27.995C8.70068 27.8379 8.65517 27.671 8.63123 27.5259C8.61446 27.4219 8.60009 27.3203 8.59051 27.2212C8.58572 27.1196 8.58332 27.0229 8.59051 26.9358C8.5953 26.8705 8.67912 26.8512 8.739 26.8898C8.79408 26.9261 8.91863 27.1148 8.92342 27.1462C8.9306 27.3252 8.9833 27.4872 9.05754 27.6347C9.12939 27.7846 9.24196 27.9104 9.34495 28.0362C9.55092 28.2901 9.8 28.4884 9.8958 28.7617C10.0515 29.1027 10.2455 29.3106 10.461 29.4557C10.5664 29.5307 10.6694 29.5984 10.7748 29.6637C10.8802 29.729 10.9831 29.7967 11.079 29.8862C12.0705 30.7762 13.2465 31.4364 14.4655 31.9394C15.0355 32.174 15.6391 32.3312 16.2546 32.4473C16.8701 32.5658 17.5 32.6311 18.1371 32.7109C18.7119 32.7859 19.3131 32.7351 19.9023 32.6383C20.4914 32.5416 21.0662 32.3747 21.6123 32.232C22.9679 31.8499 24.3019 31.5307 25.5761 30.9745C26.0647 30.7665 26.5748 30.5779 27.0682 30.3578C27.5568 30.1305 28.0286 29.8693 28.4118 29.5041C28.5364 29.388 28.8597 29.2526 29.0609 29.1897C29.3507 29.1051 29.6117 28.9938 29.8919 28.8149C30.426 28.4618 30.9553 28.1135 31.4775 27.7532C31.9948 27.388 32.5025 27.0132 32.9887 26.6117C33.9563 25.8112 34.8521 24.8995 35.4748 23.8378C35.7358 23.4001 35.9514 22.9358 36.1789 22.5779C36.4088 22.2175 36.6412 21.9515 36.9908 21.8911C37.0124 21.8862 37.0555 21.8161 37.0914 21.7242C37.1249 21.6323 37.1561 21.5186 37.1776 21.434C37.2543 21.0398 37.3549 20.9213 37.5201 20.9648C37.7141 21.0156 37.6974 21.4049 37.6016 21.7121C37.4794 22.1353 37.4986 22.4207 37.5034 22.7326C37.5034 23.0422 37.4842 23.3784 37.2184 23.8258C36.828 24.469 36.4352 25.2502 36.313 25.8596C36.2723 26.0603 36.1957 26.116 36.0472 26.2369C35.082 27.0083 34.2174 27.9225 33.4821 28.7738C33.3264 28.96 33.1468 29.1244 32.9552 29.2792C32.7684 29.4388 32.5672 29.5791 32.3732 29.7242C31.9828 30.0095 31.5996 30.2828 31.3122 30.619C31.0966 30.6335 30.9098 30.6867 30.7446 30.7713C30.5793 30.856 30.4332 30.9696 30.2919 31.0833C30.1506 31.1994 30.0189 31.3276 29.8824 31.4412C29.7459 31.5525 29.6045 31.6516 29.4537 31.7169C28.6825 32.0482 28.0118 32.4303 27.2957 32.7665C26.855 32.9721 26.4934 33.2236 26.1293 33.0736C25.8898 32.9745 25.8467 33.1365 25.7102 33.2816C25.6336 33.3638 25.5378 33.4412 25.43 33.5138C25.3198 33.5839 25.1977 33.6492 25.066 33.7073C24.8049 33.8282 24.5103 33.9128 24.2349 33.9684C22.5799 34.2877 20.9321 34.6915 19.2197 34.7472C18.403 34.7713 17.5982 34.8366 16.9564 35.0325L16.5133 34.9842C16.5947 34.7109 16.3528 34.5948 16.0175 34.5271C15.8475 34.4981 15.6559 34.4666 15.4643 34.44C15.2751 34.4134 15.0882 34.3868 14.935 34.3409C14.7913 34.2998 14.6236 34.2466 14.456 34.1909C14.2883 34.1305 14.1206 34.0724 13.9721 34.0386C13.6728 33.966 13.4452 33.9684 13.4428 34.2417C13.3015 34.1861 13.1554 34.1377 13.0165 34.0773L13.007 34.0724Z" fill="#555555"/>
<path d="M25.6836 18.9552C25.5471 18.9189 25.3866 18.8778 25.3531 18.9552C25.3004 19.0786 25.2477 19.2067 25.2597 19.3373C25.2764 19.5284 25.0776 19.6735 25.1279 19.8645C25.1471 19.9371 24.9747 19.8234 24.9124 19.8355C24.8118 19.8549 24.7974 19.9177 24.91 19.9492C25.2573 20.0532 25.104 20.0991 24.977 20.1644C24.9459 20.1789 24.9148 20.1934 24.8836 20.2055C24.8621 20.1837 24.8309 20.1644 24.819 20.1426C24.7998 20.1088 24.8142 20.058 24.7735 20.0459C24.5914 19.9903 24.6801 20.087 24.6106 20.0967C24.1675 20.162 24.2897 20.3772 24.2466 20.5247C24.237 20.5562 24.2418 20.5852 24.1987 20.6142C24.1364 20.6553 24.2322 20.6142 24.1364 20.6046C24.0454 20.5949 23.9137 20.5489 23.9759 20.4981C24.0909 20.4062 24.0789 20.3313 24.0238 20.249C23.9711 20.1692 23.8753 20.0822 23.8346 19.9975C23.8179 19.9613 23.77 19.925 23.7364 19.8863C23.6933 19.9105 23.655 19.9395 23.6047 19.9613C23.5328 19.9927 23.4562 20.0217 23.3676 20.0459C23.3341 20.0556 23.2502 20.0411 23.2143 20.0241C23.1808 20.0072 23.1496 19.954 23.1664 19.9492C23.4849 19.8476 23.073 19.6493 23.2239 19.5525C23.4227 19.4316 23.1281 19.3035 23.1281 19.1898C23.1281 18.9044 23.1281 18.6191 23.255 18.3676C23.37 18.1354 23.358 17.879 23.5233 17.659C23.6718 17.4607 23.5185 17.1898 23.461 16.9576C23.3867 16.6698 23.4969 16.428 23.4873 16.162C23.4801 15.9588 23.6813 15.7847 23.4442 15.555C23.4059 15.5187 23.4538 15.4631 23.5065 15.4316C23.5807 15.3905 23.6358 15.347 23.6382 15.2865C23.6526 15.0544 23.7508 14.844 23.8346 14.6312C23.9184 14.4232 23.9903 14.2079 23.9448 14.0266C23.9352 13.9927 23.928 13.9492 23.928 13.9226C23.928 13.8935 23.94 13.8669 23.9735 13.8379C24.0358 13.8016 24.1891 13.7484 24.498 13.6686C24.5388 13.659 24.5675 13.6154 24.5699 13.6009C24.5771 13.584 24.6609 13.5211 24.8046 13.4413C24.9794 13.3422 25.0297 13.4171 25.0226 13.4824C25.013 13.5695 25.1279 13.5961 25.2429 13.6396C25.3602 13.6831 25.4728 13.7412 25.4393 13.8476C25.3914 13.9975 25.5087 14.1596 25.7818 14.2829C25.8728 14.324 25.8488 14.3409 25.8057 14.3724C25.5375 14.5876 25.5806 14.8198 25.7458 15.0495C25.8872 15.2478 25.6572 15.405 25.8848 15.5961C25.4441 15.6662 25.9015 15.8742 25.8273 15.9854C25.7315 16.1233 25.765 16.2684 25.7626 16.4135C25.7626 16.503 25.8512 16.5973 25.5782 16.5973C25.3986 16.5973 25.5303 16.6408 25.6141 16.6892C25.8009 16.7956 25.8249 16.9214 25.7602 17.0084C25.5638 17.2744 25.6117 17.584 25.5399 17.8669C25.5063 18.0024 25.5782 18.1572 25.8057 18.3071L25.7914 18.3796C25.2453 18.2539 25.4369 18.4812 25.4034 18.5828C25.3698 18.6771 25.1926 18.8125 25.6956 18.8802L25.6812 18.9504L25.6836 18.9552Z" fill="#555555"/>
</svg>
