<svg width="52" height="50" viewBox="0 0 52 50" fill="none" xmlns="http://www.w3.org/2000/svg">
<path d="M51.5 22.6802L51.1433 25.0206L50.6701 27.3489L50.1338 29.665L49.7528 32.0199L48.8136 34.2054L47.906 36.4006L46.8601 38.5377L46.0205 40.7643L44.1398 42.2092L42.3173 43.7243L40.5409 45.2902L38.7233 46.8077L37.3037 47.8557L35.7894 48.7511L34.0397 48.9181L32.2876 49.1505L30.5671 49.5571L28.8563 50L26.8809 49.6418L24.9347 49.1602L22.9423 48.8915L20.984 48.4462L19.0499 47.9331L17.1934 47.2094L15.3443 46.4398L13.449 45.7718L11.6241 44.9393L9.73368 44.2011L8.48634 42.6182L7.26085 41.0475L5.91402 39.5784L4.73463 37.9641L3.34897 36.5192L2.45836 35.1372L1.52408 33.7746L1.44885 32.124L1.14793 30.5121L0.890702 28.8954L0.5 27.3174L0.885849 25.4296L1.50224 23.5975L2.04825 21.7411L2.44866 19.8437L3.10873 18.026L4.04059 16.3343L5.08408 14.7006L6.07903 13.0355L7.09098 11.38L8.1005 9.73184L9.68757 8.63304L11.2237 7.4447L12.7889 6.29508L14.3347 5.11399L15.9534 4.03214L17.902 2.89946L19.7779 1.63367L22.0032 1.24643L24.2406 0.95358L26.4174 0.358197L28.633 0L30.703 0.307372L32.756 0.757539L34.7944 1.29241L36.8644 1.67239L38.733 2.61871L40.6695 3.43192L42.526 4.41454L44.4479 5.27373L45.5521 7.05988L46.6805 8.8194L47.8114 10.5838L48.9714 12.3263L49.7406 13.9624L50.6506 15.5259L50.7113 17.3339L50.7865 19.1442L51.1384 20.9207L51.5 22.6802Z" fill="#FFB32C"/>
<path d="M28.2713 15.1387C28.1306 15.1654 27.9656 15.1992 27.968 15.2839C27.9729 15.4195 27.9801 15.5574 28.0481 15.6736C28.1476 15.843 28.0262 16.0633 28.1524 16.2254C28.201 16.2884 27.9923 16.2496 27.9413 16.2884C27.8564 16.3513 27.8685 16.4142 27.9874 16.3997C28.3514 16.3537 28.2325 16.4723 28.1379 16.5885C28.1136 16.6151 28.0918 16.6441 28.0675 16.6707C28.0384 16.6562 28.002 16.6465 27.9801 16.6296C27.9486 16.6054 27.9413 16.5473 27.8976 16.5522C27.7059 16.5691 27.8273 16.6296 27.7666 16.6683C27.3783 16.9079 27.5773 17.058 27.5797 17.2371C27.5797 17.2734 27.5943 17.3121 27.5579 17.3508C27.5045 17.4065 27.5919 17.346 27.4948 17.3508C27.4001 17.3557 27.2643 17.3484 27.3104 17.2831C27.4851 17.041 27.1478 16.9975 27.007 16.8765C26.9755 16.8498 26.9172 16.8353 26.8735 16.816C26.842 16.8547 26.8177 16.8958 26.7789 16.9346C26.7231 16.9902 26.6624 17.0459 26.5872 17.0967C26.5581 17.1161 26.4756 17.1354 26.4367 17.1354C26.3979 17.1354 26.3518 17.1016 26.3639 17.0919C26.626 16.8837 26.1649 16.8741 26.2669 16.7288C26.4028 16.5401 26.08 16.5497 26.0315 16.4505C25.9101 16.2012 25.7937 15.9447 25.7985 15.6639C25.8058 15.405 25.682 15.1775 25.7403 14.9064C25.7912 14.6619 25.5364 14.478 25.3835 14.2892C25.1943 14.0545 25.1943 13.781 25.0753 13.5341C24.9856 13.3429 25.102 13.096 24.789 12.9653C24.738 12.9436 24.7623 12.8685 24.7987 12.8201C24.8521 12.7499 24.8861 12.687 24.8666 12.6241C24.7162 12.1473 24.9225 11.6076 24.7308 11.1332C24.6507 10.9372 24.5827 10.7072 25.2161 10.5378C25.2574 10.5257 25.284 10.4604 25.2865 10.4241C25.2913 10.3394 25.3835 10.3006 25.5486 10.2837C25.7524 10.2619 25.7742 10.3248 25.7597 10.3854C25.7209 10.5524 26.2329 10.4967 26.1892 10.6806C26.1601 10.8162 26.3105 10.942 26.6042 10.9783C26.7013 10.9904 26.6818 11.0098 26.6503 11.0485C26.4392 11.3002 26.5532 11.5059 26.7838 11.6511C26.9828 11.777 26.8202 11.9972 27.1017 12.082C26.7085 12.3046 27.2181 12.3216 27.189 12.445C27.1502 12.6023 27.2376 12.7209 27.2934 12.8468C27.3273 12.9266 27.4463 12.9726 27.1939 13.0839C27.0264 13.1565 27.1672 13.142 27.2618 13.1517C27.4778 13.1711 27.5506 13.2703 27.5263 13.3768C27.4511 13.6914 27.6258 13.948 27.6792 14.2336C27.7059 14.3691 27.837 14.478 28.1088 14.5119L28.1257 14.5821C27.57 14.7055 27.8467 14.8265 27.8564 14.9306C27.8661 15.0298 27.7617 15.2283 28.2519 15.0734L28.2713 15.1436V15.1387Z" fill="#555555"/>
<path d="M24.3134 29.2754C24.4324 29.1713 24.5585 29.0648 24.1145 28.7914C23.9349 28.6824 23.7553 28.5735 23.5757 28.4646L23.0443 28.1234C22.6851 27.9031 22.3405 27.6635 21.9862 27.453C20.9743 26.8164 20.188 25.9718 19.2367 25.2457C18.8752 24.9601 19.4333 25.207 19.3654 25.0642C19.2586 24.8342 18.9674 24.5656 18.8048 24.5753C18.3025 24.6092 18.0355 24.1372 17.7443 23.6846C17.6788 23.5733 17.6157 23.4644 17.5502 23.3555C17.6569 23.4329 17.7661 23.4983 17.8729 23.5854C18.0355 23.7112 18.2806 23.9605 18.3461 23.9654C18.6325 23.9799 18.1593 23.6604 18.1229 23.5297C18.0088 23.1038 17.7249 22.7044 17.3827 22.3099C17.0527 21.9057 16.6523 21.5137 16.3392 21.0925C16.2106 20.9255 16.048 20.7343 15.9825 20.5867C15.8854 20.3689 15.9364 20.5819 16.1038 20.6351C16.2664 20.6859 16.5382 20.8094 16.6741 21.0659C16.8003 21.3128 16.9532 21.5161 17.1158 21.6976C17.276 21.8791 17.4482 22.0388 17.623 22.1865C17.9821 22.4721 18.3534 22.7141 18.7101 22.9997C18.8679 23.1207 19.028 23.2054 19.1882 23.3071C19.0936 23.1594 18.9844 23.0045 18.9067 22.8642C18.7975 22.6657 18.7029 22.4551 18.647 22.2736C18.6252 22.2058 18.7029 22.1623 18.7757 22.1841C18.846 22.2034 19.045 22.3583 19.0572 22.3946C19.21 22.7601 19.5061 22.9997 19.8046 23.2127C20.1104 23.4184 20.421 23.5951 20.6078 23.8565C20.8626 24.1953 21.132 24.372 21.3868 24.5148C21.6489 24.6503 21.9061 24.7423 22.1488 24.9214C23.3937 25.8241 24.743 26.5986 26.051 27.3319C26.3543 27.5038 26.6722 27.6514 26.9877 27.8015C27.3105 27.9346 27.6284 28.0822 27.956 28.1984L28.4462 28.3847L28.9412 28.5542L29.1887 28.6437L29.4387 28.7236C29.6037 28.7768 29.7712 28.8373 29.9362 28.8954C30.538 29.089 31.1835 29.2028 31.829 29.227C32.1518 29.2512 32.4745 29.2367 32.79 29.2391C32.9477 29.2318 33.1055 29.2246 33.2608 29.2173C33.4161 29.2125 33.569 29.2028 33.7194 29.1907C34.4717 29.1447 35.207 29.0866 35.9326 28.9898C36.6582 28.893 37.3765 28.7599 38.073 28.5469C38.6068 28.3775 39.1601 28.2371 39.6892 28.0338C40.2158 27.8281 40.7254 27.5812 41.1282 27.2085C41.2641 27.0972 41.5917 26.9471 41.8053 26.8866C42.0989 26.7874 42.378 26.6736 42.6595 26.4727C43.7442 25.7079 44.7659 24.8705 45.5934 23.8758C46.0059 23.3797 46.3651 22.8448 46.6369 22.2785C46.9111 21.7121 47.0834 21.1119 47.1222 20.5189C47.1562 20.0276 47.1052 19.546 47.0785 19.1394C47.0785 19.0353 47.064 18.9409 47.0688 18.8441C47.0688 18.7957 47.0737 18.7497 47.0761 18.7037C47.0761 18.6578 47.081 18.6142 47.0858 18.5706C47.098 18.4835 47.1198 18.3988 47.1538 18.3165C47.1829 18.2366 47.2241 18.1616 47.28 18.0914C47.2945 18.0721 47.2751 17.9922 47.2411 17.893C47.2072 17.7961 47.1441 17.6872 47.1004 17.6074C47.0494 17.513 47.0033 17.4379 46.9693 17.3726C46.9378 17.3073 46.9184 17.2492 46.9111 17.2032C46.8965 17.1064 46.9329 17.0434 47.0082 17.0047C47.1877 16.9055 47.462 17.2201 47.6149 17.5323C47.8211 17.9583 48.0322 18.1785 48.2361 18.4472C48.3356 18.5827 48.4399 18.7255 48.5127 18.9119C48.5952 19.0958 48.6414 19.3257 48.6535 19.6113C48.6535 20.0276 48.6535 20.4802 48.6559 20.9086C48.6511 21.1216 48.6559 21.3346 48.6608 21.533C48.6608 21.7291 48.6826 21.9227 48.6972 22.0897C48.719 22.3099 48.6729 22.4091 48.5564 22.5882C48.1924 23.1812 47.8333 23.7645 47.4717 24.3357C47.1149 24.9044 46.7558 25.4587 46.4136 25.9718C46.2704 26.1993 46.0884 26.3977 45.904 26.5986C45.7099 26.7874 45.5157 26.9786 45.3095 27.1504C44.9091 27.5086 44.5014 27.8257 44.1956 28.2056C43.7272 28.271 43.3972 28.5033 43.0842 28.7623C42.7735 29.0189 42.4872 29.3044 42.145 29.4424C41.286 29.7982 40.5215 30.1733 39.6964 30.4734C39.5703 30.5194 39.4489 30.5678 39.3324 30.6138C39.216 30.6574 39.1019 30.6937 38.9927 30.7227C38.7743 30.7784 38.5729 30.7929 38.3836 30.6961C38.1361 30.5727 38.0681 30.7324 37.8982 30.8655C37.7065 31.0059 37.4323 31.1317 37.129 31.2164C36.8232 31.2963 36.4907 31.3544 36.1777 31.3592C35.2458 31.398 34.3237 31.427 33.3967 31.4052C32.4721 31.3834 31.5475 31.3012 30.6399 31.1317C30.2055 31.0567 29.776 30.9744 29.3635 30.9405C28.9558 30.8873 28.5602 30.8849 28.2108 30.9018L27.7618 30.7614C28.0336 30.2629 26.8518 30.1007 26.2451 29.82C25.9563 29.6965 25.5972 29.4739 25.2938 29.3674C24.9978 29.2488 24.7624 29.227 24.7308 29.4981L24.3134 29.2875V29.2754Z" fill="#555555"/>
<path d="M38.5776 14.7031C38.4368 14.72 38.2694 14.7418 38.267 14.8289C38.2621 14.9693 38.2597 15.1145 38.3203 15.2404C38.4053 15.4243 38.267 15.6421 38.3786 15.8261C38.4223 15.8963 38.2184 15.8333 38.1626 15.8672C38.0728 15.9229 38.0777 15.9906 38.1966 15.9882C38.5654 15.9834 38.4344 16.0947 38.3276 16.2012C38.3009 16.2254 38.2742 16.252 38.25 16.2787C38.2208 16.2617 38.1869 16.2448 38.1675 16.2254C38.1383 16.1964 38.1383 16.1359 38.0922 16.1359C37.8981 16.131 38.0146 16.2085 37.9515 16.2399C37.5389 16.4408 37.7209 16.6127 37.6967 16.8014C37.6918 16.8377 37.6991 16.8813 37.6603 16.9152C37.5996 16.9636 37.6942 16.9152 37.5972 16.9055C37.5025 16.8934 37.3691 16.8668 37.4225 16.8111C37.6287 16.5933 37.2987 16.5037 37.1701 16.3682C37.1434 16.3392 37.0851 16.3174 37.0439 16.2932C37.0099 16.3295 36.9808 16.3658 36.9371 16.3997C36.8764 16.4481 36.8085 16.4965 36.7284 16.5376C36.6993 16.5546 36.6144 16.5642 36.5731 16.5594C36.5367 16.5546 36.493 16.5183 36.5076 16.511C36.7891 16.3343 36.3329 16.2762 36.4493 16.148C36.6022 15.9737 36.2795 15.9543 36.2406 15.8551C36.1436 15.5986 36.0465 15.3396 36.0708 15.0637C36.095 14.8071 35.9858 14.5748 36.0586 14.3086C36.1242 14.0665 35.8742 13.8753 35.731 13.6817C35.5515 13.4421 35.5587 13.1735 35.4471 12.929C35.3597 12.7427 35.4811 12.4982 35.1705 12.37C35.1195 12.3506 35.1438 12.278 35.1826 12.2272C35.2384 12.157 35.27 12.0965 35.2505 12.036C35.1001 11.5834 35.2918 11.0412 35.0685 10.6419C35.0224 10.5523 34.9787 10.487 35.0224 10.395C35.0443 10.349 35.0855 10.3006 35.1607 10.2425C35.2336 10.182 35.3403 10.1336 35.4859 10.0562C35.5248 10.0368 35.5393 9.98358 35.5345 9.95454C35.5248 9.89161 35.6024 9.82626 35.7504 9.74882C35.9324 9.65443 35.9713 9.71735 35.9761 9.78028C35.981 9.86741 36.1047 9.87225 36.2237 9.88435C36.345 9.89645 36.4663 9.91581 36.4639 10.0199C36.4566 10.1699 36.6168 10.2837 36.9177 10.3055C37.0172 10.3127 37.0002 10.3345 36.9711 10.3781C36.7794 10.6588 36.9104 10.867 37.1458 11.0146C37.3497 11.1429 37.1943 11.3752 37.4783 11.4648C37.0876 11.6971 37.5996 11.7165 37.5705 11.8448C37.5341 12.0093 37.619 12.1328 37.6748 12.2659C37.7088 12.3482 37.8277 12.4014 37.5729 12.5103C37.4055 12.5805 37.5462 12.5684 37.6409 12.5805C37.8568 12.6071 37.9272 12.7136 37.9005 12.8225C37.8229 13.1469 37.9855 13.4203 38.0291 13.718C38.0486 13.8608 38.1772 13.9794 38.449 14.0351L38.4635 14.1101C37.9029 14.2021 38.1699 14.3449 38.1747 14.4538C38.1796 14.5579 38.0631 14.7563 38.563 14.6305L38.5776 14.7055V14.7031Z" fill="#555555"/>
</svg>
