<svg width="49" height="51" viewBox="0 0 49 51" fill="none" xmlns="http://www.w3.org/2000/svg">
<path d="M49 23.341L48.7365 25.5731L48.4276 27.8029L48.0899 30.0302L47.5726 32.2237L47.3139 34.4655L46.8996 36.688L45.6661 38.5695L44.3153 40.3591L43.137 42.2624L41.6808 43.8101L40.318 45.457L38.8307 46.9927L36.8524 47.7859L34.8214 48.4171L32.8407 49.1886L30.7762 49.6844L28.6925 50.1027L26.6352 50.7146L24.6377 50.2962L22.6355 50.0012L20.6188 49.8077L18.6166 49.5127L16.6335 49.1161L14.7247 48.4848L12.8973 47.6215L11.0172 46.8911L9.14664 46.1342L7.22103 45.5006L6.04746 43.8488L4.90503 42.185L3.7602 40.5211L2.57466 38.8815L1.50648 37.1572L0.20837 34.2769L0.419131 32.6977L0.567626 31.1064L0.0766428 27.9649L0.146097 25.7593L0.069458 23.5489L0 21.3385L0.0742455 19.1257L0.155679 16.9105L0.241901 14.7001L1.32685 12.7968L2.39743 10.8742L3.58537 9.03382L5.34093 7.38449L7.01266 5.62391L8.80175 3.98183L11.1633 3.40142L13.4313 2.52113L15.7881 1.94797L18.1783 1.55861L20.5398 0.985457L22.9396 0.7146L24.8173 1.01448L26.6998 1.39658L28.6111 1.62633L30.4984 1.98908L32.3713 2.42198L34.0813 3.28775L35.8656 3.99876L37.5493 4.92741L39.3001 5.71581L40.9599 6.64446L42.1286 8.15112L43.1082 9.81496L44.277 11.3482L45.2661 13.0072L46.3128 14.6275L47.9629 17.2539L48.1019 20.3736L49 23.341Z" fill="#FFB32C"/>
<path d="M33.0967 19.7883C33.238 19.7931 33.4032 19.8004 33.4128 19.8778C33.4296 20.0011 33.444 20.1293 33.3961 20.243C33.3218 20.4026 33.4703 20.5912 33.3649 20.7484C33.3218 20.8064 33.523 20.7605 33.5781 20.7895C33.6667 20.8403 33.6595 20.8983 33.5445 20.8935C33.1829 20.8742 33.3122 20.9685 33.4152 21.07C33.4416 21.0942 33.4655 21.1184 33.4919 21.1426C33.5182 21.1305 33.5541 21.1184 33.5733 21.1015C33.602 21.0773 33.602 21.0241 33.6475 21.0265C33.8367 21.0338 33.7242 21.0942 33.7864 21.1257C34.1912 21.3336 33.9948 21.486 34.002 21.6553C34.002 21.6891 33.9924 21.7278 34.0283 21.7641C34.081 21.8197 33.9948 21.7593 34.0906 21.7641C34.184 21.7689 34.3158 21.7593 34.2702 21.6988C34.0882 21.4667 34.4235 21.4183 34.5505 21.2829C34.5792 21.2538 34.6343 21.2369 34.6774 21.2127C34.7109 21.249 34.7373 21.2877 34.7804 21.324C34.8403 21.3748 34.9025 21.428 34.9792 21.4763C35.0079 21.4957 35.0917 21.5102 35.1301 21.5053C35.1684 21.5029 35.2115 21.4642 35.1971 21.4546C34.9265 21.2611 35.3791 21.2079 35.269 21.0652C35.1181 20.8862 35.4342 20.8596 35.4702 20.7484C35.5157 20.6105 35.5612 20.4703 35.5827 20.3324C35.6067 20.1922 35.6162 20.0495 35.5899 19.9092C35.5396 19.6505 35.6234 19.3989 35.5133 19.1402C35.4175 18.908 35.6282 18.6783 35.736 18.4606C35.8701 18.1898 35.8102 17.9237 35.8701 17.6577C35.9156 17.4546 35.7456 17.2417 36.0162 17.0459C36.0593 17.0144 36.021 16.9467 35.9731 16.908C35.9037 16.8524 35.8582 16.7992 35.8629 16.7363C35.9013 16.2575 35.5779 15.7883 35.6761 15.3409C35.6857 15.2949 35.6953 15.249 35.6929 15.203C35.6929 15.1595 35.6809 15.1232 35.6474 15.0845C35.5803 15.012 35.427 14.9394 35.1085 14.8983C35.0654 14.8935 35.0367 14.8427 35.0319 14.8137C35.0199 14.7484 34.9265 14.7121 34.7636 14.6928C34.5624 14.6686 34.5457 14.7363 34.5624 14.7968C34.6103 14.954 34.1122 14.9636 34.1792 15.1547C34.2319 15.2853 34.1098 15.4376 33.8319 15.5344C33.7409 15.5658 33.7625 15.5803 33.8032 15.6142C34.0571 15.8222 33.9924 16.0422 33.8032 16.2333C33.6403 16.3977 33.8463 16.5719 33.5948 16.7194C34.0236 16.8427 33.5374 16.9733 33.5948 17.0821C33.6667 17.2224 33.6092 17.353 33.5853 17.4836C33.5709 17.5658 33.4655 17.6359 33.7338 17.6843C33.911 17.7182 33.7721 17.7327 33.6811 17.7617C33.4775 17.827 33.4296 17.9334 33.4751 18.0277C33.6164 18.3082 33.5014 18.5791 33.5062 18.8524C33.5062 18.983 33.4008 19.1063 33.1446 19.1837V19.2514C33.7026 19.2708 33.4559 19.4304 33.4631 19.5271C33.4703 19.619 33.6068 19.7883 33.1063 19.7158L33.0991 19.781L33.0967 19.7883Z" fill="#555555"/>
<path d="M36.493 34.7872C36.3901 34.6783 36.2727 34.5477 36.7277 34.3252C37.4582 33.9601 38.1648 33.5127 38.833 33.0532C38.9527 32.9685 39.0701 32.8815 39.1851 32.792C39.2976 32.7001 39.403 32.6009 39.5108 32.5042C39.7287 32.3132 39.9179 32.0955 40.1119 31.8827C40.2101 31.7787 40.3011 31.665 40.3922 31.5538C40.4832 31.4425 40.5766 31.3337 40.67 31.2225C40.8448 30.9927 41.0316 30.7702 41.2184 30.5429C41.4987 30.1874 41.022 30.5477 41.0556 30.3954C41.1035 30.1511 41.3214 29.8391 41.4699 29.8053C41.707 29.7593 41.8627 29.607 41.9753 29.4038C42.083 29.1983 42.1405 28.9371 42.2076 28.6832C42.2411 28.5622 42.2579 28.4389 42.2818 28.3204C42.2076 28.422 42.1333 28.5211 42.0543 28.6275C41.9417 28.792 41.7933 29.0919 41.7334 29.1136C41.4747 29.2031 41.8124 28.7775 41.8052 28.6445C41.798 28.4341 41.8196 28.2164 41.8651 27.9939C41.9154 27.7714 41.992 27.5465 42.0663 27.3119C42.2315 26.85 42.4207 26.3591 42.5381 25.8827C42.5836 25.6892 42.6483 25.4619 42.6435 25.3119C42.6387 25.087 42.6842 25.2902 42.5573 25.399C42.4327 25.503 42.2435 25.711 42.2315 25.9794C42.2076 26.2358 42.1549 26.4679 42.0854 26.6832C42.0136 26.8984 41.9106 27.0919 41.8052 27.2781C41.7046 27.4643 41.5777 27.6336 41.4579 27.8029C41.3981 27.8875 41.3382 27.9722 41.2783 28.0592C41.2184 28.1439 41.1562 28.2285 41.0939 28.3131C40.9885 28.4631 40.8736 28.5816 40.7562 28.7098C40.7993 28.5526 40.8448 28.3857 40.8688 28.2406C40.8855 28.1366 40.8999 28.035 40.9095 27.9359C40.9143 27.8343 40.9167 27.7376 40.9095 27.6505C40.9047 27.5852 40.8209 27.5659 40.761 27.6046C40.7059 27.6408 40.5814 27.8295 40.5766 27.8609C40.5694 28.0399 40.5167 28.2019 40.4424 28.3494C40.3706 28.4994 40.258 28.6251 40.155 28.7509C39.9491 29.0048 39.7 29.2031 39.6042 29.4764C39.4485 29.8174 39.2545 30.0254 39.039 30.1705C38.9336 30.2454 38.8306 30.3131 38.7252 30.3784C38.6198 30.4437 38.5168 30.5115 38.421 30.6009C37.4295 31.4909 36.2535 32.1511 35.0345 32.6541C34.4644 32.8887 33.8609 33.0459 33.2454 33.162C32.6299 33.2805 32 33.3458 31.3629 33.4256C30.7881 33.5006 30.1869 33.4498 29.5977 33.3531C29.0086 33.2563 28.4338 33.0894 27.8877 32.9468C26.5321 32.5647 25.1981 32.2454 23.9239 31.6892C23.4353 31.4812 22.9252 31.2926 22.4318 31.0725C21.9432 30.8452 21.4714 30.584 21.0882 30.2188C20.9636 30.1027 20.6403 29.9673 20.4391 29.9044C20.1493 29.8198 19.8883 29.7085 19.6081 29.5296C19.074 29.1765 18.5447 28.8283 18.0225 28.4679C17.5052 28.1028 16.9975 27.7279 16.5113 27.3264C15.5437 26.526 14.6479 25.6142 14.0252 24.5526C13.7642 24.1148 13.5486 23.6505 13.3211 23.2926C13.0912 22.9323 12.8588 22.6662 12.5092 22.6058C12.4876 22.6009 12.4445 22.5308 12.4086 22.4389C12.3751 22.347 12.3439 22.2333 12.3224 22.1487C12.2457 21.7545 12.1451 21.636 11.9799 21.6795C11.7859 21.7303 11.8026 22.1197 11.8984 22.4268C12.0206 22.85 12.0014 23.1354 11.9966 23.4474C11.9966 23.7569 12.0158 24.0931 12.2816 24.5405C12.672 25.1838 13.0648 25.9649 13.187 26.5743C13.2277 26.7751 13.3043 26.8307 13.4528 26.9516C14.418 27.7231 15.2826 28.6372 16.0179 29.4885C16.1736 29.6747 16.3532 29.8391 16.5448 29.9939C16.7316 30.1535 16.9328 30.2938 17.1268 30.4389C17.5172 30.7243 17.9004 30.9975 18.1878 31.3337C18.4034 31.3482 18.5902 31.4014 18.7554 31.4861C18.9207 31.5707 19.0668 31.6844 19.2081 31.798C19.3494 31.9141 19.4811 32.0423 19.6176 32.156C19.7541 32.2672 19.8955 32.3663 20.0463 32.4316C20.8175 32.763 21.4882 33.1451 22.2043 33.4812C22.645 33.6868 23.0066 33.9383 23.3706 33.7884C23.6102 33.6892 23.6533 33.8512 23.7898 33.9963C23.8664 34.0786 23.9622 34.156 24.07 34.2285C24.1802 34.2986 24.3023 34.3639 24.434 34.422C24.6951 34.5429 24.9897 34.6275 25.2651 34.6832C26.9201 35.0024 28.5679 35.4063 30.2803 35.4619C31.097 35.4861 31.9018 35.5514 32.5436 35.7472L32.9867 35.6989C32.9053 35.4256 33.1472 35.3095 33.4825 35.2418C33.6525 35.2128 33.8441 35.1813 34.0357 35.1547C34.2249 35.1281 34.4118 35.1015 34.565 35.0556C34.7087 35.0145 34.8764 34.9613 35.044 34.9057C35.2117 34.8452 35.3794 34.7872 35.5278 34.7533C35.8272 34.6807 36.0547 34.6832 36.0571 34.9564C36.1985 34.9008 36.3445 34.8524 36.4835 34.792L36.493 34.7872Z" fill="#555555"/>
<path d="M23.8159 19.6698C23.9525 19.6335 24.1129 19.5924 24.1464 19.6698C24.1991 19.7932 24.2518 19.9213 24.2399 20.0519C24.2231 20.243 24.4219 20.3881 24.3716 20.5791C24.3524 20.6517 24.5249 20.538 24.5871 20.5501C24.6877 20.5695 24.7021 20.6323 24.5895 20.6638C24.2422 20.7678 24.3955 20.8137 24.5225 20.879C24.5536 20.8935 24.5847 20.908 24.6159 20.9201C24.6374 20.8983 24.6686 20.879 24.6805 20.8572C24.6997 20.8234 24.6853 20.7726 24.726 20.7605C24.9081 20.7049 24.8194 20.8016 24.8889 20.8113C25.332 20.8766 25.2098 21.0918 25.253 21.2393C25.2625 21.2708 25.2577 21.2998 25.3009 21.3288C25.3631 21.3699 25.2673 21.3288 25.3631 21.3192C25.4541 21.3095 25.5859 21.2635 25.5236 21.2127C25.4086 21.1208 25.4206 21.0459 25.4757 20.9636C25.5284 20.8838 25.6242 20.7968 25.6649 20.7121C25.6817 20.6759 25.7296 20.6396 25.7631 20.6009C25.8062 20.6251 25.8445 20.6541 25.8948 20.6759C25.9667 20.7073 26.0433 20.7363 26.1319 20.7605C26.1655 20.7702 26.2493 20.7557 26.2852 20.7387C26.3187 20.7218 26.3499 20.6686 26.3331 20.6638C26.0146 20.5622 26.4265 20.3639 26.2756 20.2671C26.0768 20.1462 26.3714 20.0181 26.3714 19.9044C26.3714 19.619 26.3714 19.3337 26.2445 19.0822C26.1295 18.85 26.1415 18.5936 25.9763 18.3736C25.8278 18.1753 25.981 17.9044 26.0385 17.6722C26.1128 17.3844 26.0026 17.1426 26.0122 16.8766C26.0194 16.6734 25.8182 16.4993 26.0553 16.2696C26.0936 16.2333 26.0457 16.1777 25.993 16.1462C25.9188 16.1051 25.8637 16.0616 25.8613 16.0011C25.8469 15.769 25.7487 15.5586 25.6649 15.3458C25.5811 15.1378 25.5092 14.9225 25.5547 14.7412C25.5643 14.7073 25.5715 14.6638 25.5715 14.6372C25.5715 14.6081 25.5595 14.5815 25.526 14.5525C25.4637 14.5162 25.3104 14.463 25.0015 14.3832C24.9608 14.3736 24.932 14.33 24.9296 14.3155C24.9224 14.2986 24.8386 14.2357 24.6949 14.1559C24.5201 14.0568 24.4698 14.1317 24.477 14.197C24.4865 14.2841 24.3716 14.3107 24.2566 14.3542C24.1393 14.3977 24.0267 14.4558 24.0602 14.5622C24.1081 14.7121 23.9908 14.8742 23.7177 14.9975C23.6267 15.0386 23.6507 15.0555 23.6938 15.087C23.962 15.3022 23.9189 15.5344 23.7537 15.7641C23.6124 15.9624 23.8423 16.1196 23.6147 16.3107C24.0554 16.3808 23.598 16.5888 23.6722 16.7C23.768 16.8379 23.7345 16.983 23.7369 17.1281C23.7369 17.2176 23.6483 17.3119 23.9213 17.3119C24.1009 17.3119 23.9692 17.3554 23.8854 17.4038C23.6986 17.5102 23.6746 17.636 23.7393 17.723C23.9357 17.989 23.8878 18.2986 23.9596 18.5815C23.9932 18.717 23.9213 18.8718 23.6938 19.0217L23.7082 19.0942C24.2542 18.9685 24.0626 19.1958 24.0962 19.2974C24.1297 19.3917 24.3069 19.5271 23.804 19.5948L23.8183 19.665L23.8159 19.6698Z" fill="#555555"/>
</svg>
